<svg width="28" height="28" viewBox="0 0 28 28" fill="none" xmlns="http://www.w3.org/2000/svg">
<circle cx="14" cy="14" r="14" fill="#0050A1"/>
<path d="M9.70396 19.63L9.70397 19.63L9.7301 19.6234L9.73012 19.6234L11.3581 19.2164C11.3743 19.2124 11.3904 19.2084 11.4065 19.2044C11.6253 19.15 11.8356 19.0978 12.0271 18.9894C12.2185 18.881 12.3715 18.7275 12.5307 18.5679C12.5424 18.5561 12.5542 18.5444 12.566 18.5325L17.7993 13.2993L17.8148 13.2838C17.9965 13.102 18.1574 12.9412 18.28 12.7971C18.4106 12.6436 18.5322 12.4708 18.6039 12.2552L18.0346 12.0657L18.6039 12.2552C18.7131 11.9272 18.7131 11.5728 18.6039 11.2448L18.0547 11.4276L18.6039 11.2448C18.5322 11.0292 18.4106 10.8564 18.28 10.7029C18.1574 10.5588 17.9965 10.398 17.8147 10.2162L17.7993 10.2007L17.7838 10.1852C17.602 10.0035 17.4412 9.84262 17.2971 9.71998C17.1436 9.58941 16.9708 9.46782 16.7552 9.39606C16.4272 9.28693 16.0728 9.28693 15.7448 9.39606C15.5292 9.46782 15.3564 9.58941 15.2029 9.71998C15.0588 9.84262 14.898 10.0035 14.7162 10.1853L14.7007 10.2007L9.46745 15.434L9.46745 15.434C9.45564 15.4458 9.44386 15.4576 9.4321 15.4693C9.27248 15.6285 9.11904 15.7815 9.01064 15.9729C8.90225 16.1644 8.84999 16.3747 8.79562 16.5935C8.79162 16.6096 8.78761 16.6257 8.78356 16.6419L8.37003 18.296C8.36762 18.3057 8.36518 18.3154 8.36272 18.3252C8.32411 18.4793 8.28044 18.6535 8.26593 18.8018C8.24978 18.9669 8.25127 19.2662 8.49255 19.5074C8.73383 19.7487 9.03307 19.7502 9.19819 19.7341C9.34646 19.7196 9.52072 19.6759 9.67479 19.6373C9.6846 19.6348 9.69433 19.6324 9.70396 19.63Z" stroke="#F5F9FF" stroke-width="1.2"/>
<path d="M14.375 10.625L17.375 13.625" stroke="#F5F9FF"/>
</svg>
