<svg width="30" height="30" viewBox="0 0 30 30" fill="none" xmlns="http://www.w3.org/2000/svg">
<circle cx="15" cy="15" r="15" fill="#0050A1"/>
<path d="M23 19H7" stroke="#F5F9FF" stroke-width="2" stroke-linecap="round"/>
<path d="M15 12L15.2865 13.0038L16.299 12.75L15.5729 13.5L16.299 14.25L15.2865 13.9962L15 15L14.7135 13.9962L13.701 14.25L14.4271 13.5L13.701 12.75L14.7135 13.0038L15 12Z" stroke="#F5F9FF" stroke-width="2" stroke-linecap="round" stroke-linejoin="round"/>
<path d="M8.5 12L8.78647 13.0038L9.79904 12.75L9.07295 13.5L9.79904 14.25L8.78647 13.9962L8.5 15L8.21353 13.9962L7.20096 14.25L7.92705 13.5L7.20096 12.75L8.21353 13.0038L8.5 12Z" stroke="#F5F9FF" stroke-width="2" stroke-linecap="round" stroke-linejoin="round"/>
<path d="M21.5 12L21.7865 13.0038L22.799 12.75L22.0729 13.5L22.799 14.25L21.7865 13.9962L21.5 15L21.2135 13.9962L20.201 14.25L20.9271 13.5L20.201 12.75L21.2135 13.0038L21.5 12Z" stroke="#F5F9FF" stroke-width="2" stroke-linecap="round" stroke-linejoin="round"/>
</svg>
