<svg width="30" height="30" viewBox="0 0 30 30" fill="none" xmlns="http://www.w3.org/2000/svg">
<circle cx="15" cy="15" r="15" fill="#0050A1"/>
<path d="M6 11.5C6 10.1022 6 9.40326 6.22836 8.85195C6.53284 8.11687 7.11687 7.53284 7.85195 7.22836C8.40326 7 9.10218 7 10.5 7H19.5C20.8978 7 21.5967 7 22.1481 7.22836C22.8831 7.53284 23.4672 8.11687 23.7716 8.85195C24 9.40326 24 10.1022 24 11.5V12.25C24 12.6642 23.6642 13 23.25 13H23C21.8954 13 21 13.8954 21 15V15C21 16.1046 21.8954 17 23 17H23.25C23.6642 17 24 17.3358 24 17.75V18.5C24 19.8978 24 20.5967 23.7716 21.1481C23.4672 21.8831 22.8831 22.4672 22.1481 22.7716C21.5967 23 20.8978 23 19.5 23H10.5C9.10218 23 8.40326 23 7.85195 22.7716C7.11687 22.4672 6.53284 21.8831 6.22836 21.1481C6 20.5967 6 19.8978 6 18.5V17.75C6 17.3358 6.33579 17 6.75 17H7C8.10457 17 9 16.1046 9 15V15C9 13.8954 8.10457 13 7 13H6.75C6.33579 13 6 12.6642 6 12.25V11.5Z" stroke="#F5F9FF" stroke-width="2"/>
<path d="M14.5568 13.6885C14.7249 13.2536 14.809 13.0361 14.9455 13.0059C14.9814 12.998 15.0186 12.998 15.0545 13.0059C15.191 13.0361 15.2751 13.2536 15.4432 13.6885C15.5389 13.9359 15.5867 14.0596 15.6761 14.1437C15.7012 14.1673 15.7284 14.1883 15.7574 14.2065C15.8608 14.2711 15.9899 14.2831 16.248 14.3071C16.685 14.3477 16.9035 14.368 16.9702 14.4973C16.984 14.5241 16.9934 14.5531 16.998 14.5831C17.0201 14.7279 16.8595 14.8796 16.5383 15.1829L16.449 15.2671C16.2989 15.4089 16.2238 15.4798 16.1803 15.5683C16.1543 15.6213 16.1368 15.6785 16.1286 15.7375C16.115 15.8358 16.137 15.9386 16.1809 16.1443L16.1967 16.2178C16.2755 16.5867 16.315 16.7712 16.2657 16.8618C16.2215 16.9433 16.1401 16.9954 16.0501 16.9999C15.9499 17.0048 15.8088 16.8855 15.5265 16.6468C15.3406 16.4895 15.2476 16.4109 15.1443 16.3802C15.05 16.3521 14.95 16.3521 14.8557 16.3802C14.7524 16.4109 14.6594 16.4895 14.4735 16.6468C14.1912 16.8855 14.0501 17.0048 13.9499 16.9999C13.8599 16.9954 13.7785 16.9433 13.7343 16.8618C13.685 16.7712 13.7245 16.5867 13.8033 16.2178L13.8191 16.1443C13.863 15.9386 13.885 15.8358 13.8714 15.7375C13.8632 15.6785 13.8457 15.6213 13.8197 15.5683C13.7762 15.4798 13.7011 15.4089 13.551 15.2671L13.4617 15.1829C13.1405 14.8796 12.9799 14.7279 13.002 14.5831C13.0066 14.5531 13.016 14.5241 13.0298 14.4973C13.0965 14.368 13.315 14.3477 13.752 14.3071C14.0101 14.2831 14.1392 14.2711 14.2426 14.2065C14.2716 14.1883 14.2988 14.1673 14.3239 14.1437C14.4133 14.0596 14.4611 13.9359 14.5568 13.6885Z" fill="#F5F9FF" stroke="#F5F9FF"/>
</svg>
