<svg width="30" height="30" viewBox="0 0 30 30" fill="none" xmlns="http://www.w3.org/2000/svg">
<circle cx="15" cy="15" r="15" fill="#0050A1"/>
<path d="M20.7071 16.7071L23.3552 19.3552C23.7113 19.7113 23.7113 20.2887 23.3552 20.6448C21.43 22.57 18.3821 22.7866 16.204 21.153L14.6286 19.9714C12.885 18.6638 11.3362 17.115 10.0286 15.3714L8.84701 13.796C7.21341 11.6179 7.43001 8.56999 9.35523 6.64477C9.71133 6.28867 10.2887 6.28867 10.6448 6.64477L13.2929 9.29289C13.6834 9.68342 13.6834 10.3166 13.2929 10.7071L12.2717 11.7283C12.1095 11.8905 12.0692 12.1385 12.1719 12.3437C13.3585 14.7171 15.2829 16.6415 17.6563 17.8281C17.8615 17.9308 18.1095 17.8905 18.2717 17.7283L19.2929 16.7071C19.6834 16.3166 20.3166 16.3166 20.7071 16.7071Z" stroke="#F5F9FF" stroke-width="2"/>
</svg>
