<svg xmlns="http://www.w3.org/2000/svg" width="24" height="24" fill="none" viewBox="0 0 24 24"><path fill="#1877F2" d="M23.54 11.7739C23.54 17.7202 19.1336 22.6362 13.4092 23.434C12.8739 23.5082 12.3263 23.547 11.7704 23.547C11.1288 23.547 10.4987 23.4958 9.88512 23.3968C4.28031 22.4943 0 17.6336 0 11.7739C0 5.27153 5.26997 0 11.7696 0C18.2692 0 23.54 5.27153 23.54 11.7739Z"/><path fill="#fff" d="M13.409 9.45325V12.0181H16.5809L16.0787 15.473H13.409V23.4331C12.8738 23.5074 12.3262 23.5461 11.7703 23.5461C11.1287 23.5461 10.4986 23.495 9.88501 23.396V15.473H6.95972V12.0181H9.88501V8.8799C9.88501 6.93299 11.4627 5.354 13.4099 5.354V5.35565C13.4156 5.35565 13.4206 5.354 13.4264 5.354H16.5817V8.34203H14.5199C13.9072 8.34203 13.4099 8.83948 13.4099 9.45243L13.409 9.45325Z"/></svg>