<svg xmlns="http://www.w3.org/2000/svg" width="24" height="24" fill="none" viewBox="0 0 24 24"><path fill="url(#paint0_linear_98_1353)" d="M11.8769 0H11.8233C5.33769 0 0.0800781 5.25916 0.0800781 11.7467V11.8003C0.0800781 18.2878 5.33769 23.5469 11.8233 23.5469H11.8769C18.3625 23.5469 23.6201 18.2878 23.6201 11.8003V11.7467C23.6201 5.25916 18.3625 0 11.8769 0Z"/><path fill="#fff" d="M15.4924 4.79053H8.20847C6.19615 4.79053 4.55908 6.42808 4.55908 8.44099V15.1067C4.55908 17.1196 6.19615 18.7572 8.20847 18.7572H15.4924C17.5047 18.7572 19.1418 17.1196 19.1418 15.1067V8.44099C19.1418 6.42808 17.5047 4.79053 15.4924 4.79053ZM5.84647 8.44099C5.84647 7.13837 6.90624 6.0783 8.20847 6.0783H15.4924C16.7946 6.0783 17.8544 7.13837 17.8544 8.44099V15.1067C17.8544 16.4093 16.7946 17.4694 15.4924 17.4694H8.20847C6.90624 17.4694 5.84647 16.4093 5.84647 15.1067V8.44099Z"/><path fill="#fff" d="M11.8506 15.1687C13.7219 15.1687 15.2452 13.6458 15.2452 11.7731C15.2452 9.90045 13.7227 8.37756 11.8506 8.37756C9.97849 8.37756 8.45605 9.90045 8.45605 11.7731C8.45605 13.6458 9.97849 15.1687 11.8506 15.1687ZM11.8506 9.66616C13.0126 9.66616 13.9578 10.6116 13.9578 11.7739C13.9578 12.9363 13.0126 13.8817 11.8506 13.8817C10.6886 13.8817 9.74344 12.9363 9.74344 11.7739C9.74344 10.6116 10.6886 9.66616 11.8506 9.66616Z"/><path fill="#fff" d="M15.5594 8.92608C16.0633 8.92608 16.474 8.51608 16.474 8.0112C16.474 7.50632 16.0641 7.09631 15.5594 7.09631C15.0547 7.09631 14.6448 7.50632 14.6448 8.0112C14.6448 8.51608 15.0547 8.92608 15.5594 8.92608Z"/><defs><linearGradient id="paint0_linear_98_1353" x1="3.519" x2="20.186" y1="20.107" y2="3.446" gradientUnits="userSpaceOnUse"><stop stop-color="#FAAD4F"/><stop offset=".35" stop-color="#DD2A7B"/><stop offset=".62" stop-color="#9537B0"/><stop offset="1" stop-color="#515BD4"/></linearGradient></defs></svg>