<svg width="25" height="24" viewBox="0 0 25 24" fill="none" xmlns="http://www.w3.org/2000/svg">
<path d="M12.3368 0H12.2832C5.79766 0 0.540039 5.25915 0.540039 11.7466V11.8003C0.540039 18.2878 5.79766 23.5469 12.2832 23.5469H12.3368C18.8224 23.5469 24.08 18.2878 24.08 11.8003V11.7466C24.08 5.25915 18.8224 0 12.3368 0Z" fill="#007EBB"/>
<path d="M6.15401 7.82725C5.84391 7.53934 5.6897 7.18296 5.6897 6.75893C5.6897 6.3349 5.84473 5.96284 6.15401 5.6741C6.4641 5.38619 6.86327 5.24182 7.35233 5.24182C7.84138 5.24182 8.22489 5.38619 8.53416 5.6741C8.84425 5.96201 8.99846 6.32417 8.99846 6.75893C8.99846 7.19368 8.84343 7.53934 8.53416 7.82725C8.22406 8.11517 7.83066 8.25953 7.35233 8.25953C6.87399 8.25953 6.4641 8.11517 6.15401 7.82725ZM8.73786 9.47883V18.3059H5.94948V9.47883H8.73786Z" fill="#FEFFFC"/>
<path d="M18.0201 10.3508C18.6279 11.0108 18.9314 11.9166 18.9314 13.0699V18.15H16.2833V13.4279C16.2833 12.8463 16.1323 12.3942 15.8313 12.0725C15.5303 11.7508 15.1245 11.5891 14.6165 11.5891C14.1085 11.5891 13.7027 11.7499 13.4017 12.0725C13.1006 12.3942 12.9497 12.8463 12.9497 13.4279V18.15H10.2859V9.45406H12.9497V10.6074C13.2194 10.2229 13.5831 9.91934 14.04 9.69577C14.4969 9.47221 15.0107 9.36084 15.5822 9.36084C16.5999 9.36084 17.4131 9.69083 18.0201 10.3508Z" fill="#FEFFFC"/>
</svg>
