<svg width="313" height="313" viewBox="0 0 313 313" fill="none" xmlns="http://www.w3.org/2000/svg">
<path d="M313 239.382H0V239.539H313V239.382Z" fill="#EBEBEB"/>
<path d="M69.8991 244.635H49.166V244.791H69.8991V244.635Z" fill="#EBEBEB"/>
<path d="M102.351 249.148H83.4646V249.304H102.351V249.148Z" fill="#EBEBEB"/>
<path d="M59.5326 250.444H35.5881V250.6H59.5326V250.444Z" fill="#EBEBEB"/>
<path d="M281.637 250.106H271.684V250.262H281.637V250.106Z" fill="#EBEBEB"/>
<path d="M269.675 250.106H245.06V250.262H269.675V250.106Z" fill="#EBEBEB"/>
<path d="M175.487 244.553H156.5V244.71H175.487V244.553Z" fill="#EBEBEB"/>
<path d="M223.338 244.553H178.203V244.71H223.338V244.553Z" fill="#EBEBEB"/>
<path d="M148.362 211.463H27.4876C26.5407 211.461 25.6331 211.084 24.9642 210.414C24.2952 209.743 23.9194 208.835 23.9194 207.888V37.9731C23.9277 37.0316 24.307 36.1314 24.9751 35.468C25.6432 34.8046 26.5461 34.4315 27.4876 34.4299H148.362C149.31 34.4299 150.219 34.8065 150.89 35.4769C151.56 36.1472 151.936 37.0564 151.936 38.0044V207.888C151.936 208.836 151.56 209.745 150.89 210.416C150.219 211.086 149.31 211.463 148.362 211.463ZM27.4876 34.5551C26.5822 34.5568 25.7145 34.9176 25.0748 35.5584C24.4352 36.1993 24.0759 37.0677 24.0759 37.9731V207.888C24.0759 208.794 24.4352 209.662 25.0748 210.303C25.7145 210.944 26.5822 211.305 27.4876 211.306H148.362C149.268 211.305 150.136 210.944 150.777 210.303C151.418 209.663 151.778 208.794 151.78 207.888V37.9731C151.778 37.0671 151.418 36.1987 150.777 35.5581C150.136 34.9174 149.268 34.5568 148.362 34.5551H27.4876Z" fill="#EBEBEB"/>
<path d="M283.772 211.463H162.891C161.944 211.461 161.036 211.084 160.366 210.414C159.696 209.744 159.319 208.836 159.317 207.888V37.9731C159.327 37.031 159.708 36.1308 160.377 35.4676C161.046 34.8043 161.949 34.4315 162.891 34.4299H283.772C284.713 34.4332 285.614 34.8069 286.281 35.4702C286.947 36.1334 287.326 37.0327 287.334 37.9731V207.888C287.334 208.834 286.959 209.741 286.292 210.411C285.624 211.081 284.718 211.459 283.772 211.463ZM162.891 34.5551C161.985 34.5568 161.117 34.9174 160.476 35.5581C159.836 36.1987 159.475 37.0671 159.474 37.9731V207.888C159.475 208.794 159.836 209.663 160.476 210.303C161.117 210.944 161.985 211.305 162.891 211.306H283.772C284.678 211.305 285.546 210.944 286.187 210.303C286.828 209.663 287.188 208.794 287.19 207.888V37.9731C287.188 37.0671 286.828 36.1987 286.187 35.5581C285.546 34.9174 284.678 34.5568 283.772 34.5551H162.891Z" fill="#EBEBEB"/>
<path d="M268.728 147.804L259.136 138.212L170.752 226.596L180.344 236.188L268.728 147.804Z" fill="#EBEBEB"/>
<path d="M226.568 189.96L216.978 180.363L203.901 193.44L212.696 207.469L226.568 189.96Z" fill="#E0E0E0"/>
<path d="M180.343 236.188L183.539 239.384L271.922 151L268.726 147.804L180.343 236.188Z" fill="#E0E0E0"/>
<path d="M180.346 141.404L170.754 150.996L259.137 239.38L268.73 229.788L180.346 141.404Z" fill="#EBEBEB"/>
<path d="M268.729 229.789L271.925 226.593L183.541 138.21L180.345 141.405L268.729 229.789Z" fill="#E0E0E0"/>
<path d="M110.302 168.111L102.835 160.644L34.0473 229.432L41.5148 236.899L110.302 168.111Z" fill="#EBEBEB"/>
<path d="M77.4863 200.915L70.0181 193.453L59.8456 203.632L66.6878 214.543L77.4863 200.915Z" fill="#E0E0E0"/>
<path d="M41.5095 236.897L43.9972 239.384L112.785 170.597L110.297 168.109L41.5095 236.897Z" fill="#E0E0E0"/>
<path d="M41.5181 163.131L34.0507 170.598L102.838 239.386L110.306 231.918L41.5181 163.131Z" fill="#EBEBEB"/>
<path d="M110.294 231.914L112.781 229.426L43.9937 160.639L41.5061 163.126L110.294 231.914Z" fill="#E0E0E0"/>
<path d="M199.613 172.219H188.589V239.376H199.613V172.219Z" fill="#F5F5F5"/>
<path d="M199.613 200.126H188.589V208.182L199.613 205.804V200.126Z" fill="#EBEBEB"/>
<path d="M199.606 239.382H203.281V172.225H199.606V239.382Z" fill="#EBEBEB"/>
<path d="M84.1345 172.219H73.1106V239.376H84.1345V172.219Z" fill="#F5F5F5"/>
<path d="M84.1282 200.126H73.1106V208.182L84.1282 205.804V200.126Z" fill="#EBEBEB"/>
<path d="M84.1281 239.382H87.8027L87.8027 172.225H84.1281L84.1281 239.382Z" fill="#EBEBEB"/>
<path d="M205.397 182.066H64.7034V202.736H205.397V182.066Z" fill="#F5F5F5"/>
<path d="M205.397 202.73H207.463V182.06H205.397V202.73Z" fill="#EBEBEB"/>
<path d="M151.949 160.988H124.442L104.993 180.438V207.945L124.442 227.394H151.949L171.399 207.945V180.438L151.949 160.988Z" fill="#FAFAFA"/>
<path d="M150.691 164.024H125.701L108.029 181.696V206.686L125.701 224.358H150.691L168.363 206.686V181.696L150.691 164.024Z" fill="#E0E0E0"/>
<path d="M114.051 197.077L117.569 196.764C117.598 197.415 117.756 198.053 118.032 198.642C118.177 198.953 118.408 199.215 118.698 199.398C118.987 199.581 119.324 199.677 119.666 199.675C119.902 199.694 120.138 199.656 120.356 199.565C120.574 199.473 120.767 199.331 120.918 199.149C121.209 198.798 121.363 198.353 121.35 197.897C121.353 197.465 121.207 197.045 120.937 196.708C120.409 196.218 119.761 195.877 119.059 195.719C117.727 195.381 116.522 194.664 115.591 193.653C114.863 192.714 114.492 191.547 114.545 190.36C114.537 189.497 114.719 188.642 115.078 187.856C115.419 187.098 115.979 186.459 116.686 186.022C117.585 185.528 118.605 185.296 119.629 185.352C120.264 185.309 120.901 185.394 121.502 185.602C122.103 185.811 122.656 186.139 123.128 186.567C123.929 187.374 124.38 188.664 124.561 190.429L121.075 190.723C121.042 190.121 120.84 189.539 120.492 189.046C120.337 188.87 120.143 188.731 119.926 188.641C119.709 188.551 119.475 188.512 119.24 188.526C119.06 188.514 118.879 188.543 118.711 188.61C118.543 188.677 118.393 188.781 118.27 188.914C118.051 189.18 117.935 189.515 117.945 189.86C117.941 190.128 118.037 190.389 118.214 190.592C118.565 190.913 118.999 191.129 119.466 191.218C120.694 191.537 121.866 192.043 122.94 192.72C123.613 193.193 124.141 193.843 124.468 194.598C124.793 195.392 124.955 196.244 124.943 197.102C124.958 198.142 124.744 199.172 124.317 200.12C123.944 200.982 123.323 201.714 122.533 202.223C121.66 202.728 120.662 202.976 119.654 202.937C117.621 202.937 116.213 202.377 115.428 201.259C114.588 200.021 114.111 198.572 114.051 197.077Z" fill="white"/>
<path d="M125.932 185.672H137.2V189.884H133.444V202.711H129.745V189.884H125.989L125.932 185.672Z" fill="white"/>
<path d="M137.808 194.204C137.808 191.424 138.352 189.258 139.441 187.706C139.968 186.989 140.656 186.406 141.449 186.002C142.242 185.599 143.118 185.387 144.008 185.383C144.898 185.38 145.776 185.584 146.572 185.981C147.369 186.378 148.061 186.956 148.594 187.668C149.691 189.192 150.24 191.322 150.24 194.06C150.292 195.723 150.053 197.381 149.533 198.961C149.142 200.123 148.436 201.153 147.492 201.935C146.541 202.664 145.366 203.04 144.168 202.999C142.983 203.046 141.813 202.725 140.819 202.079C139.835 201.34 139.087 200.331 138.665 199.174C138.059 197.589 137.767 195.901 137.808 194.204ZM141.507 194.204C141.507 195.927 141.733 197.163 142.183 197.91C142.359 198.246 142.622 198.527 142.946 198.724C143.27 198.92 143.642 199.024 144.021 199.024C144.4 199.024 144.771 198.92 145.095 198.724C145.419 198.527 145.683 198.246 145.858 197.91C146.296 197.171 146.484 195.85 146.484 193.947C146.567 192.736 146.334 191.523 145.808 190.429C145.627 190.09 145.355 189.807 145.024 189.612C144.693 189.416 144.314 189.316 143.93 189.321C143.556 189.326 143.19 189.433 142.873 189.632C142.556 189.831 142.3 190.113 142.133 190.448C141.716 191.232 141.507 192.493 141.507 194.229V194.204Z" fill="white"/>
<path d="M152.187 185.672H158.334C158.91 185.633 159.486 185.738 160.011 185.976C160.536 186.214 160.995 186.578 161.345 187.036C162.078 188.188 162.427 189.542 162.341 190.905C162.425 192.331 162.043 193.746 161.251 194.936C160.857 195.431 160.349 195.822 159.769 196.075C159.19 196.328 158.558 196.436 157.927 196.389H155.874V202.711H152.162L152.187 185.672ZM155.874 192.939H156.782C157.056 192.969 157.334 192.937 157.594 192.845C157.854 192.753 158.09 192.603 158.284 192.407C158.584 192.022 158.737 191.543 158.716 191.055C158.746 190.572 158.628 190.092 158.378 189.678C158.209 189.474 157.992 189.316 157.745 189.218C157.499 189.121 157.232 189.087 156.97 189.121H155.874V192.939Z" fill="white"/>
<path d="M257.505 64.3215C256.852 64.3244 256.2 64.4021 255.565 64.5531C254.738 62.6751 252.904 61.5045 250.431 61.5045C248.538 61.5508 246.7 62.1492 245.142 63.226C244.09 59.6953 240.941 57.3353 236.547 57.3353C230.287 57.3353 223.745 62.118 221.379 68.2277C220.8 68.0921 220.208 68.0248 219.613 68.0274H219.025C213.635 68.3905 214.017 76.5285 219.444 76.5285H257.912C258.578 76.5307 259.235 76.376 259.83 76.0769C260.425 75.7778 260.941 75.3428 261.336 74.807C262 73.9057 262.506 72.8981 262.832 71.8272C264.022 67.6831 261.668 64.3215 257.505 64.3215Z" fill="#F0F0F0"/>
<path d="M107.271 28.2513C106.432 22.6924 102 18.8175 95.5213 18.8175C90.2128 18.8175 84.7416 21.4154 80.6663 25.4155C79.4777 24.3849 77.9445 23.8395 76.3719 23.8881C71.8773 23.8881 67.1635 27.5314 65.8364 32.0261C65.6395 32.6895 65.528 33.3753 65.5046 34.0669L65.4107 34.1295C61.6922 36.6335 63.5327 42.5116 68.0649 42.5116H107.672C108.428 42.5177 109.173 42.3348 109.84 41.9795C110.507 41.6241 111.074 41.1077 111.491 40.4771C112.109 39.5328 112.588 38.5038 112.912 37.4222C114.295 32.6396 111.81 28.702 107.271 28.2513Z" fill="#F0F0F0"/>
<path d="M154.547 90.3318C153.395 82.6883 147.304 77.3611 138.396 77.3611C131.091 77.3611 123.572 80.9355 117.976 86.4318C116.347 85.011 114.24 84.2595 112.079 84.3285C105.907 84.3285 99.415 89.3365 97.5934 95.5151C97.3225 96.4267 97.1689 97.3691 97.1364 98.3196L97.0112 98.4009C91.8842 101.888 94.4258 109.926 100.623 109.926H152.744C154.857 109.941 156.92 109.276 158.626 108.029C160.333 106.782 161.593 105.02 162.222 103.002V102.927C164.212 96.3602 160.788 90.9453 154.547 90.3318Z" fill="#F5F5F5"/>
<path d="M156.5 267.653C223.534 267.653 277.875 264.48 277.875 260.566C277.875 256.653 223.534 253.48 156.5 253.48C89.4664 253.48 35.1249 256.653 35.1249 260.566C35.1249 264.48 89.4664 267.653 156.5 267.653Z" fill="#F5F5F5"/>
<path d="M80.5912 80.7039H49.166V66.5187L80.5912 29.1653H95.6152V67.3513H103.409V80.7352H95.6277V92.3412H80.6037L80.5912 80.7039ZM80.5912 67.32V47.7825L63.9897 67.32H80.5912Z" fill="#263238"/>
<path d="M228.434 29.1653V92.3099H210.962V50.9313C208.413 52.911 205.689 54.6543 202.824 56.1396C199.624 57.6834 196.301 58.9585 192.889 59.952V45.8106C198.761 43.9118 203.321 41.6373 206.568 38.9872C209.818 36.3309 212.425 32.9729 214.192 29.1653H228.434Z" fill="#263238"/>
<path d="M195.199 108.417C194.924 108.911 194.711 109.268 194.467 109.669C194.223 110.07 193.979 110.445 193.734 110.833C193.24 111.597 192.714 112.336 192.182 113.074C191.109 114.556 189.957 115.979 188.733 117.337C187.486 118.732 186.145 120.039 184.72 121.25C183.239 122.534 181.63 123.662 179.919 124.618C179.38 124.932 178.817 125.202 178.235 125.425C177.626 125.657 176.997 125.833 176.357 125.951C175.214 126.149 174.051 126.204 172.895 126.114C170.894 125.939 168.928 125.484 167.054 124.762C165.325 124.102 163.65 123.307 162.046 122.383C160.47 121.483 158.963 120.466 157.539 119.341C157.136 119.013 156.862 118.554 156.767 118.044C156.671 117.533 156.759 117.006 157.017 116.555C157.274 116.104 157.682 115.759 158.17 115.581C158.658 115.403 159.193 115.405 159.68 115.585L159.793 115.628C162.74 116.807 165.783 117.731 168.888 118.389C170.257 118.674 171.655 118.79 173.051 118.733C173.597 118.71 174.136 118.611 174.654 118.439C174.847 118.376 175.034 118.294 175.211 118.195C175.386 118.095 175.418 118.064 175.774 117.819C178.17 116.058 180.32 113.985 182.166 111.653C183.149 110.451 184.107 109.206 185.014 107.897C185.477 107.271 185.916 106.602 186.36 105.951L186.986 104.974L187.575 104.054L187.675 103.897C188.294 102.95 189.257 102.279 190.361 102.025C191.464 101.771 192.623 101.955 193.594 102.537C194.566 103.119 195.274 104.054 195.571 105.147C195.868 106.24 195.73 107.405 195.187 108.398L195.199 108.417Z" fill="#FF8B7B"/>
<path d="M160.719 116.098L155.918 112.918L153.883 119.303C154.845 119.81 155.926 120.049 157.012 119.994C158.099 119.939 159.15 119.592 160.056 118.99L160.719 116.098Z" fill="#FF8B7B"/>
<path d="M151.492 113.876L151.116 115.91C151.048 116.271 151.084 116.643 151.219 116.985C151.354 117.326 151.583 117.622 151.88 117.838L153.864 119.303L155.899 112.918L153.971 112.354C153.708 112.277 153.432 112.256 153.16 112.292C152.888 112.328 152.627 112.421 152.393 112.564C152.16 112.708 151.959 112.898 151.804 113.124C151.648 113.35 151.542 113.606 151.492 113.876Z" fill="#FF8B7B"/>
<path d="M195.349 98.2444C190.46 99.0144 185.515 104.755 182.542 110.107C184.494 113.511 187.453 116.227 191.011 117.882C191.011 117.882 196.808 112.398 199.149 108.342C201.491 104.285 199.951 97.512 195.349 98.2444Z" fill="#0050A1"/>
<path opacity="0.2" d="M195.349 98.2444C190.46 99.0144 185.515 104.755 182.542 110.107C184.494 113.511 187.453 116.227 191.011 117.882C191.011 117.882 196.808 112.398 199.149 108.342C201.491 104.285 199.951 97.512 195.349 98.2444Z" fill="black"/>
<path d="M182.729 108.88C182.276 109.393 181.922 109.985 181.684 110.627C182.905 112.505 185.803 117.513 191.212 118.577C191.737 118.283 192.14 117.81 192.345 117.243C192.345 117.243 186.122 114.176 182.729 108.88Z" fill="#263238"/>
<path d="M215.05 98.0754C209.14 97.0862 203.122 96.9134 197.165 97.5621C192.72 98.1318 189.403 102.22 189.434 106.695C189.456 111.365 189.875 116.025 190.686 120.624C189.052 129.231 188.464 140.931 190.185 143.511L220.978 143.942C222.299 140.262 220.64 124.33 222.399 107.697C222.638 105.458 222.009 103.212 220.642 101.422C219.274 99.632 217.273 98.4344 215.05 98.0754Z" fill="#0050A1"/>
<path opacity="0.2" d="M203.45 143.548C201.691 129.695 203.45 106.526 203.45 106.289L204.076 106.339C204.076 106.57 202.329 129.676 204.076 143.467L203.45 143.548Z" fill="black"/>
<path d="M200.101 97.994C201.159 97.5997 200.764 97.0112 200.764 97.0112C200.764 97.0112 195.957 97.0112 192.626 97.9064C192.119 98.4448 192.664 99.1584 192.664 99.1584C192.664 99.1584 196.952 99.1709 200.101 97.994Z" fill="#263238"/>
<path opacity="0.2" d="M202.066 97.03C202.066 97.03 200.082 100.698 202.736 104.035C200.633 104.035 199.274 107.622 199.274 107.622C199.274 107.622 195.168 101.913 200.42 97.3492C200.714 96.8923 202.066 97.03 202.066 97.03Z" fill="black"/>
<path d="M199.944 98.8079C199.431 101.049 203.945 105.274 203.945 105.274C203.945 105.274 211.926 101.418 212.433 99.2085L199.944 98.8079Z" fill="white"/>
<path opacity="0.2" d="M217.961 111.922C217.109 113.563 218.242 120.686 221.529 123.698C221.566 120.755 221.654 117.632 221.842 114.42L217.961 111.922Z" fill="black"/>
<path d="M210.768 85.9185L202.53 91.3271C203.506 93.7184 203.963 96.2099 201.146 97.3617C200.785 97.5071 200.475 97.7573 200.256 98.0803C200.038 98.4033 199.921 98.7842 199.921 99.174C199.921 99.5638 200.038 99.9447 200.256 100.268C200.475 100.591 200.785 100.841 201.146 100.986C201.976 101.288 202.844 101.472 203.725 101.531C206.373 101.788 209.043 101.357 211.475 100.279C211.731 100.151 211.957 99.9686 212.135 99.7447C212.314 99.5209 212.442 99.2608 212.51 98.9826C212.577 98.7043 212.584 98.4147 212.529 98.1337C212.473 97.8527 212.357 97.5871 212.189 97.3555C210.029 94.3006 210.292 88.9921 210.768 85.9185Z" fill="#FF8B7B"/>
<path opacity="0.2" d="M207.413 88.1221L202.536 91.3209C202.81 91.9751 203.02 92.6544 203.162 93.3492C205.109 93.2365 207.65 91.6965 207.701 90.0877C207.749 89.4193 207.651 88.7485 207.413 88.1221Z" fill="black"/>
<path d="M201.622 75.602C203.719 75.5582 204.289 78.5692 203.5 79.5896C205.09 79.9339 205.86 81.7931 205.378 82.7196C204.896 83.6461 203.056 84.6915 201.416 84.2784C198.605 83.5772 198.123 81.2423 198.912 80.1781C197.409 78.9386 198.173 75.12 201.622 75.602Z" fill="#263238"/>
<path opacity="0.2" d="M201.622 75.602C203.719 75.5582 204.289 78.5692 203.5 79.5896C205.09 79.9339 205.86 81.7931 205.378 82.7196C204.896 83.6461 203.056 84.6915 201.416 84.2784C198.605 83.5772 198.123 81.2423 198.912 80.1781C197.409 78.9386 198.173 75.12 201.622 75.602Z" fill="white"/>
<path d="M213.466 80.5662C212.84 85.5054 212.721 88.4288 210.048 90.7951C206.023 94.3445 200.032 91.6151 199.181 86.5696C198.404 82.0311 199.563 74.7131 204.552 73.0981C205.657 72.7463 206.834 72.6795 207.972 72.9038C209.11 73.1282 210.173 73.6364 211.062 74.3814C211.951 75.1264 212.638 76.0839 213.058 77.1652C213.478 78.2464 213.619 79.4163 213.466 80.5662Z" fill="#FF8B7B"/>
<path d="M212.871 84.341C210.774 84.341 210.311 81.2861 211.112 80.2971C209.535 79.8902 208.834 78.0059 209.322 77.0794C209.81 76.1529 211.707 75.2014 213.335 75.6584C216.12 76.4597 216.527 78.7884 215.72 79.8463C217.222 81.1609 216.302 84.9295 212.871 84.341Z" fill="#263238"/>
<path opacity="0.2" d="M212.871 84.341C210.774 84.341 210.311 81.2861 211.112 80.2971C209.535 79.8902 208.834 78.0059 209.322 77.0794C209.81 76.1529 211.707 75.2014 213.335 75.6584C216.12 76.4597 216.527 78.7884 215.72 79.8463C217.222 81.1609 216.302 84.9295 212.871 84.341Z" fill="white"/>
<path opacity="0.2" d="M207.832 81.38C208.084 81.3116 208.347 81.2935 208.606 81.3268C208.864 81.3601 209.114 81.4441 209.341 81.5741C208.83 81.6066 208.318 81.5408 207.832 81.38Z" fill="black"/>
<path opacity="0.2" d="M207.832 81.718C208.07 81.7046 208.309 81.7436 208.531 81.8323C208.752 81.921 208.952 82.0572 209.115 82.2314C208.656 82.1522 208.219 81.9773 207.832 81.718Z" fill="black"/>
<path opacity="0.2" d="M199.988 80.9981C199.931 80.9641 199.867 80.9421 199.8 80.9335C199.734 80.9248 199.667 80.9297 199.602 80.9479C199.538 80.966 199.478 80.997 199.426 81.039C199.374 81.081 199.331 81.1331 199.3 81.1922C199.546 81.2209 199.793 81.1512 199.988 80.9981Z" fill="black"/>
<path opacity="0.2" d="M199.994 81.38C199.994 81.38 199.613 81.3236 199.412 81.8933C199.652 81.7818 199.854 81.6036 199.994 81.38Z" fill="black"/>
<path d="M214.956 85.5993C214.381 86.6325 213.438 87.4106 212.314 87.7778C210.887 88.1909 210.317 86.7636 210.83 85.2738C211.3 83.9404 212.596 82.1125 213.96 82.3566C215.325 82.6007 215.707 84.2784 214.956 85.5993Z" fill="#FF8B7B"/>
<path d="M206.83 81.38C206.83 81.7807 206.574 82.0937 206.305 82.0749C206.035 82.0561 205.848 81.7118 205.879 81.3049C205.91 80.898 206.136 80.5913 206.405 80.6101C206.674 80.6289 206.862 80.9857 206.83 81.38Z" fill="#263238"/>
<path d="M204.827 88.7355C204.314 88.8356 203.844 88.6353 203.782 88.2973C203.719 87.9592 204.095 87.6087 204.608 87.5085C205.121 87.4084 205.591 87.6087 205.653 87.9467C205.716 88.2848 205.328 88.6416 204.827 88.7355Z" fill="#263238"/>
<path d="M201.353 80.948C201.353 81.3487 201.09 81.6617 200.827 81.6429C200.564 81.6241 200.364 81.2798 200.395 80.8729C200.426 80.466 200.658 80.1593 200.921 80.1781C201.184 80.1968 201.378 80.5411 201.353 80.948Z" fill="#263238"/>
<path d="M202.599 84.9795C199.669 85.1798 199.106 86.6071 199.619 87.2331C200.132 87.8591 201.384 87.2331 201.384 87.2331C201.384 87.2331 203.757 87.7402 204.452 86.9827C205.572 87.4585 207.281 86.5696 206.799 85.8935C206.317 85.2174 205.109 84.8042 202.599 84.9795Z" fill="#263238"/>
<path opacity="0.2" d="M202.599 84.9795C199.669 85.1798 199.106 86.6071 199.619 87.2331C200.132 87.8591 201.384 87.2331 201.384 87.2331C201.384 87.2331 203.757 87.7402 204.452 86.9827C205.572 87.4585 207.281 86.5696 206.799 85.8935C206.317 85.2174 205.109 84.8042 202.599 84.9795Z" fill="white"/>
<path d="M202.686 81.38C202.123 82.5786 201.396 83.6931 200.526 84.6915C200.789 84.909 201.096 85.0669 201.426 85.1545C201.755 85.242 202.1 85.2571 202.436 85.1986L202.686 81.38Z" fill="#FF5652"/>
<path d="M207.713 79.2766C207.753 79.2717 207.791 79.259 207.826 79.2391C207.852 79.222 207.875 79.1998 207.893 79.1737C207.911 79.1477 207.923 79.1184 207.93 79.0876C207.936 79.0567 207.936 79.0249 207.93 78.9939C207.924 78.963 207.912 78.9335 207.895 78.9073C207.695 78.5832 207.42 78.3121 207.093 78.117C206.766 77.922 206.397 77.8087 206.017 77.7867C205.953 77.7867 205.893 77.8118 205.848 77.8564C205.804 77.901 205.779 77.9615 205.779 78.0246C205.779 78.0877 205.804 78.1482 205.848 78.1928C205.893 78.2374 205.953 78.2625 206.017 78.2625C206.316 78.2842 206.606 78.3774 206.862 78.5343C207.118 78.6911 207.332 78.907 207.488 79.1639C207.511 79.2019 207.544 79.2326 207.584 79.2526C207.624 79.2725 207.669 79.2808 207.713 79.2766Z" fill="#263238"/>
<path d="M199.556 78.8071C199.596 78.8064 199.634 78.7964 199.669 78.7779C199.704 78.7594 199.734 78.733 199.757 78.7007C199.917 78.45 200.134 78.2409 200.391 78.0907C200.648 77.9405 200.937 77.8535 201.234 77.8368C201.297 77.8368 201.358 77.8118 201.402 77.7672C201.447 77.7226 201.472 77.6621 201.472 77.599C201.472 77.5359 201.447 77.4754 201.402 77.4308C201.358 77.3861 201.297 77.3611 201.234 77.3611C200.857 77.3761 200.49 77.4819 200.163 77.6694C199.836 77.8568 199.559 78.1204 199.356 78.4378C199.339 78.4635 199.327 78.4925 199.321 78.523C199.315 78.5534 199.315 78.5848 199.321 78.6151C199.328 78.6455 199.34 78.6743 199.358 78.6997C199.376 78.7252 199.399 78.7468 199.425 78.7633C199.462 78.7926 199.509 78.8081 199.556 78.8071Z" fill="#263238"/>
<path d="M207.638 194.561C209.04 171.975 208.727 148.8 206.292 143.755L190.172 143.51C190.172 143.51 192.182 181.271 192.808 196.314C193.465 211.964 194.867 252.654 194.867 252.654L204.195 252.766C204.195 252.766 209.666 212.032 207.638 194.561Z" fill="#263238"/>
<path opacity="0.2" d="M208.333 160.037C202.83 166.046 205.403 182.686 207.801 191.85C208.458 180.388 208.633 168.976 208.333 160.037Z" fill="black"/>
<path d="M204.076 253.943L195.875 253.837C195.356 253.81 194.844 253.963 194.423 254.269C192.044 256.147 190.235 256.203 187.537 256.685C184.301 257.267 185.903 260.522 188.288 260.56C192.232 260.623 191.9 260.479 195.268 260.529L197.597 260.56L198.649 259.489L199.581 260.56H203.888C204 260.562 204.111 260.541 204.214 260.497C204.317 260.453 204.409 260.388 204.485 260.306C204.561 260.223 204.618 260.126 204.654 260.02C204.689 259.914 204.701 259.801 204.689 259.69L204.076 253.943Z" fill="#263238"/>
<path d="M204.702 254.782C204.558 254.782 193.941 254.444 193.941 254.444L193.509 250.632L205.284 250.895L204.702 254.782Z" fill="#0050A1"/>
<path d="M226.568 194.561C224.84 171.975 224.108 148.988 220.978 143.942L201.541 143.692C201.541 143.692 209.272 181.252 211.989 196.314C214.812 211.964 222.411 252.654 222.411 252.654L231.758 252.766C231.758 252.766 230.994 212.032 226.568 194.561Z" fill="#263238"/>
<path d="M232.202 253.943L223.995 253.837C223.478 253.811 222.968 253.964 222.549 254.269C220.17 256.147 221.26 256.203 218.562 256.685C215.325 257.267 216.922 260.522 219.307 260.56C223.25 260.623 222.925 260.479 226.286 260.529L229.942 260.56L230.424 259.49L231.05 260.56H232.014C232.125 260.56 232.234 260.536 232.334 260.491C232.435 260.446 232.525 260.381 232.599 260.299C232.673 260.217 232.728 260.12 232.762 260.015C232.797 259.91 232.808 259.8 232.797 259.69L232.202 253.943Z" fill="#263238"/>
<path d="M232.822 254.782C232.672 254.782 222.011 254.444 222.011 254.444L220.978 250.607L232.791 250.869L232.822 254.782Z" fill="#0050A1"/>
<path d="M202.392 96.5856C202.392 96.5856 200.082 100.698 202.736 104.035C200.633 104.035 199.256 106.314 199.256 106.314C199.256 106.314 196.457 100.68 200.595 96.9236C200.883 96.4979 202.392 96.5856 202.392 96.5856Z" fill="#0050A1"/>
<path d="M221.811 145.658C210.812 146.115 198.198 146.252 190.31 145.658C190.267 145.656 190.225 145.644 190.187 145.624C190.149 145.603 190.116 145.574 190.091 145.539C189.574 144.662 189.336 143.649 189.409 142.634C189.415 142.559 189.45 142.49 189.506 142.44C189.561 142.39 189.634 142.363 189.709 142.365C200.12 142.647 210.467 142.634 221.347 142.365C221.407 142.364 221.466 142.38 221.516 142.413C221.566 142.445 221.605 142.492 221.629 142.547C221.993 143.448 222.151 144.419 222.092 145.389C222.088 145.461 222.056 145.528 222.004 145.578C221.952 145.628 221.883 145.656 221.811 145.658Z" fill="#263238"/>
<path opacity="0.2" d="M221.811 145.658C210.812 146.115 198.198 146.252 190.31 145.658C190.267 145.656 190.225 145.644 190.187 145.624C190.149 145.603 190.116 145.574 190.091 145.539C189.574 144.662 189.336 143.649 189.409 142.634C189.415 142.559 189.45 142.49 189.506 142.44C189.561 142.39 189.634 142.363 189.709 142.365C200.12 142.647 210.467 142.634 221.347 142.365C221.407 142.364 221.466 142.38 221.516 142.413C221.566 142.445 221.605 142.492 221.629 142.547C221.993 143.448 222.151 144.419 222.092 145.389C222.088 145.461 222.056 145.528 222.004 145.578C221.952 145.628 221.883 145.656 221.811 145.658Z" fill="black"/>
<path d="M200.32 142.19C200.19 143.574 200.302 144.97 200.652 146.315C203.037 146.684 207.932 146.409 207.932 146.409C208.003 145.022 207.953 143.631 207.782 142.252C204.026 142.102 200.32 142.19 200.32 142.19Z" fill="white"/>
<path d="M222.311 104.367L222.668 104.686L222.95 104.949L223.482 105.462C223.826 105.8 224.139 106.138 224.459 106.483C225.085 107.165 225.679 107.872 226.243 108.586C227.368 109.999 228.413 111.475 229.373 113.006C231.242 116.03 232.82 119.224 234.086 122.546C234.255 122.99 234.387 123.259 234.625 124.017C234.813 124.63 234.947 125.258 235.025 125.895C235.141 127.009 235.126 128.133 234.982 129.244C234.712 131.158 234.208 133.031 233.479 134.822C232.813 136.483 232.03 138.096 231.138 139.648C230.264 141.173 229.287 142.637 228.215 144.03C227.896 144.439 227.442 144.722 226.935 144.828C226.427 144.934 225.899 144.856 225.443 144.609C224.987 144.362 224.633 143.961 224.445 143.478C224.257 142.995 224.246 142.461 224.415 141.971L224.452 141.864C225.538 138.925 226.423 135.915 227.1 132.856C227.407 131.489 227.567 130.094 227.576 128.693C227.577 128.151 227.51 127.61 227.376 127.084C227.222 126.608 227.012 126.152 226.75 125.726C225.369 122.958 223.803 120.287 222.061 117.732C221.203 116.48 220.289 115.228 219.35 114.089C218.881 113.5 218.393 112.943 217.911 112.392L217.184 111.597L216.834 111.228L216.671 111.059L216.565 110.959C215.687 110.196 215.149 109.115 215.068 107.956C214.987 106.796 215.37 105.651 216.133 104.774C216.896 103.896 217.976 103.358 219.136 103.277C220.296 103.196 221.44 103.579 222.318 104.342L222.311 104.367Z" fill="#FF8B7B"/>
<path d="M216.915 98.9455C221.792 99.7906 226.65 105.6 229.548 110.996C227.549 114.369 224.556 117.041 220.978 118.646C220.978 118.646 215.256 113.074 212.971 108.993C210.687 104.911 212.327 98.1505 216.915 98.9455Z" fill="#0050A1"/>
<path d="M229.379 109.763C229.823 110.285 230.168 110.883 230.399 111.528C229.147 113.406 226.18 118.37 220.753 119.341C220.233 119.038 219.839 118.558 219.645 117.988C219.645 117.988 225.911 115.009 229.379 109.763Z" fill="#263238"/>
<path d="M213.385 98.5073C212.377 98.0754 212.759 97.5057 212.759 97.5057C212.759 97.5057 217.397 97.6685 220.571 98.6764C221.041 99.2335 220.49 99.9284 220.49 99.9284C220.49 99.9284 216.377 99.7906 213.385 98.5073Z" fill="#263238"/>
<path opacity="0.2" d="M212.17 97.3806C212.17 97.3806 211.118 101.049 206.311 104.041C208.414 104.041 209.823 107.879 209.823 107.879C209.823 107.879 214.205 102.733 213.191 97.656C212.896 97.2053 212.17 97.3806 212.17 97.3806Z" fill="black"/>
<path d="M212.032 96.717C212.032 96.717 210.78 100.686 206.311 104.041C208.414 104.041 209.873 106.314 209.873 106.314C209.873 106.314 214.18 102.733 213.191 97.656C212.863 97.277 212.471 96.959 212.032 96.717Z" fill="#0050A1"/>
<path d="M216.54 111.785C216.252 117.193 212.827 118.483 212.345 118.483C211.863 118.483 208.589 117.193 208.877 111.785L212.79 110.245L216.54 111.785Z" fill="white"/>
<path d="M224.966 141.539L221.109 144.856L226.224 148.18C226.224 148.18 229.354 144.75 227.801 142.797L224.966 141.539Z" fill="#FF8B7B"/>
<path d="M220.677 150.121L222.662 150.979C223.045 151.145 223.475 151.171 223.875 151.05C224.275 150.93 224.619 150.672 224.847 150.321L226.224 148.181L221.109 144.856L219.776 147.767C219.678 147.981 219.624 148.211 219.617 148.446C219.609 148.681 219.649 148.914 219.733 149.133C219.817 149.353 219.943 149.553 220.106 149.722C220.268 149.892 220.462 150.028 220.677 150.121Z" fill="#FF8B7B"/>
<path d="M198.88 74.5754C195.443 75.0449 196.595 76.1342 204.258 77.1107C211.92 78.0873 213.842 77.3173 213.842 77.3173C213.842 77.3173 205.04 74.5566 198.88 74.5754Z" fill="#263238"/>
<path d="M216.214 78.8072C216.214 78.8072 209.485 76.0716 198.88 74.5754C198.749 73.0167 200.032 71.364 200.032 71.364C200.032 71.364 197.666 70.1809 198.398 67.921C199.131 65.6612 202.517 65.9554 206.467 64.165C207.913 65.7551 211.888 68.3405 214.605 68.6722C215.275 70.0557 217.028 73.5175 219.87 74.8509C219.826 76.3595 217.003 76.7289 217.003 76.7289C217.016 77.1103 216.952 77.4904 216.817 77.8472C216.682 78.204 216.477 78.5303 216.214 78.8072Z" fill="#0050A1"/>
<path opacity="0.3" d="M216.997 76.7289C214.536 74.494 205.797 70.4125 200.032 71.364C200.032 71.364 198.749 73.0229 198.88 74.5754C209.485 76.0716 216.214 78.8072 216.214 78.8072C216.476 78.5298 216.679 78.2032 216.814 77.8465C216.948 77.4897 217.01 77.1098 216.997 76.7289Z" fill="black"/>
<path d="M207.481 68.7599C206.724 72.6161 204.095 73.3109 203.725 73.2734C203.356 73.2358 201.102 72.0965 201.847 68.2654L204.871 67.4265L207.481 68.7599Z" fill="white"/>
<path d="M157.595 131.948C157.213 131.948 156.844 131.808 156.558 131.554C156.272 131.3 156.089 130.951 156.043 130.571L151.573 94.1441C151.523 93.7291 151.639 93.3109 151.897 92.9816C152.154 92.6523 152.532 92.4388 152.947 92.3882C153.363 92.3376 153.781 92.4539 154.11 92.7116C154.439 92.9692 154.653 93.3472 154.703 93.7623L159.148 130.208C159.174 130.412 159.16 130.619 159.106 130.818C159.052 131.016 158.959 131.202 158.832 131.364C158.706 131.526 158.549 131.662 158.37 131.764C158.191 131.865 157.994 131.93 157.79 131.955L157.595 131.948Z" fill="#263238"/>
<path d="M156.6 115.56C156.218 114.157 156.938 113.951 156.243 111.96C155.874 110.902 157.088 110.082 157.239 110.933C157.802 114.032 161.915 115.766 160.488 117.726C159.06 119.685 156.976 116.962 156.6 115.56Z" fill="#FF8B7B"/>
<path d="M184.5 63.0923C185.728 43.5244 170.86 26.6663 151.292 25.4386C131.724 24.2109 114.866 39.0786 113.639 58.6465C112.411 78.2144 127.279 95.0725 146.846 96.3002C166.414 97.5279 183.272 82.6602 184.5 63.0923Z" fill="#0050A1"/>
<path d="M176.085 70.4378C181.373 55.5126 173.561 39.1263 158.636 33.838C143.71 28.5498 127.324 36.3621 122.036 51.2874C116.748 66.2127 124.56 82.599 139.485 87.8872C154.411 93.1755 170.797 85.3631 176.085 70.4378Z" fill="white"/>
<path d="M167.687 56.0208C165.333 52.8407 160.801 56.0208 159.442 59.3636C159.073 60.1929 158.831 61.0728 158.722 61.974L157.226 51.764L156.043 42.086C155.918 41.2555 155.474 40.5065 154.806 39.9982C154.137 39.49 153.297 39.2626 152.463 39.3646C151.63 39.4665 150.869 39.8897 150.343 40.5441C149.816 41.1985 149.566 42.0325 149.645 42.8685L149.351 40.4584C149.299 40.0387 149.165 39.6334 148.957 39.2655C148.748 38.8976 148.47 38.5743 148.136 38.3142C147.803 38.0541 147.421 37.8621 147.014 37.7494C146.606 37.6366 146.181 37.6053 145.761 37.6571C145.341 37.7088 144.936 37.8428 144.568 38.0512C144.2 38.2597 143.877 38.5386 143.617 38.8719C143.357 39.2053 143.165 39.5867 143.052 39.9942C142.939 40.4017 142.908 40.8275 142.96 41.2472L143.373 44.6025C143.317 44.1484 143.165 43.7114 142.926 43.3206C142.688 42.9298 142.37 42.5941 141.992 42.336C141.614 42.0778 141.186 41.903 140.735 41.8232C140.285 41.7434 139.822 41.7604 139.379 41.8732C138.619 42.068 137.957 42.5324 137.515 43.1797C137.072 43.827 136.881 44.613 136.975 45.3913L137.488 49.5792C137.433 49.1247 137.282 48.6871 137.044 48.2958C136.806 47.9044 136.488 47.5684 136.11 47.31C135.732 47.0516 135.303 46.877 134.852 46.7976C134.401 46.7183 133.938 46.7361 133.494 46.8499C132.736 47.0435 132.074 47.5069 131.633 48.1533C131.192 48.7997 131.001 49.5849 131.097 50.3617L132.124 58.7313L132.856 64.7347L133.826 72.616C134.515 78.25 136.712 81.4301 139.974 82.8636C144.982 85.0609 154.152 85.0859 158.272 81.7431C161.877 78.8197 164.193 71.7772 164.751 67.414C165.308 63.0507 168.644 57.3041 167.687 56.0208Z" fill="#263238"/>
<path d="M173.097 36.1479L167.252 31.5798L125.029 85.603L130.874 90.1711L173.097 36.1479Z" fill="#0050A1"/>
<path d="M50.3555 112.73V101.337H58.5999V102.664H51.8641V106.157H58.1679V107.497H51.8641V111.372H58.844V112.718L50.3555 112.73Z" fill="#263238"/>
<path d="M60.7533 112.73V104.473H62.0053V105.725C62.2162 105.281 62.5192 104.886 62.8942 104.567C63.1558 104.382 63.4689 104.283 63.7894 104.285C64.3027 104.3 64.8017 104.458 65.2292 104.742L64.7472 106.038C64.4387 105.847 64.0837 105.743 63.7205 105.738C63.4237 105.733 63.1342 105.83 62.9005 106.013C62.6491 106.206 62.465 106.473 62.3746 106.777C62.2171 107.307 62.1391 107.858 62.143 108.411V112.73H60.7533Z" fill="#263238"/>
<path d="M66.0555 112.73V104.473H67.3075V105.725C67.5264 105.268 67.8426 104.864 68.234 104.542C68.496 104.358 68.8088 104.259 69.1292 104.26C69.6425 104.275 70.1415 104.433 70.569 104.717L70.087 106.013C69.7785 105.822 69.4235 105.718 69.0603 105.713C68.7635 105.708 68.474 105.805 68.2403 105.988C67.9889 106.181 67.8048 106.448 67.7144 106.752C67.5569 107.282 67.4789 107.833 67.4828 108.386V112.705L66.0555 112.73Z" fill="#263238"/>
<path d="M70.8506 108.605C70.8506 107.077 71.268 105.944 72.1026 105.206C72.8222 104.588 73.7461 104.26 74.6943 104.285C75.2111 104.267 75.7261 104.357 76.2059 104.55C76.6857 104.743 77.1198 105.035 77.48 105.406C77.8546 105.823 78.1431 106.309 78.329 106.838C78.5148 107.366 78.5943 107.926 78.563 108.486C78.6018 109.347 78.4366 110.205 78.0809 110.99C77.7702 111.59 77.286 112.083 76.6912 112.405C76.0807 112.744 75.3926 112.918 74.6943 112.912C74.1764 112.933 73.6598 112.845 73.1778 112.654C72.6959 112.463 72.2593 112.173 71.8961 111.804C71.1418 110.916 70.7664 109.767 70.8506 108.605ZM72.2904 108.605C72.2268 109.453 72.4713 110.295 72.979 110.977C73.1958 111.225 73.463 111.423 73.7626 111.559C74.0621 111.694 74.3873 111.765 74.7162 111.765C75.0451 111.765 75.3702 111.694 75.6698 111.559C75.9694 111.423 76.2365 111.225 76.4533 110.977C76.9683 110.279 77.215 109.419 77.1482 108.555C77.2077 107.724 76.9605 106.9 76.4533 106.239C76.236 105.992 75.9687 105.795 75.6692 105.659C75.3697 105.524 75.0448 105.454 74.7162 105.454C74.3876 105.454 74.0627 105.524 73.7632 105.659C73.4637 105.795 73.1964 105.992 72.979 106.239C72.4727 106.919 72.2283 107.759 72.2904 108.605Z" fill="#263238"/>
<path d="M80.2094 112.73V104.473H81.4614V105.725C81.6701 105.279 81.9734 104.884 82.3503 104.567C82.6119 104.382 82.9249 104.283 83.2454 104.285C83.7588 104.3 84.2577 104.458 84.6852 104.742L84.2032 106.038C83.8943 105.847 83.5396 105.744 83.1766 105.738C82.8778 105.733 82.5864 105.83 82.3503 106.013C82.1009 106.207 81.919 106.474 81.8307 106.777C81.6702 107.306 81.5921 107.857 81.5991 108.411V112.73H80.2094Z" fill="#263238"/>
<path d="M55.5575 126.884V125.67C55.2785 126.11 54.8905 126.471 54.431 126.718C53.9715 126.965 53.456 127.089 52.9346 127.078C52.4669 127.082 52.0039 126.986 51.5761 126.796C51.2048 126.65 50.8787 126.408 50.6309 126.095C50.4191 125.781 50.2722 125.428 50.1989 125.056C50.1326 124.623 50.1054 124.185 50.1176 123.748V118.627H51.5135V123.203C51.4978 123.697 51.5272 124.192 51.6012 124.68C51.6766 125.028 51.8744 125.337 52.1583 125.551C52.4685 125.765 52.8392 125.875 53.2163 125.864C53.6321 125.865 54.0406 125.755 54.3994 125.544C54.75 125.344 55.025 125.034 55.1819 124.662C55.3548 124.144 55.4312 123.598 55.4073 123.053V118.627H56.8095V126.884H55.5575Z" fill="#263238"/>
<path d="M59.0005 126.884V118.627H60.2525V119.798C60.5345 119.362 60.9254 119.007 61.3865 118.769C61.8477 118.531 62.3631 118.417 62.8817 118.439C63.3525 118.432 63.8195 118.524 64.2526 118.708C64.6236 118.852 64.9483 119.095 65.1916 119.41C65.4058 119.723 65.5548 120.076 65.6298 120.449C65.6924 120.899 65.7175 121.353 65.7049 121.807V126.884H64.309V121.876C64.3257 121.452 64.2685 121.028 64.1399 120.624C64.0304 120.34 63.8273 120.101 63.564 119.948C63.2684 119.775 62.93 119.688 62.5875 119.698C62.0202 119.688 61.4694 119.889 61.0412 120.261C60.6093 120.643 60.4152 121.363 60.4152 122.421V126.928L59.0005 126.884Z" fill="#263238"/>
<path d="M73.242 125.864C72.7989 126.259 72.2906 126.575 71.7396 126.796C71.2475 126.982 70.7255 127.075 70.1996 127.072C69.4431 127.121 68.696 126.881 68.1088 126.402C67.8698 126.19 67.6804 125.928 67.5538 125.635C67.4272 125.342 67.3667 125.025 67.3764 124.705C67.3727 124.329 67.4623 123.958 67.6371 123.625C67.8118 123.292 68.0664 123.007 68.378 122.796C68.6854 122.586 69.0262 122.429 69.3858 122.333C69.7989 122.24 70.2169 122.171 70.6378 122.126C71.4864 122.049 72.3252 121.887 73.1418 121.644C73.1418 121.45 73.1418 121.331 73.1418 121.275C73.1649 121.058 73.1417 120.839 73.0738 120.632C73.0058 120.424 72.8945 120.234 72.7475 120.073C72.2922 119.723 71.7237 119.554 71.1512 119.597C70.6412 119.56 70.1322 119.681 69.6926 119.942C69.3225 120.265 69.0768 120.708 68.9977 121.194L67.633 121.006C67.7255 120.491 67.9401 120.006 68.259 119.591C68.5872 119.198 69.022 118.909 69.511 118.758C70.1153 118.552 70.7507 118.453 71.389 118.464C71.9732 118.444 72.5563 118.529 73.1105 118.715C73.483 118.835 73.8174 119.051 74.0808 119.341C74.3015 119.618 74.4518 119.944 74.519 120.292C74.5756 120.72 74.5986 121.151 74.5879 121.582V123.46C74.5668 124.295 74.5961 125.132 74.6755 125.964C74.7399 126.311 74.8604 126.645 75.0324 126.953H73.5675C73.3892 126.614 73.2787 126.244 73.242 125.864ZM73.1231 122.734C72.384 122.995 71.6174 123.172 70.8382 123.259C70.411 123.303 69.9907 123.397 69.5862 123.541C69.3606 123.634 69.1685 123.794 69.0353 123.998C68.9056 124.195 68.838 124.426 68.8412 124.662C68.8378 124.838 68.8736 125.014 68.9462 125.175C69.0187 125.336 69.1261 125.48 69.2606 125.594C69.6166 125.871 70.0631 126.005 70.5126 125.97C71.0155 125.979 71.512 125.856 71.9524 125.613C72.3549 125.394 72.6788 125.055 72.8789 124.643C73.0522 124.199 73.129 123.723 73.1043 123.247L73.1231 122.734Z" fill="#263238"/>
<path d="M82.1249 126.884V125.67C81.8459 126.11 81.4579 126.471 80.9984 126.718C80.5389 126.965 80.0234 127.089 79.502 127.078C79.0324 127.081 78.5674 126.985 78.1373 126.796C77.7687 126.648 77.445 126.407 77.1983 126.095C76.9813 125.784 76.834 125.429 76.7663 125.056C76.6972 124.624 76.6679 124.186 76.6787 123.748V118.627H78.0809V123.203C78.0652 123.697 78.0946 124.192 78.1686 124.68C78.244 125.028 78.4418 125.337 78.7257 125.551C79.0359 125.765 79.4066 125.875 79.7837 125.864C80.1995 125.865 80.608 125.755 80.9668 125.544C81.3174 125.344 81.5924 125.034 81.7493 124.662C81.9222 124.144 81.9986 123.598 81.9747 123.053V118.627H83.3769V126.884H82.1249Z" fill="#263238"/>
<path d="M88.6228 125.632L88.8294 126.884C88.4823 126.964 88.1276 127.006 87.7715 127.009C87.3634 127.03 86.9566 126.948 86.5883 126.771C86.3287 126.631 86.1204 126.412 85.9936 126.145C85.8464 125.61 85.7893 125.053 85.8246 124.499V119.748H84.798V118.627H85.8246V116.58L87.2143 115.741V118.627H88.6228V119.716H87.2143V124.574C87.1974 124.833 87.2228 125.093 87.2895 125.344C87.3389 125.458 87.4247 125.553 87.5336 125.613C87.6795 125.691 87.844 125.728 88.0093 125.72C88.2157 125.705 88.4207 125.676 88.6228 125.632Z" fill="#263238"/>
<path d="M89.9938 126.884V115.484H91.396V119.566C91.6964 119.203 92.0747 118.913 92.5029 118.717C92.931 118.521 93.3979 118.424 93.8687 118.433C94.4228 118.418 94.9718 118.543 95.465 118.796C95.8893 119.012 96.2304 119.362 96.4353 119.791C96.6599 120.391 96.7579 121.03 96.7233 121.669V126.903H95.3273V121.669C95.3741 121.121 95.2107 120.575 94.8703 120.142C94.7005 119.977 94.498 119.85 94.2759 119.768C94.0538 119.686 93.817 119.651 93.5808 119.666C93.169 119.666 92.7648 119.776 92.4101 119.985C92.0617 120.184 91.7888 120.492 91.6339 120.862C91.4565 121.349 91.3757 121.865 91.396 122.383V126.903L89.9938 126.884Z" fill="#263238"/>
<path d="M98.3258 122.752C98.3258 121.225 98.7432 120.094 99.5778 119.359C100.3 118.741 101.226 118.413 102.176 118.439C102.696 118.42 103.215 118.511 103.698 118.705C104.181 118.899 104.618 119.192 104.98 119.566C105.356 119.983 105.645 120.471 105.83 121.001C106.016 121.531 106.095 122.092 106.063 122.652C106.102 123.513 105.939 124.37 105.587 125.156C105.277 125.76 104.79 126.256 104.191 126.577C103.583 126.916 102.897 127.09 102.201 127.084C101.681 127.106 101.163 127.018 100.68 126.826C100.197 126.634 99.7592 126.342 99.3963 125.97C98.6276 125.081 98.2427 123.924 98.3258 122.752ZM99.7656 122.752C99.7021 123.602 99.9465 124.447 100.454 125.131C100.668 125.384 100.936 125.586 101.238 125.723C101.541 125.859 101.869 125.927 102.201 125.92C102.531 125.926 102.858 125.858 103.159 125.72C103.459 125.583 103.724 125.379 103.935 125.125C104.446 124.428 104.69 123.57 104.623 122.709C104.683 121.876 104.436 121.049 103.929 120.386C103.712 120.139 103.445 119.941 103.145 119.805C102.845 119.669 102.52 119.599 102.191 119.599C101.862 119.599 101.537 119.669 101.238 119.805C100.938 119.941 100.671 120.139 100.454 120.386C99.9454 121.065 99.7006 121.906 99.7656 122.752Z" fill="#263238"/>
<path d="M107.672 126.884V118.627H108.924V119.879C109.131 119.432 109.435 119.036 109.813 118.721C110.075 118.536 110.388 118.437 110.708 118.439C111.221 118.451 111.72 118.607 112.148 118.89L111.666 120.192C111.359 119.996 111.003 119.89 110.639 119.885C110.343 119.882 110.054 119.979 109.819 120.161C109.569 120.355 109.386 120.622 109.293 120.924C109.136 121.455 109.058 122.005 109.062 122.558V126.884H107.672Z" fill="#263238"/>
<path d="M113.012 117.093V115.484H114.414V117.093H113.012ZM113.012 126.884V118.627H114.414V126.884H113.012Z" fill="#263238"/>
<path d="M115.81 126.884V125.751L121.068 119.716C120.442 119.716 119.942 119.76 119.491 119.76H116.123V118.627H122.871V119.566L118.402 124.806L117.538 125.763C118.164 125.713 118.752 125.688 119.303 125.688H123.122V126.897L115.81 126.884Z" fill="#263238"/>
<path d="M130.158 124.223L131.604 124.405C131.42 125.183 130.979 125.875 130.352 126.371C129.664 126.858 128.835 127.105 127.992 127.072C127.461 127.099 126.93 127.013 126.435 126.82C125.94 126.627 125.491 126.331 125.119 125.951C124.365 125.089 123.983 123.964 124.054 122.821C123.982 121.644 124.368 120.484 125.131 119.585C125.484 119.204 125.916 118.904 126.395 118.706C126.875 118.507 127.392 118.414 127.911 118.433C128.417 118.416 128.921 118.507 129.388 118.702C129.856 118.896 130.276 119.189 130.621 119.56C131.364 120.444 131.738 121.581 131.667 122.734C131.667 122.815 131.667 122.94 131.667 123.109H125.507C125.509 123.871 125.782 124.608 126.277 125.188C126.498 125.423 126.766 125.609 127.063 125.734C127.361 125.859 127.682 125.92 128.005 125.914C128.476 125.926 128.937 125.783 129.319 125.507C129.717 125.169 130.009 124.724 130.158 124.223ZM125.563 121.964H130.171C130.155 121.401 129.972 120.856 129.645 120.399C129.438 120.139 129.173 119.931 128.873 119.791C128.572 119.651 128.242 119.583 127.911 119.591C127.612 119.581 127.315 119.631 127.036 119.738C126.757 119.846 126.503 120.009 126.289 120.217C125.832 120.685 125.572 121.31 125.563 121.964Z" fill="#263238"/>
<path d="M138.715 126.884V125.826C138.479 126.224 138.14 126.55 137.733 126.771C137.326 126.991 136.868 127.097 136.405 127.078C135.76 127.081 135.128 126.891 134.59 126.533C134.028 126.156 133.584 125.629 133.307 125.012C132.995 124.307 132.841 123.542 132.856 122.771C132.846 122.002 132.986 121.239 133.269 120.524C133.513 119.891 133.951 119.351 134.521 118.984C135.068 118.627 135.709 118.44 136.362 118.445C136.825 118.438 137.283 118.545 137.695 118.758C138.067 118.959 138.389 119.239 138.64 119.579V115.491H140.036V126.89L138.715 126.884ZM134.296 122.765C134.23 123.607 134.465 124.446 134.959 125.131C135.146 125.373 135.385 125.569 135.658 125.706C135.931 125.843 136.232 125.916 136.537 125.92C136.837 125.921 137.133 125.855 137.403 125.724C137.673 125.594 137.91 125.404 138.096 125.169C138.57 124.504 138.792 123.691 138.722 122.878C138.804 121.996 138.583 121.113 138.096 120.374C137.907 120.125 137.664 119.924 137.385 119.786C137.106 119.648 136.798 119.577 136.487 119.579C136.185 119.576 135.888 119.643 135.617 119.776C135.346 119.908 135.11 120.102 134.928 120.342C134.446 121.054 134.223 121.909 134.296 122.765Z" fill="#263238"/>
</svg>
