<svg width="97" height="35" viewBox="0 0 97 35" fill="none" xmlns="http://www.w3.org/2000/svg">
<g clip-path="url(#clip0_139_494)">
<path d="M13.8028 25.254C10.2268 25.3801 6.83515 24.0368 4.02853 21.4656C0.0199894 17.796 -1.23109 12.2421 1.34657 7.38161C3.39082 3.52357 6.67422 1.23864 11.0473 0.356901C14.8939 -0.418698 18.5394 0.0438378 21.8824 2.00645C25.8557 4.33763 28.2754 7.69564 28.339 12.3858C28.413 17.7804 25.6198 21.393 20.8812 23.8133C18.3716 25.0933 16.4167 25.2559 13.8028 25.254ZM16.3854 8.55936C18.8588 8.85441 19.9479 9.97717 20.0175 12.1725C20.0334 12.6769 20.0344 13.1838 20.0056 13.6877C19.9987 14.4755 19.711 15.2363 19.1923 15.8381C18.6736 16.4399 17.9564 16.8449 17.1652 16.9829C15.1844 17.4188 13.1276 17.3998 11.1556 16.9274C10.7088 16.8461 10.2876 16.6636 9.92544 16.3946C9.5633 16.1255 9.27024 15.7773 9.06961 15.3776C8.63821 14.5508 8.42237 13.6322 8.44135 12.7037C8.46033 11.7752 8.71353 10.8657 9.17838 10.0565C9.60749 9.33594 10.5884 8.92794 11.4243 8.2984V7.01109C9.838 7.12608 8.30471 7.62077 6.95881 8.45177C6.29744 8.8503 5.73683 9.39062 5.31913 10.0321C4.90143 10.6736 4.63751 11.3996 4.54721 12.1555C4.45691 12.9113 4.54258 13.6774 4.79778 14.3962C5.05298 15.1149 5.47107 15.7676 6.02062 16.3051C7.11028 17.3387 8.4714 18.0553 9.95218 18.3749C10.6112 18.5331 11.2847 18.6334 12.0511 18.7785L11.9021 20.3127L9.25686 20.7265L9.36016 21.8142H19.1498V20.6583L16.591 20.3112L16.3824 18.7322C18.1856 18.5978 19.9317 18.0518 21.4811 17.1377C24.9945 15.0149 24.4502 10.4767 22.1173 8.85344C21.029 8.18376 19.8596 7.65006 18.6363 7.26475C17.9009 7.06402 17.1486 6.92894 16.3884 6.86114V2.55663C16.1495 2.48977 15.9017 2.45875 15.6533 2.46461C13.5396 2.97486 11.4317 3.50556 9.24096 4.05086C9.25984 4.27239 9.21216 4.67942 9.31 4.71594C10.1201 5.01927 10.9569 5.25395 11.8678 5.53488C12.5313 9.13048 11.9229 12.824 12.0526 16.498C13.4659 16.9104 14.9701 16.9175 16.3874 16.5184L16.3854 8.55936Z" fill="#F3A324"/>
<path d="M10.6902 9.95282L9.89551 13.6073L10.6902 9.95282Z" fill="#A7A9AC"/>
<path d="M6.04541 34.253V31.432H6.57981V34.253H6.04541Z" fill="black"/>
<path d="M8.61854 34.2934C8.39962 34.2945 8.18182 34.2625 7.97288 34.1985C7.79484 34.1487 7.62813 34.0661 7.48169 33.955L7.66645 33.548C7.79573 33.6442 7.94017 33.719 8.09407 33.7695C8.26157 33.8283 8.43816 33.8583 8.61606 33.8581C8.73997 33.8617 8.86364 33.8453 8.98209 33.8094C9.06199 33.7859 9.13334 33.7405 9.18771 33.6785C9.2311 33.6253 9.25443 33.5591 9.25377 33.491C9.25518 33.4517 9.24741 33.4126 9.23106 33.3766C9.21471 33.3407 9.1902 33.3089 9.1594 33.2836C9.08707 33.2264 9.00384 33.1838 8.91456 33.1585C8.81522 33.1276 8.70413 33.0994 8.58129 33.0738C8.45845 33.0481 8.3366 33.0166 8.21575 32.9793C8.09891 32.944 7.98646 32.896 7.88051 32.8362C7.78075 32.7799 7.69679 32.7003 7.63615 32.6044C7.57031 32.4913 7.5386 32.3621 7.54476 32.2319C7.54355 32.0826 7.58707 31.9362 7.66992 31.8108C7.76428 31.6744 7.89718 31.568 8.05234 31.5046C8.25876 31.4213 8.4809 31.3821 8.70397 31.3896C8.87739 31.3897 9.05011 31.4113 9.21801 31.4539C9.37532 31.4917 9.52528 31.5543 9.66202 31.6394L9.49365 32.0464C9.36965 31.973 9.23597 31.9167 9.09633 31.879C8.96775 31.8438 8.83497 31.8254 8.70148 31.8244C8.58003 31.8208 8.45891 31.8386 8.34389 31.877C8.26364 31.9028 8.19284 31.951 8.14025 32.0158C8.09858 32.0712 8.07629 32.1383 8.07669 32.2071C8.07518 32.2463 8.0827 32.2853 8.09869 32.3212C8.11469 32.3571 8.13875 32.389 8.16907 32.4145C8.24002 32.4719 8.32266 32.5137 8.41144 32.5372C8.51077 32.5668 8.62251 32.595 8.74668 32.6219C8.87084 32.6489 8.99286 32.6804 9.11272 32.7164C9.2288 32.7508 9.34046 32.7982 9.44548 32.8576C9.54501 32.9135 9.62906 32.9923 9.69033 33.0874C9.7559 33.1978 9.78795 33.3244 9.78271 33.4521C9.78355 33.6002 9.74002 33.7452 9.65754 33.8693C9.56268 34.006 9.42904 34.1125 9.27314 34.1756C9.06587 34.2597 8.84278 34.2999 8.61854 34.2934Z" fill="black"/>
<path d="M10.6823 34.253V31.432H11.2167V34.253H10.6823Z" fill="black"/>
<path d="M12.3634 34.253V31.432H12.8034L14.0615 33.4915H13.8315L15.0687 31.432H15.5087L15.5172 34.253H15.0031V32.2081H15.106L14.063 33.9331H13.8206L12.7518 32.2081H12.875V34.253H12.3634Z" fill="black"/>
<path d="M17.5515 34.2934C17.3326 34.2946 17.1148 34.2625 16.9059 34.1985C16.7278 34.1486 16.5611 34.066 16.4147 33.955L16.5999 33.548C16.7292 33.6442 16.8736 33.719 17.0275 33.7695C17.195 33.8283 17.3716 33.8583 17.5495 33.8581C17.6734 33.8618 17.7971 33.8453 17.9156 33.8094C17.9955 33.7859 18.0668 33.7405 18.1212 33.6785C18.1643 33.6252 18.1875 33.559 18.1867 33.491C18.1882 33.4517 18.1804 33.4126 18.164 33.3766C18.1477 33.3407 18.1232 33.3089 18.0924 33.2836C18.0202 33.2264 17.9371 33.1839 17.848 33.1585C17.7487 33.1277 17.6376 33.0994 17.5148 33.0738C17.3919 33.0481 17.2699 33.0166 17.1487 32.9793C17.0319 32.9441 16.9194 32.896 16.8135 32.8362C16.7135 32.78 16.6294 32.7004 16.5686 32.6044C16.5029 32.4919 16.4709 32.3635 16.4763 32.2339C16.475 32.0845 16.5186 31.9381 16.6014 31.8128C16.6957 31.6763 16.8286 31.5698 16.9838 31.5065C17.1903 31.4233 17.4124 31.3841 17.6354 31.3916C17.8089 31.3917 17.9816 31.4133 18.1495 31.4559C18.3068 31.4936 18.4568 31.5563 18.5935 31.6414L18.4251 32.0484C18.3011 31.9751 18.1674 31.9187 18.0278 31.8809C17.8992 31.8457 17.7665 31.8274 17.633 31.8264C17.5115 31.8228 17.3904 31.8406 17.2754 31.879C17.1953 31.9048 17.1247 31.953 17.0722 32.0177C17.0306 32.0731 17.0083 32.1402 17.0087 32.2091C17.0072 32.2482 17.0147 32.2872 17.0307 32.3231C17.0467 32.359 17.0708 32.3909 17.101 32.4165C17.172 32.4738 17.2546 32.5157 17.3434 32.5392C17.4428 32.5687 17.5545 32.5969 17.6787 32.6239C17.8028 32.6508 17.9247 32.6823 18.0442 32.7183C18.1604 32.7527 18.2723 32.8001 18.3775 32.8595C18.4768 32.9155 18.5607 32.9944 18.6218 33.0893C18.6876 33.1997 18.7199 33.3263 18.7147 33.454C18.7153 33.6022 18.6716 33.7472 18.589 33.8713C18.4942 34.008 18.3605 34.1145 18.2046 34.1775C17.9977 34.2608 17.7751 34.3003 17.5515 34.2934Z" fill="black"/>
<path d="M22.011 34.2934C21.7921 34.2946 21.5743 34.2625 21.3653 34.1985C21.1873 34.1487 21.0206 34.0661 20.8741 33.955L21.0589 33.548C21.1882 33.6442 21.3326 33.719 21.4865 33.7695C21.654 33.8283 21.8306 33.8583 22.0085 33.8581C22.1324 33.8618 22.2561 33.8453 22.3746 33.8094C22.4544 33.7859 22.5258 33.7405 22.5802 33.6785C22.6236 33.6253 22.6469 33.5591 22.6462 33.491C22.6476 33.4517 22.6399 33.4126 22.6235 33.3766C22.6072 33.3407 22.5827 33.3089 22.5519 33.2836C22.4795 33.2264 22.3963 33.1838 22.307 33.1585C22.2076 33.1277 22.0966 33.0994 21.9737 33.0738C21.8509 33.0481 21.7289 33.0166 21.6077 32.9793C21.4909 32.944 21.3784 32.896 21.2725 32.8362C21.164 32.7772 21.0748 32.6893 21.0152 32.5827C20.9555 32.4762 20.9278 32.3552 20.9352 32.2339C20.9342 32.0845 20.9779 31.9381 21.0609 31.8128C21.1552 31.6764 21.2882 31.5699 21.4433 31.5065C21.6497 31.4233 21.8718 31.3841 22.0949 31.3916C22.2683 31.3917 22.4411 31.4133 22.609 31.4559C22.7663 31.4936 22.9163 31.5562 23.053 31.6414L22.8846 32.0484C22.7606 31.975 22.6269 31.9187 22.4873 31.8809C22.3589 31.8458 22.2263 31.8274 22.0929 31.8264C21.9715 31.8228 21.8503 31.8406 21.7353 31.879C21.6551 31.9047 21.5843 31.9529 21.5317 32.0177C21.49 32.0731 21.4677 32.1402 21.4681 32.2091C21.4666 32.2482 21.4742 32.2872 21.4901 32.3231C21.5061 32.359 21.5302 32.3909 21.5605 32.4165C21.6315 32.4738 21.7141 32.5157 21.8029 32.5392C21.9022 32.5687 22.0138 32.597 22.1376 32.6239C22.2615 32.6508 22.3835 32.6823 22.5037 32.7183C22.6199 32.7527 22.7317 32.8001 22.8369 32.8595C22.9362 32.9155 23.0201 32.9944 23.0813 33.0893C23.1469 33.1998 23.1789 33.3263 23.1736 33.454C23.1744 33.6022 23.1307 33.7473 23.048 33.8713C22.9532 34.0081 22.8196 34.1146 22.6636 34.1775C22.4568 34.2607 22.2344 34.3002 22.011 34.2934Z" fill="black"/>
<path d="M24.6175 34.253V31.8751H23.6639V31.432H26.104V31.8751H25.1504V34.253H24.6175Z" fill="black"/>
<path d="M28.0583 34.2934C27.89 34.3026 27.7215 34.2785 27.5629 34.2224C27.4043 34.1662 27.259 34.0793 27.1355 33.9667C27.0175 33.8391 26.927 33.6895 26.8695 33.5267C26.8119 33.364 26.7886 33.1915 26.8008 33.0197V31.432H27.3352V33.0037C27.3146 33.2308 27.383 33.4571 27.5264 33.6366C27.6761 33.7638 27.8676 33.8339 28.0657 33.8339C28.2639 33.8339 28.4554 33.7638 28.6051 33.6366C28.7472 33.4565 28.8148 33.2305 28.7944 33.0037V31.432H29.3203V33.0217C29.3325 33.1935 29.3091 33.3659 29.2516 33.5287C29.1941 33.6914 29.1036 33.8411 28.9856 33.9686C28.8612 34.0811 28.715 34.1679 28.5557 34.2236C28.3964 34.2794 28.2272 34.3032 28.0583 34.2934Z" fill="black"/>
<path d="M30.4384 34.253V31.432H31.7004C31.9827 31.4266 32.2623 31.4866 32.5164 31.6072C32.745 31.7166 32.9368 31.888 33.0692 32.1009C33.1985 32.3275 33.2664 32.5828 33.2664 32.8425C33.2664 33.1021 33.1985 33.3574 33.0692 33.584C32.9368 33.797 32.745 33.9683 32.5164 34.0777C32.2623 34.1983 31.9827 34.2584 31.7004 34.253H30.4384ZM30.9728 33.8099H31.6681C31.8624 33.8147 32.055 33.7731 32.2293 33.6887C32.3829 33.6115 32.5112 33.4933 32.5993 33.3478C32.687 33.1917 32.7329 33.0163 32.7329 32.8381C32.7329 32.6598 32.687 32.4845 32.5993 32.3283C32.5097 32.1856 32.3816 32.0699 32.2293 31.9938C32.055 31.9096 31.8624 31.8682 31.6681 31.8731H30.9728V33.8099Z" fill="black"/>
<path d="M34.7384 33.8099H36.3619V34.253H34.204V31.432H36.3048V31.8751H34.7384V33.8099ZM34.6972 32.6049H36.1275V33.0363H34.6972V32.6049Z" fill="black"/>
<path d="M37.328 34.253V31.432H37.768L39.5729 33.6084H39.3549V31.432H39.8808V34.253H39.4408L37.6404 32.0771H37.8584V34.253H37.328Z" fill="black"/>
<path d="M41.6112 34.253V31.8751H40.6576V31.432H43.0997V31.8751H42.1456V34.253H41.6112Z" fill="black"/>
<path d="M45.3768 34.253V31.432H46.7292C47.0061 31.4141 47.2814 31.4841 47.5145 31.6316C47.6012 31.6921 47.6713 31.7726 47.7186 31.866C47.7659 31.9595 47.7889 32.0629 47.7856 32.1672C47.7897 32.3029 47.7526 32.4368 47.6788 32.5518C47.6078 32.6567 47.5091 32.7408 47.3933 32.7953C47.2725 32.8535 47.1395 32.8832 47.0049 32.8819L47.0784 32.7359C47.2284 32.7335 47.3772 32.763 47.5145 32.8225C47.6382 32.8763 47.7436 32.9637 47.8184 33.0742C47.8961 33.1974 47.9348 33.3404 47.9297 33.4852C47.9343 33.5948 47.911 33.7038 47.8618 33.8023C47.8126 33.9009 47.7392 33.9858 47.6481 34.0495C47.3973 34.2004 47.1047 34.2708 46.8112 34.251L45.3768 34.253ZM45.9112 33.842H46.7784C46.9367 33.8508 47.0945 33.8171 47.2348 33.7447C47.2845 33.7091 47.3249 33.6625 47.3528 33.6088C47.3806 33.555 47.3951 33.4956 47.3951 33.4353C47.3951 33.375 47.3806 33.3155 47.3528 33.2618C47.3249 33.208 47.2845 33.1614 47.2348 33.1259C47.0948 33.0528 46.9368 33.0191 46.7784 33.0285H45.87V32.6214H46.6676C46.8167 32.6295 46.9651 32.5957 47.0953 32.5241C47.1449 32.4931 47.1851 32.4497 47.2118 32.3983C47.2386 32.3469 47.2508 32.2895 47.2472 32.2319C47.2504 32.1744 47.238 32.1171 47.2113 32.0659C47.1846 32.0146 47.1446 31.9711 47.0953 31.9398C46.9651 31.8681 46.8167 31.8343 46.6676 31.8424H45.9112V33.842Z" fill="black"/>
<path d="M48.8752 34.253V31.432H50.0588C50.2834 31.4263 50.5067 31.4668 50.7144 31.5508C50.8867 31.622 51.0333 31.742 51.1355 31.8955C51.2378 32.0574 51.2896 32.2451 51.2845 32.4354C51.2933 32.6212 51.2433 32.8051 51.1414 32.9619C51.0396 33.1188 50.8907 33.241 50.7153 33.3118C50.5081 33.3974 50.2846 33.4387 50.0598 33.433H49.1752L49.4096 33.1994V34.2554L48.8752 34.253ZM49.4096 33.2534L49.1752 32.9997H50.0344C50.2243 33.0134 50.4129 32.9606 50.5668 32.8507C50.6268 32.7993 50.674 32.7352 50.705 32.6633C50.736 32.5913 50.7499 32.5134 50.7457 32.4354C50.7499 32.3578 50.7361 32.2802 50.7051 32.2087C50.6741 32.1371 50.6268 32.0735 50.5668 32.0226C50.4122 31.9144 50.2239 31.8627 50.0344 31.8765H49.1752L49.4096 31.6185V33.2534ZM50.7581 34.253L50.0305 33.2305H50.6016L51.3332 34.253H50.7581Z" fill="black"/>
<path d="M51.8434 34.253L53.1382 31.432H53.6646L54.9634 34.253H54.4002L53.2906 31.71H53.5042L52.3902 34.253H51.8434ZM52.4394 33.6001L52.5884 33.1892H54.1379L54.282 33.6001H52.4394Z" fill="black"/>
<path d="M55.6989 34.253V31.432H56.1389L57.9438 33.6084H57.7257V31.432H58.2522V34.253H57.8136L56.0132 32.0771H56.2308V34.253H55.6989Z" fill="black"/>
<path d="M60.7301 34.2934C60.521 34.2957 60.3132 34.2595 60.1177 34.1868C59.9374 34.1192 59.7728 34.0168 59.6336 33.8857C59.4945 33.7545 59.3836 33.5973 59.3077 33.4233C59.1543 33.051 59.1543 32.6349 59.3077 32.2626C59.3832 32.0897 59.4937 31.9335 59.6325 31.8035C59.7733 31.6711 59.9396 31.5677 60.1217 31.4992C60.5285 31.3526 60.9759 31.357 61.3797 31.5114C61.5707 31.5882 61.7399 31.7091 61.8729 31.8639L61.5253 32.1823C61.4256 32.0772 61.3053 31.993 61.1716 31.9345C61.0406 31.8789 60.8992 31.8507 60.7564 31.8517C60.6152 31.8499 60.475 31.8745 60.3432 31.9242C60.2219 31.9704 60.1113 32.0404 60.0184 32.1297C59.9258 32.2193 59.8524 32.326 59.8024 32.4437C59.698 32.6999 59.698 32.9856 59.8024 33.2417C59.8523 33.3595 59.9258 33.4662 60.0184 33.5558C60.1113 33.6451 60.2218 33.715 60.3432 33.7612C60.475 33.8109 60.6152 33.8356 60.7564 33.8338C60.8992 33.8348 61.0406 33.8066 61.1716 33.751C61.306 33.692 61.4264 33.6063 61.5253 33.4993L61.8729 33.8177C61.7397 33.9728 61.5706 34.0945 61.3797 34.1727C61.1737 34.2554 60.9527 34.2965 60.7301 34.2934Z" fill="black"/>
<path d="M63.2914 34.253H62.757V31.432H63.2914V34.253ZM64.8206 33.0441H63.2501V32.5966H64.8196L64.8206 33.0441ZM64.7798 31.432H65.3103V34.253H64.7798V31.432Z" fill="black"/>
<path d="M69.2929 34.2934C69.0838 34.2957 68.8761 34.2595 68.6806 34.1868C68.5003 34.1192 68.3358 34.0167 68.1967 33.8856C68.0577 33.7544 67.9469 33.5972 67.871 33.4233C67.7175 33.051 67.7175 32.6349 67.871 32.2626C67.9466 32.0896 68.0571 31.9334 68.1958 31.8035C68.3366 31.6711 68.5029 31.5676 68.685 31.4992C69.0917 31.3527 69.539 31.3571 69.9426 31.5113C70.1336 31.5881 70.3028 31.709 70.4358 31.8638L70.0881 32.1823C69.9884 32.0772 69.8682 31.9929 69.7345 31.9344C69.6036 31.8789 69.4624 31.8507 69.3198 31.8517C69.1786 31.8499 69.0383 31.8745 68.9065 31.9242C68.7852 31.9704 68.6747 32.0403 68.5817 32.1297C68.4891 32.2192 68.4157 32.326 68.3657 32.4437C68.2615 32.6999 68.2615 32.9855 68.3657 33.2417C68.4156 33.3595 68.4891 33.4662 68.5817 33.5557C68.6747 33.6451 68.7852 33.715 68.9065 33.7612C69.0383 33.8109 69.1786 33.8355 69.3198 33.8338C69.4624 33.8347 69.6036 33.8066 69.7345 33.751C69.8689 33.692 69.9893 33.6063 70.0881 33.4993L70.4358 33.8177C70.3026 33.9728 70.1335 34.0945 69.9426 34.1726C69.7366 34.2554 69.5156 34.2965 69.2929 34.2934Z" fill="black"/>
<path d="M71.8542 34.253H71.3188V31.432H71.8532L71.8542 34.253ZM73.3835 33.0441H71.8155V32.5966H73.3859L73.3835 33.0441ZM73.3422 31.432H73.8727V34.253H73.3422V31.432Z" fill="black"/>
<path d="M74.6107 34.253L75.9055 31.432H76.4315L77.7302 34.253H77.167L76.057 31.71H76.2711L75.1571 34.253H74.6107ZM75.2067 33.6001L75.3557 33.1892H76.9053L77.0493 33.6001H75.2067Z" fill="black"/>
<path d="M78.4683 34.253V31.432H79.6523C79.8769 31.4263 80.1002 31.4668 80.3079 31.5508C80.4801 31.622 80.6268 31.742 80.7291 31.8955C80.8314 32.0574 80.8831 32.2451 80.878 32.4354C80.8834 32.6245 80.8315 32.8108 80.7291 32.971C80.6258 33.1241 80.4795 33.2445 80.3079 33.3177C80.1009 33.4044 79.8773 33.4463 79.6523 33.4404H78.7687L79.0031 33.1969V34.253H78.4683ZM79.0027 33.2534L78.7682 32.9954H79.6275C79.8169 33.0092 80.0053 32.9575 80.1599 32.8493C80.2166 32.7957 80.2617 32.7314 80.2925 32.6603C80.3234 32.5892 80.3392 32.5127 80.3392 32.4354C80.3392 32.3582 80.3234 32.2817 80.2925 32.2106C80.2617 32.1395 80.2166 32.0752 80.1599 32.0216C80.0053 31.9134 79.8169 31.8618 79.6275 31.8755H78.7682L79.0027 31.6175V33.2534Z" fill="black"/>
<path d="M82.2826 34.253V31.8751H81.329V31.432H83.7705V31.8751H82.817V34.253H82.2826Z" fill="black"/>
<path d="M85.0782 33.8099H86.7018V34.253H84.5438V31.432H86.6442V31.8751H85.0782V33.8099ZM85.037 32.6049H86.4679V33.0363H85.037V32.6049Z" fill="black"/>
<path d="M87.6683 34.253V31.432H88.8519C89.0765 31.4263 89.2997 31.4668 89.5074 31.5508C89.6797 31.622 89.8264 31.742 89.9286 31.8955C90.0309 32.0574 90.0827 32.2451 90.0776 32.4354C90.0828 32.6234 90.031 32.8086 89.9286 32.9676C89.8249 33.1188 89.6786 33.2372 89.5074 33.3084C89.3002 33.394 89.0767 33.4353 88.8519 33.4296H87.9683L88.2027 33.1959V34.252L87.6683 34.253ZM88.2027 33.2534L87.9683 32.9997H88.8275C89.0174 33.0134 89.206 32.9606 89.3599 32.8507C89.4198 32.7993 89.4671 32.7352 89.498 32.6632C89.529 32.5913 89.5429 32.5134 89.5387 32.4354C89.543 32.3578 89.5291 32.2803 89.4981 32.2087C89.4671 32.1371 89.4198 32.0735 89.3599 32.0226C89.2053 31.9144 89.017 31.8627 88.8275 31.8765H87.9683L88.2027 31.6185V33.2534ZM89.5511 34.253L88.8236 33.2305H89.3952L90.1268 34.253H89.5511Z" fill="black"/>
<path d="M25.2676 28.9557L35.9363 0.570618C36.1348 0.573547 36.3265 0.642178 36.4802 0.765367L25.8109 29.1505C25.6121 29.1499 25.4199 29.0809 25.2676 28.9557Z" fill="url(#paint0_linear_139_494)"/>
<path d="M0.317414 28.7731H96.8476C96.894 28.8081 96.9315 28.8531 96.9574 28.9045C96.9832 28.956 96.9967 29.0125 96.9967 29.0699C96.9967 29.1272 96.9832 29.1838 96.9574 29.2353C96.9315 29.2867 96.894 29.3317 96.8476 29.3667H0.317414C0.317414 29.3667 -0.0575641 29.0463 0.317414 28.7731Z" fill="url(#paint1_linear_139_494)"/>
<path d="M40.134 9.06874V4.83728H41.3573V9.06874H40.134Z" fill="black"/>
<path d="M43.4269 8.13625H45.6837V9.06716H42.2245V4.83569H45.6018V5.7666H43.4249L43.4269 8.13625ZM43.3405 6.47404H45.3445V7.36259H43.3405V6.47404Z" fill="black"/>
<path d="M47.5705 8.13625H49.8273V9.06716H46.368V4.83569H49.7453V5.7666H47.5689L47.5705 8.13625ZM47.484 6.47404H49.488V7.36259H47.484V6.47404Z" fill="black"/>
<path d="M51.7141 8.13625H53.971V9.06716H50.5117V4.83569H53.889V5.7666H51.7121L51.7141 8.13625ZM51.6277 6.47404H53.6342V7.36259H51.6277V6.47404Z" fill="black"/>
<path d="M40.5135 16.1371C40.1335 16.1405 39.756 16.0754 39.4 15.9448C39.0705 15.8252 38.7692 15.641 38.5148 15.4034C38.2603 15.1658 38.0579 14.8799 37.92 14.5631C37.639 13.889 37.639 13.1338 37.92 12.4597C38.0574 12.1451 38.2588 11.8614 38.512 11.6257C38.7696 11.3864 39.0736 11.2002 39.4059 11.078C40.1624 10.81 40.9929 10.823 41.7402 11.1145C42.0974 11.2613 42.4124 11.4916 42.6576 11.7854L41.8808 12.4816C41.7198 12.2923 41.5193 12.1389 41.2928 12.0318C41.0693 11.9294 40.8252 11.8773 40.5786 11.8794C40.3508 11.8768 40.1246 11.9175 39.9125 11.9992C39.7156 12.075 39.5367 12.1899 39.3871 12.3366C39.2375 12.4833 39.1203 12.6586 39.0429 12.8517C38.8801 13.2773 38.8801 13.7464 39.0429 14.1721C39.1209 14.3655 39.2389 14.5411 39.3894 14.6877C39.5399 14.8343 39.7197 14.9489 39.9175 15.0241C40.1296 15.1057 40.3557 15.1464 40.5835 15.1439C40.8306 15.1461 41.0749 15.0928 41.2977 14.9881C41.5239 14.879 41.7242 14.7246 41.8858 14.5348L42.6625 15.2311C42.4168 15.5252 42.1021 15.7566 41.7452 15.9054C41.3553 16.065 40.936 16.1439 40.5135 16.1371Z" fill="black"/>
<path d="M45.864 16.1371C45.4777 16.1415 45.0939 16.0755 44.7321 15.9424C44.3973 15.8183 44.0905 15.6311 43.8292 15.3913C43.574 15.1565 43.3711 14.8725 43.2332 14.5572C42.9517 13.8866 42.9517 13.1342 43.2332 12.4636C43.3717 12.1497 43.5746 11.867 43.8292 11.633C44.0895 11.3938 44.3948 11.2066 44.7282 11.0819C45.0886 10.9486 45.4713 10.8825 45.8565 10.8871C46.2417 10.883 46.6243 10.9482 46.9855 11.0794C47.319 11.2021 47.6245 11.3883 47.8844 11.6272C48.1395 11.862 48.3424 12.1459 48.4804 12.4612C48.7616 13.134 48.7616 13.8883 48.4804 14.5611C48.3431 14.8779 48.1402 15.1632 47.8844 15.399C47.6246 15.638 47.3191 15.8242 46.9855 15.9468C46.6267 16.0771 46.2466 16.1416 45.864 16.1371ZM45.8565 15.1434C46.076 15.1457 46.2936 15.105 46.4967 15.0237C46.6899 14.9451 46.8649 14.8292 47.0113 14.6828C47.159 14.535 47.2755 14.3599 47.354 14.1677C47.5174 13.7442 47.5174 13.2767 47.354 12.8531C47.2752 12.6609 47.1584 12.4858 47.0103 12.338C46.8638 12.1917 46.6888 12.0758 46.4957 11.9972C46.2926 11.9158 46.075 11.8751 45.8555 11.8774C45.6344 11.875 45.4149 11.9157 45.2099 11.9972C45.0161 12.0745 44.8408 12.1906 44.6954 12.338C44.5491 12.4866 44.4336 12.6615 44.3551 12.8531C44.1919 13.2767 44.1919 13.7441 44.3551 14.1677C44.4336 14.3593 44.5491 14.5342 44.6954 14.6828C44.8408 14.8303 45.0161 14.9464 45.2099 15.0237C45.4157 15.1054 45.636 15.1461 45.858 15.1434H45.8565Z" fill="black"/>
<path d="M49.5945 16.0505V10.9728H50.5878L52.793 14.5563H52.2655L54.4265 10.9728H55.4253V16.0505H54.3083L54.2934 12.6633H54.5154L52.7691 15.5067H52.2357L50.4671 12.6633H50.7115V16.0505H49.5945Z" fill="black"/>
<path d="M56.6609 16.0505V10.9728H58.9028C59.3137 10.9627 59.7222 11.0381 60.1012 11.1938C60.4178 11.3257 60.6879 11.5458 60.878 11.8268C61.0248 12.0413 61.1216 12.2847 61.1616 12.5399C61.2017 12.7951 61.1841 13.0558 61.11 13.3036C61.0359 13.5514 60.9071 13.7802 60.7328 13.9738C60.5585 14.1673 60.3429 14.321 60.1012 14.4238C59.7228 14.5821 59.3141 14.6588 58.9028 14.6488H57.3195L57.8658 14.119V16.0485L56.6609 16.0505ZM57.8668 14.2515L57.3205 13.693H58.8373C59.1328 13.7138 59.4264 13.6315 59.6662 13.4608C59.7606 13.3801 59.835 13.2793 59.8837 13.1662C59.9324 13.053 59.9542 12.9305 59.9473 12.8079C59.9544 12.6858 59.9327 12.5637 59.884 12.4512C59.8352 12.3386 59.7607 12.2386 59.6662 12.1589C59.4254 11.9906 59.1322 11.9098 58.8373 11.9305H57.3205L57.8668 11.372V14.2515Z" fill="black"/>
<path d="M64.2826 16.1376C63.9642 16.1682 63.6429 16.1288 63.3421 16.0221C63.0413 15.9155 62.7686 15.7444 62.5439 15.5213C62.3191 15.2983 62.148 15.0288 62.043 14.7326C61.9379 14.4364 61.9017 14.121 61.9369 13.8093V10.9733H63.1427V13.7801C63.1091 14.152 63.2172 14.5228 63.4462 14.8211C63.6775 15.0288 63.9798 15.144 64.2935 15.144C64.6072 15.144 64.9095 15.0288 65.1408 14.8211C65.3698 14.5228 65.4779 14.152 65.4442 13.7801V10.9733H66.6208V13.8093C66.6421 14.1234 66.598 14.4385 66.4911 14.7353C66.3842 15.0321 66.2168 15.3045 65.999 15.5358C65.7687 15.7439 65.4981 15.9044 65.2032 16.0078C64.9083 16.1112 64.5952 16.1553 64.2826 16.1376Z" fill="black"/>
<path d="M68.7978 16.0505V11.9305H67.1404V10.9728H71.654V11.9305H69.9947V16.0505H68.7978Z" fill="black"/>
<path d="M73.4887 15.1074H76.3078V16.0505H72.2968V10.9728H76.2109V11.9159H73.4887V15.1074ZM73.3998 13.0109H75.8936V13.9321H73.3998V13.0109Z" fill="black"/>
<path d="M77.2607 16.0505V10.9728H79.5027C79.9136 10.9628 80.322 11.0381 80.7011 11.1938C81.0176 11.3258 81.2877 11.5459 81.4779 11.8268C81.6571 12.1239 81.7516 12.4627 81.7516 12.8079C81.7516 13.153 81.6571 13.4918 81.4779 13.7889C81.2881 14.068 81.0176 14.2852 80.7011 14.4126C80.3208 14.5637 79.9129 14.6366 79.5027 14.6269H77.9193L78.4657 14.119V16.0485L77.2607 16.0505ZM78.4667 14.2515L77.9203 13.693H79.4386C79.7342 13.7137 80.0277 13.6314 80.2675 13.4608C80.362 13.3801 80.4363 13.2793 80.4851 13.1662C80.5338 13.053 80.5555 12.9305 80.5486 12.8079C80.5557 12.6858 80.5341 12.5637 80.4853 12.4512C80.4366 12.3386 80.3621 12.2386 80.2675 12.1589C80.0267 11.9907 79.7336 11.9099 79.4386 11.9305H77.9218L78.4681 11.372L78.4667 14.2515ZM80.5605 16.0505L79.2583 14.2081H80.5457L81.8479 16.0505H80.5605Z" fill="black"/>
<path d="M36.8685 23.3907C36.4643 23.3921 36.062 23.3372 35.6735 23.2276C35.3424 23.1428 35.0301 22.9989 34.7522 22.803L35.159 21.9184C35.3987 22.0844 35.6632 22.2128 35.9432 22.2991C36.2415 22.397 36.5539 22.4472 36.8685 22.4476C37.0624 22.4534 37.256 22.4289 37.4421 22.3751C37.5651 22.3405 37.6762 22.274 37.764 22.1828C37.8323 22.1052 37.8692 22.0058 37.8677 21.9033C37.8697 21.8405 37.8558 21.7782 37.8274 21.722C37.799 21.6657 37.7569 21.6171 37.7048 21.5805C37.5735 21.4907 37.4268 21.4247 37.2717 21.3857C37.0916 21.3348 36.8956 21.2861 36.6837 21.2397C36.4718 21.1932 36.2584 21.1376 36.0435 21.0727C35.8357 21.0105 35.6368 20.9228 35.4515 20.8117C35.2745 20.7061 35.1271 20.559 35.0224 20.3837C34.9096 20.1805 34.8547 19.9513 34.8634 19.7201C34.8609 19.4383 34.9433 19.1621 35.1003 18.926C35.2786 18.67 35.5295 18.4707 35.822 18.353C36.2079 18.1985 36.6227 18.1255 37.0393 18.1387C37.3648 18.1388 37.689 18.1777 38.0048 18.2546C38.2985 18.3221 38.5794 18.4347 38.8372 18.5881L38.4598 19.4733C38.2344 19.346 37.9932 19.2478 37.7421 19.1811C37.5108 19.1182 37.272 19.0854 37.0319 19.0838C36.8389 19.0775 36.6463 19.1033 36.4622 19.1602C36.3391 19.1975 36.2299 19.2693 36.1478 19.3666C36.0825 19.4505 36.0475 19.5533 36.0485 19.6588C36.0467 19.7221 36.0606 19.7848 36.089 19.8417C36.1174 19.8986 36.1594 19.9479 36.2114 19.9855C36.34 20.0769 36.4859 20.1422 36.6405 20.1778C36.818 20.2239 37.0153 20.2698 37.2325 20.3156C37.4506 20.3615 37.6661 20.4184 37.8782 20.486C38.0822 20.5502 38.2783 20.6366 38.4627 20.7435C38.6537 20.8521 38.8105 21.0099 38.9162 21.1998C39.0219 21.3897 39.0724 21.6044 39.0622 21.8205C39.0643 22.0994 38.9805 22.3724 38.8218 22.6039C38.6393 22.8588 38.3866 23.0575 38.0932 23.177C37.7051 23.3327 37.2876 23.4055 36.8685 23.3907Z" fill="black"/>
<path d="M42.3958 23.3907C42.0095 23.395 41.6257 23.329 41.2639 23.1959C40.9291 23.0719 40.6223 22.8847 40.361 22.6448C40.1059 22.41 39.903 22.126 39.765 21.8108C39.4838 21.1401 39.4838 20.3878 39.765 19.7172C39.9037 19.4033 40.1066 19.1206 40.361 18.8866C40.6213 18.6473 40.9266 18.4601 41.26 18.3354C41.6204 18.2021 42.0031 18.136 42.3884 18.1407C42.7733 18.1366 43.1558 18.2017 43.5168 18.333C43.8504 18.4556 44.1559 18.6418 44.4157 18.8807C44.6709 19.1155 44.8737 19.3995 45.0117 19.7148C45.2929 20.3876 45.2929 21.1418 45.0117 21.8147C44.8745 22.1315 44.6716 22.4169 44.4157 22.6526C44.1559 22.8916 43.8504 23.0778 43.5168 23.2003C43.1582 23.3305 42.7782 23.395 42.3958 23.3907ZM42.3884 22.397C42.6078 22.3992 42.8254 22.3585 43.0286 22.2772C43.2215 22.1986 43.3964 22.0827 43.5426 21.9364C43.6908 21.7887 43.8077 21.6138 43.8868 21.4217C44.05 20.9982 44.05 20.5308 43.8868 20.1072C43.8078 19.9149 43.6908 19.7399 43.5426 19.5921C43.3964 19.4458 43.2215 19.3299 43.0286 19.2512C42.8255 19.1699 42.6078 19.1291 42.3884 19.1315C42.1672 19.1291 41.9477 19.1698 41.7427 19.2512C41.5489 19.3286 41.3737 19.4447 41.2282 19.5921C41.082 19.7407 40.9664 19.9156 40.888 20.1072C40.7248 20.5308 40.7248 20.9982 40.888 21.4217C40.9665 21.6132 41.082 21.7879 41.2282 21.9364C41.3736 22.0838 41.5489 22.1999 41.7427 22.2772C41.9479 22.3579 42.1673 22.398 42.3884 22.395V22.397Z" fill="black"/>
<path d="M48.6041 23.3907C48.224 23.394 47.8466 23.3288 47.4906 23.1984C47.1611 23.0786 46.8599 22.8944 46.6055 22.6568C46.351 22.4193 46.1486 22.1334 46.0105 21.8166C45.7292 21.1424 45.7292 20.387 46.0105 19.7128C46.148 19.3982 46.3494 19.1145 46.6025 18.8788C46.8602 18.6395 47.1642 18.4532 47.4965 18.331C48.2529 18.0628 49.0834 18.0756 49.8308 18.3671C50.1879 18.5139 50.5029 18.7442 50.7482 19.038L49.9714 19.7347C49.8102 19.5452 49.6095 19.3918 49.3828 19.2848C49.1594 19.1824 48.9153 19.1303 48.6686 19.1324C48.4408 19.1299 48.2147 19.1706 48.0026 19.2522C47.8058 19.3281 47.6271 19.4429 47.4775 19.5895C47.328 19.7361 47.2109 19.9113 47.1335 20.1042C46.9706 20.5299 46.9706 20.999 47.1335 21.4247C47.2107 21.6178 47.3277 21.7932 47.4773 21.9399C47.6268 22.0866 47.8057 22.2014 48.0026 22.2772C48.2147 22.3588 48.4408 22.3994 48.6686 22.397C48.9157 22.3992 49.16 22.3459 49.3828 22.2412C49.6092 22.1321 49.8097 21.9777 49.9714 21.7879L50.7482 22.4846C50.5024 22.7787 50.1877 23.0101 49.8308 23.1589C49.4425 23.318 49.0249 23.3968 48.6041 23.3907Z" fill="black"/>
<path d="M51.5507 23.304V18.2264H52.757V23.304H51.5507Z" fill="black"/>
<path d="M55.1659 22.361H57.9849V23.304H53.9739V18.2264H57.8881V19.1695H55.1659V22.361ZM55.077 20.2649H57.5707V21.1851H55.077V20.2649Z" fill="black"/>
<path d="M60.0133 23.304V19.1841H58.356V18.2264H62.8716V19.1841H61.2142V23.304H60.0133Z" fill="black"/>
<path d="M64.7047 23.304V21.2295L64.9783 21.9403L62.6937 18.2264H63.9736L65.7199 21.0698H64.9873L66.741 18.2264H67.9101L65.6384 21.9403L65.9121 21.2295V23.304H64.7047Z" fill="black"/>
</g>
<defs>
<linearGradient id="paint0_linear_139_494" x1="30.2123" y1="49.5851" x2="76.7222" y2="49.5851" gradientUnits="userSpaceOnUse">
<stop stop-color="#FBCB0E"/>
<stop offset="1" stop-color="#E54930"/>
</linearGradient>
<linearGradient id="paint1_linear_139_494" x1="0.150757" y1="29.0699" x2="96.9967" y2="29.0699" gradientUnits="userSpaceOnUse">
<stop stop-color="#FBCB0E"/>
<stop offset="1" stop-color="#E54930"/>
</linearGradient>
<clipPath id="clip0_139_494">
<rect width="97" height="34.2929" fill="white"/>
</clipPath>
</defs>
</svg>
