<svg width="72" height="42" viewBox="0 0 72 42" fill="none" xmlns="http://www.w3.org/2000/svg">
<g clip-path="url(#clip0_139_646)">
<path d="M23.3765 31.8535L17.8809 22.8318C19.1334 22.2124 20.1759 21.2705 20.8882 20.1144C21.6005 18.9583 21.9538 17.6351 21.9072 16.2972C21.9072 16.2972 22.222 11.3865 17.3162 10.1813C17.3162 10.1813 13.6909 9.34989 9.52819 12.2756C9.52819 12.2756 9.0212 12.5878 8.94458 12.8394C8.94458 12.8394 9.20489 12.9976 9.74228 12.7818C9.74228 12.7818 13.079 11.0584 15.5413 11.834C15.5413 11.834 18.7384 12.5461 17.3508 16.2196C16.2295 18.6278 14.1959 20.55 11.6516 21.6066C10.9861 21.8779 10.3019 22.1061 9.60378 22.2898C9.5516 22.7795 9.5516 23.2729 9.60378 23.7626C9.60378 23.7626 11.1288 25.0484 12.0335 25.66L16.4419 29.0113C16.4419 29.0113 17.9627 30.1908 18.1558 30.336L20.2172 31.95C20.2172 31.95 20.6906 32.2911 21.0097 32.5466C21.1984 32.7157 21.449 32.8088 21.7087 32.8062C22.2041 32.7903 23.0574 32.7664 23.2883 32.7843C23.2883 32.7843 23.6757 32.7525 23.724 32.5974C23.7303 32.6023 23.8152 32.3756 23.3765 31.8535Z" fill="#951733"/>
<path d="M35.3944 22.7861L35.9863 28.6315L36.2592 31.1316C36.3166 31.6635 36.3314 32.1987 36.3033 32.7327C36.3033 32.7327 36.1816 32.8321 35.5897 32.8102C35.5897 32.8102 35.1696 32.8102 35.0175 32.8102C34.8296 32.8201 34.6415 32.8181 34.454 32.8043L34.1201 32.7734L33.8051 32.1618C33.8051 32.1618 32.5196 29.6757 32.2541 29.2401L31.2045 27.2621C31.0737 27.0576 30.9542 26.8469 30.8465 26.6307L30.7289 26.3453L31.1486 26.0956C31.232 26.06 31.3024 26.0014 31.3503 25.9276C31.3503 25.9276 32.2844 25.1618 33.5912 23.8661C33.5912 23.8661 34.4686 23.0476 35.07 22.3843C35.07 22.3843 35.28 22.1974 35.3388 22.4619C35.3665 22.5684 35.3851 22.6768 35.3944 22.7861Z" fill="#5B2466"/>
<path d="M20.4786 9.23356C20.4786 9.23356 26.6408 5.10953 31.7828 4.82611C31.7828 4.82611 35.7827 4.31099 37.4694 6.88862C37.4694 6.88862 39.1562 8.56429 37.9859 12.1473C37.5809 13.6536 36.8042 15.0473 35.7198 16.2137C35.4942 16.4752 35.1928 16.6684 34.8527 16.7696C34.691 16.4232 34.616 16.0461 34.6334 15.6677L34.2661 12.1443L34.2094 11.6471C34.2094 11.6471 34.1381 11.0186 34.0667 10.6656L33.9901 10.3732C33.217 10.3365 32.4424 10.3365 31.6694 10.3732L30.4823 12.3969L28.9247 15.071L26.0677 20.0205C26.0677 20.0205 24.1291 23.4235 23.64 24.1972C23.64 24.1972 22.4498 26.3751 22.1506 26.749C22.048 26.8837 21.9894 27.0441 21.9823 27.2102C21.9752 27.3762 22.0199 27.5406 22.1108 27.6828L22.5694 28.4018C22.8718 28.9755 23.2057 29.5338 23.5696 30.0744L23.6515 30.1858C23.6515 30.1858 30.4981 25.4731 32.8649 23.0953C32.8649 23.0953 38.1768 17.8943 39.3723 13.4093C39.3723 13.4093 41.0726 9.09135 38.6575 5.6177C38.6575 5.6177 36.2971 1.75721 28.8964 2.66018C26.272 2.93123 23.7072 3.58327 21.2921 4.59341C18.8877 5.58241 16.5855 6.78091 14.4151 8.17347L12.762 9.29522C12.6323 9.386 12.5225 9.49983 12.4387 9.63035L12.3978 9.7109C13.4023 9.41958 14.4361 9.22859 15.4825 9.14107C16.66 9.08415 17.8354 9.28491 18.9178 9.72781L19.2128 9.84416C19.2928 9.87564 19.3802 9.88697 19.4663 9.87704C19.5524 9.86711 19.6342 9.83625 19.704 9.78747L19.8635 9.6761C19.8635 9.6761 20.2907 9.35886 20.4786 9.23356Z" fill="#5B2466"/>
<path d="M11.1876 17.2251C11.1876 17.2251 6.07295 20.9881 4.46078 25.2036C4.46078 25.2036 2.39931 29.9014 7.09309 31.5831C7.09309 31.5831 10.1128 32.9753 15.5141 31.8018C16.0332 31.7112 16.5465 31.593 17.0517 31.4478L17.2322 31.3991C17.3211 31.3753 17.4148 31.3726 17.5051 31.3914C17.5954 31.4101 17.6794 31.4496 17.7497 31.5065L17.9343 31.6557C18.0901 31.795 18.2557 31.9242 18.4298 32.0425C18.5383 32.1347 18.6393 32.2344 18.732 32.3409L18.7646 32.3906C16.9059 33.1555 14.941 33.6639 12.9299 33.9002C12.9299 33.9002 6.15577 35.2536 2.36044 31.5025C2.36044 31.5025 -1.0539 28.6186 1.77581 21.6037C2.92389 19.2598 4.53009 17.1431 6.50948 15.3654C8.39653 13.7598 10.8571 12.8935 13.3928 12.9419C14.1885 13.0222 14.9343 13.3482 15.5151 13.8698L15.6305 14.0368C15.6473 14.0539 15.6596 14.0744 15.6668 14.0967C15.6739 14.119 15.6756 14.1426 15.6716 14.1656C15.6677 14.1887 15.6582 14.2105 15.644 14.2296C15.6297 14.2486 15.6111 14.2643 15.5895 14.2755C15.4239 14.4019 15.2436 14.51 15.0522 14.5977C15.0522 14.5977 13.7161 15.3933 12.9299 15.9641L11.1876 17.2251Z" fill="#5B2466"/>
<path d="M38.3909 30.3549C38.6753 30.3549 38.9534 30.4348 39.1898 30.5845C39.4263 30.7342 39.6106 30.9469 39.7194 31.1959C39.8283 31.4448 39.8567 31.7188 39.8013 31.9831C39.7458 32.2473 39.6088 32.4901 39.4077 32.6806C39.2066 32.8712 38.9504 33.0009 38.6715 33.0535C38.3925 33.1061 38.1034 33.0791 37.8407 32.976C37.5779 32.8729 37.3533 32.6982 37.1953 32.4742C37.0373 32.2501 36.953 31.9867 36.953 31.7173C36.9533 31.356 37.1049 31.0096 37.3745 30.7542C37.6441 30.4987 38.0097 30.3551 38.3909 30.3549ZM38.3909 32.6918C38.5944 32.6918 38.7933 32.6347 38.9624 32.5276C39.1316 32.4205 39.2634 32.2683 39.3412 32.0902C39.4191 31.9121 39.4395 31.7162 39.3998 31.5271C39.3601 31.3381 39.2621 31.1644 39.1183 31.0281C38.9744 30.8918 38.7911 30.799 38.5916 30.7614C38.3921 30.7238 38.1853 30.7431 37.9973 30.8169C37.8094 30.8906 37.6487 31.0156 37.5357 31.1758C37.4227 31.3361 37.3623 31.5245 37.3623 31.7173C37.3626 31.9757 37.4711 32.2234 37.6639 32.4061C37.8568 32.5888 38.1182 32.6916 38.3909 32.6918Z" fill="#5B2466"/>
<path d="M38.0205 31.23V31.6477H38.3352C38.3352 31.6477 38.6501 31.6646 38.6596 31.4388C38.6596 31.4388 38.6744 31.23 38.3385 31.23H38.0205Z" fill="white"/>
<path d="M47.2862 1.63539V5.99902H46.7578V1.63539H47.2862ZM48.3457 5.99902V1.63539H50.9792V2.10414H48.8741V3.57857H50.8428V4.04732H48.8741V5.53027H51.0133V5.99902H48.3457ZM51.9316 5.99902V1.63539H54.5651V2.10414H52.46V3.57857H54.4288V4.04732H52.46V5.53027H54.5992V5.99902H51.9316ZM55.5175 5.99902V1.63539H58.1511V2.10414H56.046V3.57857H58.0147V4.04732H56.046V5.53027H58.1852V5.99902H55.5175Z" fill="#951733"/>
<path d="M44.889 26.4392C44.8634 26.2233 44.7598 26.0557 44.5779 25.9363C44.3961 25.817 44.1731 25.7574 43.9089 25.7574C43.7157 25.7574 43.5467 25.7886 43.4018 25.8511C43.2583 25.9136 43.1461 25.9996 43.0652 26.1089C42.9856 26.2183 42.9458 26.3426 42.9458 26.4818C42.9458 26.5983 42.9735 26.6984 43.0289 26.7822C43.0857 26.8646 43.1582 26.9335 43.2463 26.9889C43.3343 27.0429 43.4267 27.0876 43.5232 27.1231C43.6198 27.1572 43.7086 27.1849 43.7896 27.2062L44.2328 27.3256C44.3464 27.3554 44.4728 27.3966 44.612 27.4491C44.7527 27.5017 44.8869 27.5734 45.0147 27.6643C45.144 27.7538 45.2505 27.8689 45.3343 28.0095C45.4181 28.1501 45.46 28.3227 45.46 28.5273C45.46 28.7631 45.3982 28.9761 45.2747 29.1665C45.1525 29.3568 44.9735 29.5081 44.7377 29.6203C44.5034 29.7325 44.2186 29.7886 43.8833 29.7886C43.5708 29.7886 43.3002 29.7382 43.0715 29.6373C42.8443 29.5365 42.6653 29.3959 42.5346 29.2155C42.4054 29.0351 42.3322 28.8256 42.3152 28.5869H42.8606C42.8748 28.7517 42.9302 28.8881 43.0268 28.996C43.1248 29.1025 43.2484 29.1821 43.3975 29.2346C43.5481 29.2858 43.71 29.3113 43.8833 29.3113C44.085 29.3113 44.2661 29.2787 44.4267 29.2133C44.5872 29.1466 44.7143 29.0542 44.8081 28.9363C44.9018 28.817 44.9487 28.6778 44.9487 28.5187C44.9487 28.3738 44.9082 28.2559 44.8272 28.165C44.7463 28.0741 44.6397 28.0003 44.5076 27.9434C44.3755 27.8866 44.2328 27.8369 44.0794 27.7943L43.5424 27.6409C43.2015 27.5429 42.9316 27.403 42.7328 27.2211C42.5339 27.0393 42.4345 26.8014 42.4345 26.5074C42.4345 26.2631 42.5005 26.05 42.6326 25.8682C42.7661 25.6849 42.9451 25.5429 43.1696 25.442C43.3954 25.3398 43.6475 25.2886 43.9259 25.2886C44.2072 25.2886 44.4572 25.339 44.6759 25.4399C44.8947 25.5393 45.068 25.6757 45.1958 25.849C45.3251 26.0223 45.3933 26.219 45.4004 26.4392H44.889ZM47.5902 29.7801C47.2947 29.7801 47.0355 29.7098 46.8125 29.5692C46.5909 29.4285 46.4176 29.2318 46.2926 28.979C46.169 28.7261 46.1072 28.4307 46.1072 28.0926C46.1072 27.7517 46.169 27.4541 46.2926 27.1998C46.4176 26.9456 46.5909 26.7481 46.8125 26.6075C47.0355 26.4669 47.2947 26.3966 47.5902 26.3966C47.8856 26.3966 48.1442 26.4669 48.3658 26.6075C48.5888 26.7481 48.7621 26.9456 48.8856 27.1998C49.0106 27.4541 49.0731 27.7517 49.0731 28.0926C49.0731 28.4307 49.0106 28.7261 48.8856 28.979C48.7621 29.2318 48.5888 29.4285 48.3658 29.5692C48.1442 29.7098 47.8856 29.7801 47.5902 29.7801ZM47.5902 29.3284C47.8146 29.3284 47.9993 29.2709 48.1442 29.1558C48.2891 29.0407 48.3963 28.8895 48.4659 28.702C48.5355 28.5145 48.5703 28.3113 48.5703 28.0926C48.5703 27.8738 48.5355 27.67 48.4659 27.4811C48.3963 27.2922 48.2891 27.1395 48.1442 27.023C47.9993 26.9065 47.8146 26.8483 47.5902 26.8483C47.3658 26.8483 47.1811 26.9065 47.0362 27.023C46.8913 27.1395 46.7841 27.2922 46.7145 27.4811C46.6449 27.67 46.6101 27.8738 46.6101 28.0926C46.6101 28.3113 46.6449 28.5145 46.7145 28.702C46.7841 28.8895 46.8913 29.0407 47.0362 29.1558C47.1811 29.2709 47.3658 29.3284 47.5902 29.3284ZM51.1703 29.7801C50.8634 29.7801 50.5992 29.7077 50.3777 29.5628C50.1561 29.4179 49.9856 29.2183 49.8663 28.964C49.747 28.7098 49.6873 28.4193 49.6873 28.0926C49.6873 27.7602 49.7484 27.4669 49.8706 27.2126C49.9941 26.9569 50.166 26.7574 50.3862 26.6139C50.6078 26.469 50.8663 26.3966 51.1617 26.3966C51.3919 26.3966 51.5992 26.4392 51.7839 26.5244C51.9686 26.6096 52.1198 26.729 52.2377 26.8824C52.3556 27.0358 52.4288 27.2148 52.4572 27.4193H51.9544C51.916 27.2702 51.8308 27.1381 51.6987 27.023C51.568 26.9065 51.3919 26.8483 51.1703 26.8483C50.9742 26.8483 50.8024 26.8994 50.6546 27.0017C50.5083 27.1025 50.394 27.2453 50.3116 27.43C50.2306 27.6132 50.1902 27.8284 50.1902 28.0756C50.1902 28.3284 50.2299 28.5486 50.3095 28.7361C50.3904 28.9236 50.5041 29.0692 50.6504 29.1729C50.7981 29.2765 50.9714 29.3284 51.1703 29.3284C51.3009 29.3284 51.4196 29.3057 51.5261 29.2602C51.6326 29.2148 51.7228 29.1494 51.7967 29.0642C51.8706 28.979 51.9231 28.8767 51.9544 28.7574H52.4572C52.4288 28.9506 52.3585 29.1246 52.2463 29.2794C52.1355 29.4328 51.9884 29.555 51.8052 29.6459C51.6234 29.7354 51.4117 29.7801 51.1703 29.7801ZM53.1923 29.7119V26.4392H53.6951V29.7119H53.1923ZM53.448 25.8937C53.35 25.8937 53.2654 25.8604 53.1944 25.7936C53.1248 25.7268 53.09 25.6466 53.09 25.5528C53.09 25.4591 53.1248 25.3788 53.1944 25.3121C53.2654 25.2453 53.35 25.2119 53.448 25.2119C53.546 25.2119 53.6298 25.2453 53.6994 25.3121C53.7704 25.3788 53.8059 25.4591 53.8059 25.5528C53.8059 25.6466 53.7704 25.7268 53.6994 25.7936C53.6298 25.8604 53.546 25.8937 53.448 25.8937ZM55.9883 29.7801C55.6729 29.7801 55.4009 29.7105 55.1722 29.5713C54.9449 29.4307 54.7695 29.2346 54.6459 28.9832C54.5238 28.7304 54.4627 28.4363 54.4627 28.1011C54.4627 27.7659 54.5238 27.4704 54.6459 27.2148C54.7695 26.9577 54.9414 26.7574 55.1616 26.6139C55.3832 26.469 55.6417 26.3966 55.9371 26.3966C56.1076 26.3966 56.2759 26.425 56.4421 26.4818C56.6083 26.5386 56.7596 26.6309 56.8959 26.7588C57.0323 26.8852 57.141 27.0528 57.2219 27.2616C57.3029 27.4704 57.3434 27.7275 57.3434 28.0329V28.246H54.8207V27.8113H56.832C56.832 27.6267 56.7951 27.4619 56.7212 27.317C56.6488 27.1721 56.5451 27.0578 56.4101 26.974C56.2766 26.8902 56.119 26.8483 55.9371 26.8483C55.7368 26.8483 55.5636 26.898 55.4172 26.9974C55.2724 27.0954 55.1609 27.2233 55.0827 27.3809C55.0046 27.5386 54.9655 27.7077 54.9655 27.8881V28.1778C54.9655 28.425 55.0082 28.6345 55.0934 28.8064C55.18 28.9768 55.3001 29.1068 55.4535 29.1963C55.6069 29.2844 55.7851 29.3284 55.9883 29.3284C56.1204 29.3284 56.2397 29.3099 56.3462 29.273C56.4542 29.2346 56.5472 29.1778 56.6253 29.1025C56.7035 29.0258 56.7638 28.9307 56.8065 28.817L57.2922 28.9534C57.2411 29.1182 57.1552 29.2631 57.0344 29.3881C56.9137 29.5116 56.7645 29.6082 56.587 29.6778C56.4094 29.746 56.2099 29.7801 55.9883 29.7801ZM59.5316 26.4392V26.8653H57.8356V26.4392H59.5316ZM58.3299 25.6551H58.8327V28.7744C58.8327 28.9165 58.8533 29.023 58.8945 29.094C58.9371 29.1636 58.9911 29.2105 59.0565 29.2346C59.1232 29.2574 59.1935 29.2687 59.2674 29.2687C59.3228 29.2687 59.3682 29.2659 59.4038 29.2602C59.4393 29.2531 59.4677 29.2474 59.489 29.2432L59.5913 29.6949C59.5572 29.7077 59.5096 29.7204 59.4485 29.7332C59.3874 29.7474 59.31 29.7545 59.2163 29.7545C59.0742 29.7545 58.935 29.724 58.7986 29.6629C58.6637 29.6018 58.5515 29.5088 58.462 29.3838C58.3739 29.2588 58.3299 29.1011 58.3299 28.9108V25.6551ZM60.6118 30.9392C60.5266 30.9392 60.4506 30.9321 60.3839 30.9179C60.3171 30.9051 60.2709 30.8923 60.2454 30.8795L60.3732 30.4363C60.4954 30.4676 60.6033 30.479 60.6971 30.4704C60.7908 30.4619 60.8739 30.42 60.9464 30.3447C61.0202 30.2709 61.0877 30.1508 61.1488 29.9846L61.2425 29.729L60.0323 26.4392H60.5778L61.4812 29.0471H61.5153L62.4187 26.4392H62.9641L61.5749 30.1892C61.5124 30.3582 61.435 30.4981 61.3427 30.6089C61.2503 30.7211 61.1431 30.8042 61.0209 30.8582C60.9002 30.9122 60.7638 30.9392 60.6118 30.9392Z" fill="#9B1F3B"/>
<path d="M43.5553 21.6691H42.7314L43.9867 18.0328H44.9775L46.231 21.6691H45.4072L44.4963 18.8637H44.4679L43.5553 21.6691ZM43.5038 20.2398H45.4498V20.8399H43.5038V20.2398ZM48.4034 20.5079V18.9419H49.1598V21.6691H48.4336V21.1737H48.4052C48.3437 21.3335 48.2413 21.462 48.098 21.559C47.956 21.6561 47.7826 21.7046 47.5778 21.7046C47.3955 21.7046 47.2351 21.6632 47.0966 21.5804C46.9581 21.4975 46.8498 21.3797 46.7717 21.227C46.6948 21.0743 46.6557 20.8914 46.6545 20.6784V18.9419H47.4109V20.5434C47.4121 20.7044 47.4553 20.8317 47.5405 20.9252C47.6257 21.0187 47.74 21.0654 47.8832 21.0654C47.9743 21.0654 48.0596 21.0447 48.1389 21.0033C48.2182 20.9607 48.2821 20.8979 48.3306 20.8151C48.3804 20.7322 48.4046 20.6298 48.4034 20.5079ZM51.2155 18.9419V19.51H49.5731V18.9419H51.2155ZM49.946 18.2884H50.7024V20.8311C50.7024 20.9009 50.713 20.9553 50.7343 20.9944C50.7556 21.0323 50.7852 21.0589 50.8231 21.0743C50.8622 21.0897 50.9071 21.0974 50.958 21.0974C50.9936 21.0974 51.0291 21.0944 51.0646 21.0885C51.1001 21.0814 51.1273 21.0761 51.1463 21.0725L51.2652 21.6354C51.2273 21.6472 51.1741 21.6608 51.1054 21.6762C51.0368 21.6928 50.9533 21.7029 50.8551 21.7064C50.6728 21.7135 50.513 21.6893 50.3757 21.6336C50.2395 21.578 50.1336 21.4916 50.0578 21.3744C49.9821 21.2572 49.9448 21.1092 49.946 20.9305V18.2884ZM52.9112 21.7224C52.6354 21.7224 52.3968 21.6638 52.1956 21.5466C51.9956 21.4282 51.8411 21.2637 51.7322 21.053C51.6233 20.8411 51.5688 20.5955 51.5688 20.3161C51.5688 20.0344 51.6233 19.7882 51.7322 19.5775C51.8411 19.3656 51.9956 19.2011 52.1956 19.0839C52.3968 18.9655 52.6354 18.9063 52.9112 18.9063C53.187 18.9063 53.4249 18.9655 53.6249 19.0839C53.8262 19.2011 53.9812 19.3656 54.0901 19.5775C54.199 19.7882 54.2535 20.0344 54.2535 20.3161C54.2535 20.5955 54.199 20.8411 54.0901 21.053C53.9812 21.2637 53.8262 21.4282 53.6249 21.5466C53.4249 21.6638 53.187 21.7224 52.9112 21.7224ZM52.9147 21.1365C53.0402 21.1365 53.1449 21.1009 53.229 21.0299C53.313 20.9577 53.3764 20.8595 53.419 20.7352C53.4628 20.6109 53.4847 20.4694 53.4847 20.3108C53.4847 20.1522 53.4628 20.0107 53.419 19.8865C53.3764 19.7622 53.313 19.6639 53.229 19.5917C53.1449 19.5195 53.0402 19.4834 52.9147 19.4834C52.7881 19.4834 52.6815 19.5195 52.5951 19.5917C52.5099 19.6639 52.4454 19.7622 52.4016 19.8865C52.359 20.0107 52.3377 20.1522 52.3377 20.3108C52.3377 20.4694 52.359 20.6109 52.4016 20.7352C52.4454 20.8595 52.5099 20.9577 52.5951 21.0299C52.6815 21.1009 52.7881 21.1365 52.9147 21.1365ZM54.7453 21.6691V18.9419H55.4662V19.423H55.4982C55.555 19.2632 55.6497 19.1372 55.7823 19.0448C55.9148 18.9525 56.0735 18.9063 56.2581 18.9063C56.4451 18.9063 56.6043 18.9531 56.7357 19.0466C56.8671 19.1389 56.9547 19.2644 56.9985 19.423H57.0269C57.0826 19.2668 57.1832 19.1419 57.3288 19.0484C57.4756 18.9537 57.649 18.9063 57.849 18.9063C58.1035 18.9063 58.3101 18.9874 58.4687 19.1496C58.6285 19.3106 58.7084 19.539 58.7084 19.835V21.6691H57.9538V19.9841C57.9538 19.8326 57.9135 19.719 57.833 19.6432C57.7525 19.5674 57.6519 19.5296 57.5312 19.5296C57.3939 19.5296 57.2868 19.5734 57.2098 19.661C57.1329 19.7474 57.0944 19.8616 57.0944 20.0036V21.6691H56.3611V19.9681C56.3611 19.8344 56.3226 19.7278 56.2457 19.6485C56.1699 19.5692 56.0699 19.5296 55.9456 19.5296C55.8616 19.5296 55.7858 19.5509 55.7183 19.5935C55.6521 19.6349 55.5994 19.6935 55.5603 19.7693C55.5213 19.8438 55.5017 19.9314 55.5017 20.0321V21.6691H54.7453ZM60.0836 21.7206C59.9096 21.7206 59.7545 21.6904 59.6184 21.6301C59.4822 21.5685 59.3745 21.478 59.2952 21.3584C59.2171 21.2377 59.178 21.0873 59.178 20.9074C59.178 20.7559 59.2059 20.6286 59.2615 20.5257C59.3171 20.4227 59.3929 20.3398 59.4888 20.2771C59.5846 20.2143 59.6935 20.167 59.8155 20.135C59.9386 20.1031 60.0676 20.0806 60.2025 20.0676C60.3612 20.051 60.489 20.0356 60.5861 20.0214C60.6831 20.006 60.7536 19.9835 60.7974 19.9539C60.8411 19.9243 60.863 19.8805 60.863 19.8225V19.8119C60.863 19.6994 60.8275 19.6124 60.7565 19.5509C60.6867 19.4893 60.5872 19.4585 60.4582 19.4585C60.3221 19.4585 60.2138 19.4887 60.1333 19.5491C60.0528 19.6083 59.9995 19.6829 59.9735 19.7728L59.2739 19.716C59.3094 19.5503 59.3793 19.4071 59.4834 19.2863C59.5876 19.1644 59.7219 19.0709 59.8865 19.0058C60.0522 18.9395 60.244 18.9063 60.4618 18.9063C60.6133 18.9063 60.7583 18.9241 60.8968 18.9596C61.0365 18.9951 61.1602 19.0502 61.2679 19.1247C61.3768 19.1993 61.4626 19.2952 61.5253 19.4124C61.5881 19.5284 61.6194 19.6675 61.6194 19.8296V21.6691H60.9021V21.2909H60.8808C60.837 21.3762 60.7784 21.4513 60.705 21.5164C60.6316 21.5804 60.5434 21.6307 60.4405 21.6674C60.3375 21.7029 60.2185 21.7206 60.0836 21.7206ZM60.3002 21.1986C60.4115 21.1986 60.5097 21.1767 60.5949 21.1329C60.6802 21.0879 60.747 21.0276 60.7956 20.9518C60.8441 20.876 60.8684 20.7902 60.8684 20.6943V20.4049C60.8447 20.4203 60.8121 20.4345 60.7707 20.4475C60.7305 20.4594 60.6849 20.4706 60.634 20.4813C60.5831 20.4907 60.5322 20.4996 60.4813 20.5079C60.4304 20.515 60.3842 20.5215 60.3428 20.5274C60.254 20.5405 60.1765 20.5612 60.1102 20.5896C60.0439 20.618 59.9924 20.6565 59.9557 20.705C59.919 20.7523 59.9007 20.8115 59.9007 20.8826C59.9007 20.9855 59.938 21.0643 60.0126 21.1187C60.0883 21.172 60.1842 21.1986 60.3002 21.1986ZM63.6569 18.9419V19.51H62.0145V18.9419H63.6569ZM62.3874 18.2884H63.1438V20.8311C63.1438 20.9009 63.1544 20.9553 63.1757 20.9944C63.197 21.0323 63.2266 21.0589 63.2645 21.0743C63.3036 21.0897 63.3485 21.0974 63.3994 21.0974C63.435 21.0974 63.4705 21.0944 63.506 21.0885C63.5415 21.0814 63.5687 21.0761 63.5877 21.0725L63.7066 21.6354C63.6687 21.6472 63.6155 21.6608 63.5468 21.6762C63.4782 21.6928 63.3947 21.7029 63.2965 21.7064C63.1142 21.7135 62.9544 21.6893 62.8171 21.6336C62.6809 21.578 62.575 21.4916 62.4992 21.3744C62.4235 21.2572 62.3862 21.1092 62.3874 20.9305V18.2884ZM64.1496 21.6691V18.9419H64.906V21.6691H64.1496ZM64.5296 18.5903C64.4171 18.5903 64.3207 18.553 64.2402 18.4784C64.1609 18.4027 64.1212 18.3121 64.1212 18.2068C64.1212 18.1026 64.1609 18.0132 64.2402 17.9387C64.3207 17.8629 64.4171 17.825 64.5296 17.825C64.642 17.825 64.7379 17.8629 64.8172 17.9387C64.8977 18.0132 64.938 18.1026 64.938 18.2068C64.938 18.3121 64.8977 18.4027 64.8172 18.4784C64.7379 18.553 64.642 18.5903 64.5296 18.5903ZM66.7442 21.7224C66.4684 21.7224 66.2299 21.6638 66.0286 21.5466C65.8286 21.4282 65.6741 21.2637 65.5652 21.053C65.4563 20.8411 65.4018 20.5955 65.4018 20.3161C65.4018 20.0344 65.4563 19.7882 65.5652 19.5775C65.6741 19.3656 65.8286 19.2011 66.0286 19.0839C66.2299 18.9655 66.4684 18.9063 66.7442 18.9063C67.02 18.9063 67.2579 18.9655 67.458 19.0839C67.6592 19.2011 67.8142 19.3656 67.9232 19.5775C68.0321 19.7882 68.0865 20.0344 68.0865 20.3161C68.0865 20.5955 68.0321 20.8411 67.9232 21.053C67.8142 21.2637 67.6592 21.4282 67.458 21.5466C67.2579 21.6638 67.02 21.7224 66.7442 21.7224ZM66.7477 21.1365C66.8732 21.1365 66.978 21.1009 67.062 21.0299C67.146 20.9577 67.2094 20.8595 67.252 20.7352C67.2958 20.6109 67.3177 20.4694 67.3177 20.3108C67.3177 20.1522 67.2958 20.0107 67.252 19.8865C67.2094 19.7622 67.146 19.6639 67.062 19.5917C66.978 19.5195 66.8732 19.4834 66.7477 19.4834C66.6211 19.4834 66.5145 19.5195 66.4281 19.5917C66.3429 19.6639 66.2784 19.7622 66.2346 19.8865C66.192 20.0107 66.1707 20.1522 66.1707 20.3108C66.1707 20.4694 66.192 20.6109 66.2346 20.7352C66.2784 20.8595 66.3429 20.9577 66.4281 21.0299C66.5145 21.1009 66.6211 21.1365 66.7477 21.1365ZM69.3347 20.0924V21.6691H68.5783V18.9419H69.2992V19.423H69.3312C69.3915 19.2644 69.4928 19.1389 69.6348 19.0466C69.7768 18.9531 69.9491 18.9063 70.1515 18.9063C70.3409 18.9063 70.506 18.9478 70.6469 19.0306C70.7877 19.1135 70.8972 19.2319 70.9754 19.3857C71.0535 19.5384 71.0925 19.7207 71.0925 19.9326V21.6691H70.3361V20.0676C70.3373 19.9007 70.2947 19.7705 70.2083 19.6769C70.1219 19.5822 70.0029 19.5349 69.8514 19.5349C69.7496 19.5349 69.6597 19.5568 69.5815 19.6006C69.5046 19.6444 69.4442 19.7083 69.4004 19.7924C69.3578 19.8752 69.3359 19.9752 69.3347 20.0924Z" fill="#951733"/>
<path d="M44.5397 13.8776V10.2412H45.9743C46.249 10.2412 46.4833 10.2903 46.6775 10.3886C46.8728 10.4856 47.0213 10.6235 47.1231 10.8023C47.2261 10.9798 47.2776 11.1888 47.2776 11.4291C47.2776 11.6705 47.2255 11.8783 47.1214 12.0523C47.0172 12.2251 46.8663 12.3577 46.6686 12.45C46.4721 12.5423 46.2342 12.5885 45.9548 12.5885H44.9942V11.9706H45.8305C45.9773 11.9706 46.0992 11.9505 46.1963 11.9102C46.2934 11.87 46.3656 11.8096 46.4129 11.7291C46.4614 11.6486 46.4857 11.5486 46.4857 11.4291C46.4857 11.3083 46.4614 11.2065 46.4129 11.1237C46.3656 11.0408 46.2928 10.9781 46.1945 10.9354C46.0974 10.8916 45.9749 10.8698 45.827 10.8698H45.3085V13.8776H44.5397ZM46.5035 12.2227L47.4072 13.8776H46.5585L45.6743 12.2227H46.5035ZM48.995 13.9308C48.7192 13.9308 48.4807 13.8722 48.2795 13.755C48.0794 13.6367 47.925 13.4721 47.8161 13.2614C47.7071 13.0496 47.6527 12.8039 47.6527 12.5246C47.6527 12.2429 47.7071 11.9966 47.8161 11.7859C47.925 11.5741 48.0794 11.4095 48.2795 11.2923C48.4807 11.174 48.7192 11.1148 48.995 11.1148C49.2708 11.1148 49.5088 11.174 49.7088 11.2923C49.91 11.4095 50.0651 11.5741 50.174 11.7859C50.2829 11.9966 50.3374 12.2429 50.3374 12.5246C50.3374 12.8039 50.2829 13.0496 50.174 13.2614C50.0651 13.4721 49.91 13.6367 49.7088 13.755C49.5088 13.8722 49.2708 13.9308 48.995 13.9308ZM48.9986 13.3449C49.1241 13.3449 49.2288 13.3094 49.3129 13.2384C49.3969 13.1662 49.4602 13.0679 49.5028 12.9436C49.5466 12.8193 49.5685 12.6779 49.5685 12.5193C49.5685 12.3606 49.5466 12.2192 49.5028 12.0949C49.4602 11.9706 49.3969 11.8724 49.3129 11.8001C49.2288 11.7279 49.1241 11.6918 48.9986 11.6918C48.8719 11.6918 48.7654 11.7279 48.679 11.8001C48.5938 11.8724 48.5292 11.9706 48.4854 12.0949C48.4428 12.2192 48.4215 12.3606 48.4215 12.5193C48.4215 12.6779 48.4428 12.8193 48.4854 12.9436C48.5292 13.0679 48.5938 13.1662 48.679 13.2384C48.7654 13.3094 48.8719 13.3449 48.9986 13.3449ZM50.8434 13.8776V10.2412H51.5998V11.6084H51.6229C51.656 11.535 51.704 11.4604 51.7667 11.3847C51.8306 11.3077 51.9135 11.2438 52.0153 11.1929C52.1183 11.1408 52.2461 11.1148 52.3988 11.1148C52.5977 11.1148 52.7811 11.1669 52.9492 11.271C53.1173 11.374 53.2517 11.5297 53.3523 11.738C53.4529 11.9452 53.5032 12.205 53.5032 12.5175C53.5032 12.8217 53.4541 13.0786 53.3558 13.2881C53.2588 13.4964 53.1262 13.6544 52.9581 13.7622C52.7912 13.8687 52.6042 13.922 52.397 13.922C52.2502 13.922 52.1254 13.8977 52.0224 13.8492C51.9206 13.8006 51.8371 13.7397 51.772 13.6663C51.7069 13.5917 51.6572 13.5165 51.6229 13.4408H51.5891V13.8776H50.8434ZM51.5838 12.5139C51.5838 12.6761 51.6063 12.8175 51.6513 12.9383C51.6963 13.059 51.7614 13.1531 51.8466 13.2206C51.9318 13.2869 52.0354 13.32 52.1573 13.32C52.2804 13.32 52.3846 13.2863 52.4698 13.2188C52.555 13.1502 52.6196 13.0555 52.6634 12.9347C52.7083 12.8128 52.7308 12.6725 52.7308 12.5139C52.7308 12.3565 52.7089 12.218 52.6651 12.0984C52.6213 11.9789 52.5568 11.8854 52.4716 11.8179C52.3864 11.7504 52.2816 11.7167 52.1573 11.7167C52.0342 11.7167 51.93 11.7492 51.8448 11.8144C51.7608 11.8795 51.6963 11.9718 51.6513 12.0913C51.6063 12.2109 51.5838 12.3518 51.5838 12.5139ZM55.2401 13.9308C54.9643 13.9308 54.7258 13.8722 54.5246 13.755C54.3245 13.6367 54.1701 13.4721 54.0612 13.2614C53.9523 13.0496 53.8978 12.8039 53.8978 12.5246C53.8978 12.2429 53.9523 11.9966 54.0612 11.7859C54.1701 11.5741 54.3245 11.4095 54.5246 11.2923C54.7258 11.174 54.9643 11.1148 55.2401 11.1148C55.516 11.1148 55.7539 11.174 55.9539 11.2923C56.1552 11.4095 56.3102 11.5741 56.4191 11.7859C56.528 11.9966 56.5825 12.2429 56.5825 12.5246C56.5825 12.8039 56.528 13.0496 56.4191 13.2614C56.3102 13.4721 56.1552 13.6367 55.9539 13.755C55.7539 13.8722 55.516 13.9308 55.2401 13.9308ZM55.2437 13.3449C55.3692 13.3449 55.4739 13.3094 55.558 13.2384C55.642 13.1662 55.7053 13.0679 55.748 12.9436C55.7918 12.8193 55.8137 12.6779 55.8137 12.5193C55.8137 12.3606 55.7918 12.2192 55.748 12.0949C55.7053 11.9706 55.642 11.8724 55.558 11.8001C55.4739 11.7279 55.3692 11.6918 55.2437 11.6918C55.117 11.6918 55.0105 11.7279 54.9241 11.8001C54.8389 11.8724 54.7744 11.9706 54.7306 12.0949C54.6879 12.2192 54.6666 12.3606 54.6666 12.5193C54.6666 12.6779 54.6879 12.8193 54.7306 12.9436C54.7744 13.0679 54.8389 13.1662 54.9241 13.2384C55.0105 13.3094 55.117 13.3449 55.2437 13.3449ZM58.5249 11.1503V11.7185H56.8825V11.1503H58.5249ZM57.2554 10.4969H58.0118V13.0395C58.0118 13.1093 58.0225 13.1638 58.0438 13.2028C58.0651 13.2407 58.0947 13.2674 58.1325 13.2827C58.1716 13.2981 58.2166 13.3058 58.2675 13.3058C58.303 13.3058 58.3385 13.3029 58.374 13.297C58.4095 13.2899 58.4368 13.2845 58.4557 13.281L58.5747 13.8438C58.5368 13.8557 58.4835 13.8693 58.4149 13.8847C58.3462 13.9012 58.2628 13.9113 58.1645 13.9149C57.9822 13.922 57.8224 13.8977 57.6851 13.8421C57.549 13.7864 57.443 13.7 57.3673 13.5828C57.2915 13.4656 57.2542 13.3177 57.2554 13.1389V10.4969ZM59.0177 13.8776V11.1503H59.7741V13.8776H59.0177ZM59.3976 10.7987C59.2852 10.7987 59.1887 10.7614 59.1082 10.6869C59.0289 10.6111 58.9893 10.5206 58.9893 10.4152C58.9893 10.311 59.0289 10.2217 59.1082 10.1471C59.1887 10.0713 59.2852 10.0335 59.3976 10.0335C59.5101 10.0335 59.606 10.0713 59.6853 10.1471C59.7658 10.2217 59.806 10.311 59.806 10.4152C59.806 10.5206 59.7658 10.6111 59.6853 10.6869C59.606 10.7614 59.5101 10.7987 59.3976 10.7987ZM61.6122 13.9308C61.3329 13.9308 61.0926 13.8716 60.8913 13.7533C60.6913 13.6337 60.5374 13.468 60.4297 13.2561C60.3232 13.0442 60.2699 12.8004 60.2699 12.5246C60.2699 12.2452 60.3237 12.0002 60.4315 11.7895C60.5404 11.5776 60.6948 11.4125 60.8949 11.2941C61.0949 11.1746 61.3329 11.1148 61.6087 11.1148C61.8466 11.1148 62.0549 11.158 62.2337 11.2444C62.4124 11.3308 62.5539 11.4521 62.658 11.6084C62.7622 11.7646 62.8196 11.9481 62.8303 12.1588H62.1165C62.0964 12.0227 62.0431 11.9132 61.9567 11.8303C61.8714 11.7463 61.7596 11.7043 61.6211 11.7043C61.5039 11.7043 61.4015 11.7362 61.3139 11.8001C61.2275 11.8629 61.16 11.9546 61.1115 12.0754C61.063 12.1961 61.0387 12.3423 61.0387 12.5139C61.0387 12.6879 61.0624 12.8359 61.1097 12.9578C61.1583 13.0797 61.2263 13.1727 61.3139 13.2366C61.4015 13.3005 61.5039 13.3325 61.6211 13.3325C61.7075 13.3325 61.785 13.3147 61.8537 13.2792C61.9235 13.2437 61.9809 13.1922 62.0259 13.1247C62.0721 13.0561 62.1023 12.9738 62.1165 12.8779H62.8303C62.8184 13.0863 62.7616 13.2697 62.6598 13.4283C62.5592 13.5858 62.4201 13.7089 62.2425 13.7977C62.065 13.8864 61.8549 13.9308 61.6122 13.9308ZM65.5837 11.928L64.8912 11.9706C64.8794 11.9114 64.854 11.8582 64.8149 11.8108C64.7758 11.7623 64.7243 11.7238 64.6604 11.6954C64.5977 11.6658 64.5225 11.651 64.4349 11.651C64.3177 11.651 64.2189 11.6759 64.1384 11.7256C64.0579 11.7741 64.0177 11.8392 64.0177 11.9209C64.0177 11.986 64.0437 12.041 64.0958 12.086C64.1479 12.131 64.2372 12.1671 64.3639 12.1943L64.8575 12.2938C65.1227 12.3482 65.3203 12.4358 65.4506 12.5565C65.5808 12.6773 65.6459 12.8359 65.6459 13.0324C65.6459 13.2111 65.5932 13.368 65.4878 13.5029C65.3837 13.6379 65.2404 13.7432 65.0581 13.819C64.877 13.8935 64.6681 13.9308 64.4314 13.9308C64.0703 13.9308 63.7827 13.8557 63.5684 13.7053C63.3554 13.5538 63.2305 13.3479 63.1938 13.0874L63.9378 13.0484C63.9603 13.1585 64.0147 13.2425 64.1011 13.3005C64.1875 13.3573 64.2982 13.3857 64.4331 13.3857C64.5657 13.3857 64.6723 13.3603 64.7528 13.3094C64.8344 13.2573 64.8759 13.1904 64.877 13.1087C64.8759 13.0401 64.8469 12.9839 64.79 12.9401C64.7332 12.8951 64.6456 12.8608 64.5273 12.8371L64.055 12.743C63.7886 12.6897 63.5903 12.5974 63.4601 12.466C63.3311 12.3346 63.2666 12.1671 63.2666 11.9635C63.2666 11.7883 63.314 11.6374 63.4086 11.5107C63.5045 11.3841 63.6389 11.2864 63.8117 11.2178C63.9857 11.1491 64.1893 11.1148 64.4225 11.1148C64.767 11.1148 65.038 11.1876 65.2357 11.3332C65.4346 11.4788 65.5506 11.677 65.5837 11.928ZM68.3944 13.9308C68.1435 13.9308 67.9269 13.8858 67.7446 13.7959C67.5623 13.7059 67.422 13.584 67.3238 13.4301C67.2267 13.2751 67.1782 13.1022 67.1782 12.9117C67.1782 12.7696 67.2066 12.6435 67.2634 12.5335C67.3202 12.4234 67.3995 12.3222 67.5013 12.2298C67.6031 12.1363 67.7215 12.0434 67.8564 11.9511L68.5613 11.4876C68.6525 11.4296 68.7194 11.3687 68.762 11.3048C68.8046 11.2397 68.8259 11.1692 68.8259 11.0935C68.8259 11.0213 68.7969 10.9544 68.7389 10.8928C68.6809 10.8313 68.5986 10.8011 68.4921 10.8023C68.4211 10.8023 68.3595 10.8183 68.3074 10.8502C68.2554 10.881 68.2145 10.9218 68.1849 10.9727C68.1565 11.0224 68.1423 11.0781 68.1423 11.1396C68.1423 11.2154 68.1636 11.2923 68.2062 11.3705C68.2488 11.4486 68.3057 11.5314 68.3767 11.619C68.4477 11.7055 68.5252 11.799 68.6093 11.8996L70.3334 13.8776H69.545L68.1068 12.276C68.0121 12.1683 67.9174 12.0558 67.8227 11.9386C67.7292 11.8203 67.6511 11.6948 67.5883 11.5622C67.5256 11.4285 67.4942 11.2835 67.4942 11.1272C67.4942 10.9508 67.5351 10.7922 67.6167 10.6514C67.6996 10.5105 67.8156 10.3992 67.9648 10.3175C68.1139 10.2347 68.2879 10.1933 68.4868 10.1933C68.6809 10.1933 68.8484 10.2329 68.9893 10.3122C69.1313 10.3903 69.2402 10.4945 69.316 10.6247C69.3929 10.7537 69.4314 10.8958 69.4314 11.0509C69.4314 11.2225 69.3888 11.3782 69.3035 11.5178C69.2195 11.6563 69.1011 11.7806 68.9484 11.8907L68.2062 12.4251C68.1056 12.4985 68.031 12.5737 67.9825 12.6506C67.9352 12.7264 67.9115 12.7992 67.9115 12.869C67.9115 12.9555 67.9328 13.033 67.9754 13.1016C68.018 13.1703 68.0784 13.2247 68.1565 13.265C68.2346 13.3041 68.3264 13.3236 68.4317 13.3236C68.5596 13.3236 68.6856 13.2946 68.8099 13.2366C68.9354 13.1774 69.049 13.0939 69.1508 12.9862C69.2538 12.8773 69.3361 12.7483 69.3976 12.5992C69.4592 12.45 69.49 12.2849 69.49 12.1038H70.1167C70.1167 12.3263 70.0925 12.5269 70.0439 12.7057C69.9954 12.8832 69.9279 13.0383 69.8415 13.1709C69.7551 13.3023 69.6563 13.41 69.545 13.494C69.5095 13.5165 69.4752 13.5378 69.442 13.558C69.4089 13.5781 69.3746 13.5994 69.339 13.6219C69.2041 13.7308 69.0532 13.8095 68.8863 13.858C68.7206 13.9066 68.5566 13.9308 68.3944 13.9308Z" fill="#951733"/>
<path d="M0.880682 37.3959V41.0323H0.440341V37.3959H0.880682ZM3.75222 38.305C3.73091 38.1251 3.6445 37.9854 3.49299 37.886C3.34147 37.7865 3.15563 37.7368 2.93546 37.7368C2.77447 37.7368 2.63361 37.7629 2.51287 37.815C2.39332 37.867 2.2998 37.9387 2.23233 38.0298C2.16605 38.1209 2.1329 38.2245 2.1329 38.3405C2.1329 38.4376 2.15598 38.521 2.20215 38.5909C2.2495 38.6595 2.30987 38.7169 2.38326 38.7631C2.45665 38.8081 2.53359 38.8454 2.61408 38.875C2.69457 38.9034 2.76855 38.9265 2.83603 38.9442L3.20534 39.0437C3.30004 39.0685 3.40539 39.1028 3.5214 39.1466C3.63858 39.1904 3.75044 39.2502 3.85698 39.326C3.9647 39.4005 4.05347 39.4964 4.12331 39.6136C4.19315 39.7308 4.22807 39.8746 4.22807 40.0451C4.22807 40.2416 4.17658 40.4191 4.0736 40.5777C3.9718 40.7364 3.82265 40.8624 3.62615 40.9559C3.43084 41.0495 3.19351 41.0962 2.91415 41.0962C2.65373 41.0962 2.42824 41.0542 2.23766 40.9701C2.04827 40.8861 1.89912 40.7689 1.79022 40.6186C1.6825 40.4682 1.62154 40.2937 1.60733 40.0948H2.06188C2.07372 40.2321 2.11988 40.3457 2.20037 40.4357C2.28205 40.5245 2.38503 40.5908 2.50932 40.6346C2.6348 40.6772 2.76974 40.6985 2.91415 40.6985C3.08224 40.6985 3.23316 40.6713 3.36692 40.6168C3.50068 40.5612 3.60662 40.4842 3.68475 40.386C3.76287 40.2865 3.80194 40.1705 3.80194 40.038C3.80194 39.9172 3.7682 39.819 3.70073 39.7432C3.63326 39.6675 3.54448 39.6059 3.43439 39.5586C3.32431 39.5112 3.20534 39.4698 3.0775 39.4343L2.63006 39.3064C2.34597 39.2248 2.12106 39.1082 1.95534 38.9566C1.78962 38.8051 1.70676 38.6069 1.70676 38.3618C1.70676 38.1582 1.76181 37.9807 1.87189 37.8292C1.98316 37.6765 2.13231 37.5581 2.31934 37.474C2.50755 37.3888 2.71766 37.3462 2.94966 37.3462C3.18404 37.3462 3.39237 37.3882 3.57466 37.4723C3.75695 37.5551 3.90137 37.6688 4.0079 37.8132C4.11562 37.9576 4.17244 38.1215 4.17836 38.305H3.75222ZM5.3924 37.3959V41.0323H4.95206V37.3959H5.3924ZM6.2753 37.3959H6.80087L8.03667 40.4144H8.07928L9.31507 37.3959H9.84064V41.0323H9.42871V38.2695H9.3932L8.25684 41.0323H7.85911L6.72275 38.2695H6.68723V41.0323H6.2753V37.3959ZM12.7122 38.305C12.6909 38.1251 12.6045 37.9854 12.4529 37.886C12.3014 37.7865 12.1156 37.7368 11.8954 37.7368C11.7344 37.7368 11.5936 37.7629 11.4728 37.815C11.3533 37.867 11.2598 37.9387 11.1923 38.0298C11.126 38.1209 11.0929 38.2245 11.0929 38.3405C11.0929 38.4376 11.1159 38.521 11.1621 38.5909C11.2095 38.6595 11.2698 38.7169 11.3432 38.7631C11.4166 38.8081 11.4935 38.8454 11.574 38.875C11.6545 38.9034 11.7285 38.9265 11.796 38.9442L12.1653 39.0437C12.26 39.0685 12.3654 39.1028 12.4814 39.1466C12.5985 39.1904 12.7104 39.2502 12.8169 39.326C12.9247 39.4005 13.0134 39.4964 13.0833 39.6136C13.1531 39.7308 13.188 39.8746 13.188 40.0451C13.188 40.2416 13.1365 40.4191 13.0336 40.5777C12.9318 40.7364 12.7826 40.8624 12.5861 40.9559C12.3908 41.0495 12.1535 41.0962 11.8741 41.0962C11.6137 41.0962 11.3882 41.0542 11.1976 40.9701C11.0082 40.8861 10.8591 40.7689 10.7502 40.6186C10.6425 40.4682 10.5815 40.2937 10.5673 40.0948H11.0218C11.0337 40.2321 11.0798 40.3457 11.1603 40.4357C11.242 40.5245 11.345 40.5908 11.4693 40.6346C11.5948 40.6772 11.7297 40.6985 11.8741 40.6985C12.0422 40.6985 12.1931 40.6713 12.3269 40.6168C12.4606 40.5612 12.5666 40.4842 12.6447 40.386C12.7228 40.2865 12.7619 40.1705 12.7619 40.038C12.7619 39.9172 12.7282 39.819 12.6607 39.7432C12.5932 39.6675 12.5044 39.6059 12.3944 39.5586C12.2843 39.5112 12.1653 39.4698 12.0375 39.4343L11.59 39.3064C11.3059 39.2248 11.081 39.1082 10.9153 38.9566C10.7496 38.8051 10.6667 38.6069 10.6667 38.3618C10.6667 38.1582 10.7218 37.9807 10.8319 37.8292C10.9431 37.6765 11.0923 37.5581 11.2793 37.474C11.4675 37.3888 11.6776 37.3462 11.9096 37.3462C12.144 37.3462 12.3523 37.3882 12.5346 37.4723C12.7169 37.5551 12.8613 37.6688 12.9679 37.8132C13.0756 37.9576 13.1324 38.1215 13.1383 38.305H12.7122Z" fill="#5B2466"/>
<path d="M17.3069 38.305C17.2856 38.1251 17.1992 37.9854 17.0477 37.886C16.8962 37.7865 16.7103 37.7368 16.4901 37.7368C16.3292 37.7368 16.1883 37.7629 16.0676 37.815C15.948 37.867 15.8545 37.9387 15.787 38.0298C15.7207 38.1209 15.6876 38.2245 15.6876 38.3405C15.6876 38.4376 15.7107 38.521 15.7568 38.5909C15.8042 38.6595 15.8646 38.7169 15.9379 38.7631C16.0113 38.8081 16.0883 38.8454 16.1688 38.875C16.2493 38.9034 16.3232 38.9265 16.3907 38.9442L16.76 39.0437C16.8547 39.0685 16.9601 39.1028 17.0761 39.1466C17.1933 39.1904 17.3051 39.2502 17.4117 39.326C17.5194 39.4005 17.6082 39.4964 17.678 39.6136C17.7478 39.7308 17.7828 39.8746 17.7828 40.0451C17.7828 40.2416 17.7313 40.4191 17.6283 40.5777C17.5265 40.7364 17.3773 40.8624 17.1808 40.9559C16.9855 41.0495 16.7482 41.0962 16.4688 41.0962C16.2084 41.0962 15.9829 41.0542 15.7923 40.9701C15.603 40.8861 15.4538 40.7689 15.3449 40.6186C15.2372 40.4682 15.1762 40.2937 15.162 40.0948H15.6166C15.6284 40.2321 15.6746 40.3457 15.7551 40.4357C15.8367 40.5245 15.9397 40.5908 16.064 40.6346C16.1895 40.6772 16.3244 40.6985 16.4688 40.6985C16.6369 40.6985 16.7878 40.6713 16.9216 40.6168C17.0554 40.5612 17.1613 40.4842 17.2394 40.386C17.3176 40.2865 17.3566 40.1705 17.3566 40.038C17.3566 39.9172 17.3229 39.819 17.2554 39.7432C17.1879 39.6675 17.0992 39.6059 16.9891 39.5586C16.879 39.5112 16.76 39.4698 16.6322 39.4343L16.1847 39.3064C15.9007 39.2248 15.6758 39.1082 15.51 38.9566C15.3443 38.8051 15.2615 38.6069 15.2615 38.3618C15.2615 38.1582 15.3165 37.9807 15.4266 37.8292C15.5378 37.6765 15.687 37.5581 15.874 37.474C16.0622 37.3888 16.2723 37.3462 16.5044 37.3462C16.7387 37.3462 16.9471 37.3882 17.1294 37.4723C17.3116 37.5551 17.4561 37.6688 17.5626 37.8132C17.6703 37.9576 17.7271 38.1215 17.733 38.305H17.3069ZM19.636 38.305V38.6601H18.2227V38.305H19.636ZM18.6346 37.6516H19.0536V40.251C19.0536 40.3694 19.0708 40.4582 19.1051 40.5174C19.1406 40.5754 19.1856 40.6144 19.2401 40.6346C19.2957 40.6535 19.3543 40.663 19.4158 40.663C19.462 40.663 19.4999 40.6606 19.5295 40.6559C19.5591 40.6499 19.5827 40.6452 19.6005 40.6417L19.6857 41.0181C19.6573 41.0287 19.6177 41.0394 19.5668 41.05C19.5159 41.0619 19.4513 41.0678 19.3732 41.0678C19.2549 41.0678 19.1388 41.0423 19.0252 40.9914C18.9128 40.9405 18.8192 40.863 18.7447 40.7589C18.6713 40.6547 18.6346 40.5233 18.6346 40.3647V37.6516ZM21.9851 39.9172V38.305H22.4041V41.0323H21.9851V40.5706H21.9567C21.8928 40.7091 21.7933 40.8269 21.6584 40.924C21.5234 41.0199 21.353 41.0678 21.147 41.0678C20.9766 41.0678 20.825 41.0305 20.6925 40.9559C20.5599 40.8802 20.4557 40.7665 20.38 40.615C20.3042 40.4623 20.2663 40.27 20.2663 40.038V38.305H20.6854V40.0096C20.6854 40.2084 20.741 40.367 20.8523 40.4854C20.9647 40.6038 21.108 40.663 21.282 40.663C21.3861 40.663 21.4921 40.6363 21.5998 40.5831C21.7087 40.5298 21.7998 40.4481 21.8732 40.338C21.9478 40.228 21.9851 40.0877 21.9851 39.9172ZM24.2014 41.0891C23.9742 41.0891 23.7735 41.0317 23.5995 40.9169C23.4255 40.8009 23.2894 40.6375 23.1911 40.4268C23.0929 40.2149 23.0438 39.9646 23.0438 39.6758C23.0438 39.3893 23.0929 39.1407 23.1911 38.93C23.2894 38.7193 23.4261 38.5566 23.6013 38.4417C23.7765 38.3269 23.9789 38.2695 24.2085 38.2695C24.3861 38.2695 24.5264 38.2991 24.6294 38.3583C24.7335 38.4163 24.8128 38.4826 24.8673 38.5571C24.9229 38.6305 24.9661 38.6909 24.9969 38.7383H25.0324V37.3959H25.4514V41.0323H25.0466V40.6133H24.9969C24.9661 40.663 24.9223 40.7257 24.8655 40.8015C24.8087 40.876 24.7276 40.9429 24.6222 41.0021C24.5169 41.0601 24.3766 41.0891 24.2014 41.0891ZM24.2583 40.7127C24.4263 40.7127 24.5684 40.6689 24.6844 40.5813C24.8004 40.4925 24.8886 40.37 24.949 40.2138C25.0093 40.0563 25.0395 39.8746 25.0395 39.6687C25.0395 39.4651 25.0099 39.2869 24.9507 39.1342C24.8915 38.9803 24.8039 38.8608 24.6879 38.7755C24.5719 38.6891 24.4287 38.6459 24.2583 38.6459C24.0807 38.6459 23.9327 38.6915 23.8144 38.7826C23.6972 38.8726 23.609 38.9951 23.5498 39.1502C23.4918 39.3041 23.4628 39.4769 23.4628 39.6687C23.4628 39.8628 23.4924 40.0392 23.5516 40.1978C23.6119 40.3552 23.7007 40.4807 23.8179 40.5742C23.9363 40.6665 24.0831 40.7127 24.2583 40.7127ZM27.4205 41.0891C27.1578 41.0891 26.9311 41.0311 26.7405 40.9151C26.5511 40.7979 26.4049 40.6346 26.3019 40.425C26.2001 40.2143 26.1492 39.9693 26.1492 39.69C26.1492 39.4106 26.2001 39.1644 26.3019 38.9513C26.4049 38.7371 26.5481 38.5702 26.7316 38.4506C26.9163 38.3299 27.1317 38.2695 27.3779 38.2695C27.52 38.2695 27.6602 38.2932 27.7987 38.3405C27.9372 38.3879 28.0633 38.4648 28.1769 38.5714C28.2906 38.6767 28.3811 38.8164 28.4486 38.9904C28.5161 39.1644 28.5498 39.3786 28.5498 39.6331V39.8107H26.4475V39.4485H28.1237C28.1237 39.2946 28.0929 39.1573 28.0313 39.0365C27.971 38.9158 27.8846 38.8205 27.7721 38.7507C27.6608 38.6808 27.5294 38.6459 27.3779 38.6459C27.211 38.6459 27.0666 38.6874 26.9447 38.7702C26.824 38.8519 26.731 38.9584 26.6659 39.0898C26.6008 39.2212 26.5683 39.3621 26.5683 39.5124V39.7539C26.5683 39.9598 26.6038 40.1344 26.6748 40.2777C26.747 40.4197 26.847 40.528 26.9749 40.6026C27.1027 40.676 27.2513 40.7127 27.4205 40.7127C27.5306 40.7127 27.6301 40.6973 27.7188 40.6665C27.8088 40.6346 27.8863 40.5872 27.9514 40.5245C28.0165 40.4606 28.0669 40.3812 28.1024 40.2865L28.5072 40.4002C28.4646 40.5375 28.393 40.6582 28.2923 40.7624C28.1917 40.8654 28.0674 40.9459 27.9195 41.0039C27.7715 41.0607 27.6052 41.0891 27.4205 41.0891ZM29.6063 39.3917V41.0323H29.1872V38.305H29.5921V38.7312H29.6276C29.6915 38.5927 29.7886 38.4814 29.9188 38.3973C30.049 38.3121 30.2171 38.2695 30.423 38.2695C30.6077 38.2695 30.7693 38.3074 30.9078 38.3831C31.0463 38.4577 31.154 38.5714 31.2309 38.724C31.3079 38.8756 31.3463 39.0673 31.3463 39.2993V41.0323H30.9273V39.3277C30.9273 39.1135 30.8717 38.9466 30.7604 38.827C30.6491 38.7063 30.4964 38.6459 30.3023 38.6459C30.1685 38.6459 30.049 38.6749 29.9436 38.7329C29.8395 38.7909 29.7572 38.8756 29.6968 38.9868C29.6365 39.0981 29.6063 39.233 29.6063 39.3917ZM33.2981 38.305V38.6601H31.8848V38.305H33.2981ZM32.2967 37.6516H32.7157V40.251C32.7157 40.3694 32.7329 40.4582 32.7672 40.5174C32.8027 40.5754 32.8477 40.6144 32.9022 40.6346C32.9578 40.6535 33.0164 40.663 33.0779 40.663C33.1241 40.663 33.162 40.6606 33.1916 40.6559C33.2212 40.6499 33.2449 40.6452 33.2626 40.6417L33.3478 41.0181C33.3194 41.0287 33.2798 41.0394 33.2289 41.05C33.178 41.0619 33.1135 41.0678 33.0353 41.0678C32.917 41.0678 32.801 41.0423 32.6873 40.9914C32.5749 40.9405 32.4814 40.863 32.4068 40.7589C32.3334 40.6547 32.2967 40.5233 32.2967 40.3647V37.6516ZM35.3915 41.0323V37.3959H36.6628C36.9161 37.3959 37.1251 37.4397 37.2896 37.5273C37.4541 37.6137 37.5766 37.7303 37.6571 37.8771C37.7376 38.0227 37.7779 38.1843 37.7779 38.3618C37.7779 38.5181 37.7501 38.6471 37.6944 38.7489C37.64 38.8507 37.5678 38.9312 37.4778 38.9904C37.389 39.0496 37.2926 39.0934 37.1884 39.1218V39.1573C37.2997 39.1644 37.4115 39.2035 37.524 39.2745C37.6364 39.3455 37.7305 39.4473 37.8063 39.5799C37.882 39.7124 37.9199 39.8746 37.9199 40.0664C37.9199 40.2487 37.8785 40.4126 37.7956 40.5582C37.7128 40.7038 37.582 40.8192 37.4032 40.9044C37.2245 40.9897 36.9919 41.0323 36.7054 41.0323H35.3915ZM35.8319 40.6417H36.7054C36.9931 40.6417 37.1973 40.586 37.318 40.4748C37.4399 40.3623 37.5009 40.2262 37.5009 40.0664C37.5009 39.9433 37.4695 39.8296 37.4068 39.7255C37.344 39.6201 37.2547 39.5361 37.1387 39.4733C37.0227 39.4094 36.8854 39.3775 36.7267 39.3775H35.8319V40.6417ZM35.8319 38.9939H36.6486C36.7812 38.9939 36.9007 38.9679 37.0073 38.9158C37.115 38.8637 37.2002 38.7903 37.263 38.6956C37.3269 38.6009 37.3588 38.4897 37.3588 38.3618C37.3588 38.202 37.3032 38.0665 37.1919 37.9552C37.0807 37.8428 36.9043 37.7865 36.6628 37.7865H35.8319V38.9939ZM38.5866 41.0323V38.305H38.9915V38.7169H39.0199C39.0696 38.582 39.1596 38.4725 39.2898 38.3885C39.42 38.3044 39.5668 38.2624 39.7301 38.2624C39.7609 38.2624 39.7994 38.263 39.8455 38.2642C39.8917 38.2654 39.9266 38.2671 39.9503 38.2695V38.6956C39.9361 38.6921 39.9035 38.6868 39.8526 38.6797C39.8029 38.6714 39.7502 38.6672 39.6946 38.6672C39.562 38.6672 39.4437 38.695 39.3395 38.7507C39.2365 38.8051 39.1548 38.8809 39.0945 38.978C39.0353 39.0738 39.0057 39.1833 39.0057 39.3064V41.0323H38.5866ZM41.2496 41.0962C41.0767 41.0962 40.9199 41.0637 40.779 40.9986C40.6382 40.9323 40.5263 40.837 40.4434 40.7127C40.3606 40.5872 40.3192 40.4357 40.3192 40.2581C40.3192 40.1019 40.3499 39.9752 40.4115 39.8782C40.473 39.7799 40.5553 39.703 40.6583 39.6473C40.7613 39.5917 40.8749 39.5503 40.9992 39.5231C41.1247 39.4946 41.2507 39.4722 41.3774 39.4556C41.5431 39.4343 41.6775 39.4183 41.7805 39.4076C41.8846 39.3958 41.9604 39.3763 42.0077 39.349C42.0563 39.3218 42.0805 39.2745 42.0805 39.207V39.1928C42.0805 39.0176 42.0326 38.8815 41.9367 38.7844C41.842 38.6874 41.6982 38.6388 41.5052 38.6388C41.3052 38.6388 41.1483 38.6826 41.0347 38.7702C40.9211 38.8578 40.8412 38.9513 40.795 39.0508L40.3973 38.9087C40.4683 38.743 40.563 38.614 40.6814 38.5216C40.8009 38.4281 40.9311 38.363 41.072 38.3263C41.214 38.2884 41.3537 38.2695 41.491 38.2695C41.5786 38.2695 41.6792 38.2802 41.7929 38.3015C41.9077 38.3216 42.0184 38.3636 42.1249 38.4275C42.2326 38.4914 42.322 38.5879 42.393 38.7169C42.464 38.846 42.4996 39.0188 42.4996 39.2354V41.0323H42.0805V40.663H42.0592C42.0308 40.7222 41.9835 40.7855 41.9172 40.853C41.8509 40.9204 41.7627 40.9778 41.6526 41.0252C41.5425 41.0725 41.4082 41.0962 41.2496 41.0962ZM41.3135 40.7198C41.4792 40.7198 41.6189 40.6872 41.7325 40.6221C41.8473 40.557 41.9337 40.473 41.9917 40.37C42.0509 40.267 42.0805 40.1587 42.0805 40.0451V39.6615C42.0628 39.6829 42.0237 39.7024 41.9633 39.7201C41.9041 39.7367 41.8355 39.7515 41.7574 39.7645C41.6804 39.7764 41.6053 39.787 41.5319 39.7965C41.4597 39.8048 41.4011 39.8119 41.3561 39.8178C41.2472 39.832 41.1454 39.8551 41.0507 39.887C40.9572 39.9178 40.8814 39.9646 40.8234 40.0273C40.7666 40.0889 40.7382 40.1729 40.7382 40.2794C40.7382 40.425 40.7921 40.5351 40.8998 40.6097C41.0087 40.6831 41.1466 40.7198 41.3135 40.7198ZM43.6834 39.3917V41.0323H43.2644V38.305H43.6692V38.7312H43.7047C43.7686 38.5927 43.8657 38.4814 43.9959 38.3973C44.1261 38.3121 44.2942 38.2695 44.5002 38.2695C44.6848 38.2695 44.8464 38.3074 44.9849 38.3831C45.1234 38.4577 45.2311 38.5714 45.3081 38.724C45.385 38.8756 45.4235 39.0673 45.4235 39.2993V41.0323H45.0044V39.3277C45.0044 39.1135 44.9488 38.9466 44.8375 38.827C44.7263 38.7063 44.5736 38.6459 44.3794 38.6459C44.2457 38.6459 44.1261 38.6749 44.0208 38.7329C43.9166 38.7909 43.8343 38.8756 43.774 38.9868C43.7136 39.0981 43.6834 39.233 43.6834 39.3917ZM47.2971 41.0891C47.0415 41.0891 46.8213 41.0287 46.6366 40.908C46.452 40.7873 46.3099 40.6209 46.2105 40.4091C46.1111 40.1972 46.0613 39.9551 46.0613 39.6829C46.0613 39.4059 46.1122 39.1614 46.214 38.9495C46.317 38.7365 46.4603 38.5702 46.6437 38.4506C46.8284 38.3299 47.0438 38.2695 47.29 38.2695C47.4818 38.2695 47.6546 38.305 47.8085 38.376C47.9624 38.4471 48.0885 38.5465 48.1867 38.6743C48.2849 38.8022 48.3459 38.9513 48.3696 39.1218H47.9506C47.9186 38.9975 47.8476 38.8874 47.7375 38.7915C47.6286 38.6945 47.4818 38.6459 47.2971 38.6459C47.1338 38.6459 46.9906 38.6885 46.8675 38.7738C46.7455 38.8578 46.6502 38.9768 46.5816 39.1307C46.5141 39.2834 46.4804 39.4627 46.4804 39.6687C46.4804 39.8794 46.5135 40.0628 46.5798 40.2191C46.6473 40.3753 46.742 40.4967 46.8639 40.5831C46.987 40.6695 47.1314 40.7127 47.2971 40.7127C47.406 40.7127 47.5049 40.6937 47.5937 40.6559C47.6824 40.618 47.7576 40.5635 47.8192 40.4925C47.8807 40.4215 47.9245 40.3363 47.9506 40.2368H48.3696C48.3459 40.3978 48.2873 40.5428 48.1938 40.6718C48.1015 40.7997 47.979 40.9015 47.8263 40.9772C47.6747 41.0518 47.4984 41.0891 47.2971 41.0891ZM49.4012 39.3917V41.0323H48.9822V37.3959H49.4012V38.7312H49.4367C49.5006 38.5903 49.5965 38.4784 49.7243 38.3956C49.8534 38.3115 50.025 38.2695 50.2393 38.2695C50.4251 38.2695 50.5879 38.3068 50.7275 38.3814C50.8672 38.4548 50.9755 38.5678 51.0525 38.7205C51.1306 38.872 51.1697 39.065 51.1697 39.2993V41.0323H50.7506V39.3277C50.7506 39.1111 50.6944 38.9436 50.5819 38.8253C50.4707 38.7057 50.3162 38.6459 50.1185 38.6459C49.9812 38.6459 49.8581 38.6749 49.7492 38.7329C49.6415 38.7909 49.5563 38.8756 49.4935 38.9868C49.432 39.0981 49.4012 39.233 49.4012 39.3917ZM56.3255 38.5323H55.8851C55.8591 38.4056 55.8135 38.2944 55.7484 38.1985C55.6845 38.1026 55.6064 38.0221 55.514 37.957C55.4229 37.8907 55.3217 37.841 55.2104 37.8079C55.0991 37.7747 54.9831 37.7581 54.8624 37.7581C54.6422 37.7581 54.4428 37.8138 54.264 37.925C54.0865 38.0363 53.945 38.2003 53.8397 38.4169C53.7355 38.6335 53.6834 38.8992 53.6834 39.2141C53.6834 39.529 53.7355 39.7947 53.8397 40.0113C53.945 40.228 54.0865 40.3919 54.264 40.5032C54.4428 40.6144 54.6422 40.6701 54.8624 40.6701C54.9831 40.6701 55.0991 40.6535 55.2104 40.6204C55.3217 40.5872 55.4229 40.5381 55.514 40.473C55.6064 40.4067 55.6845 40.3256 55.7484 40.2297C55.8135 40.1327 55.8591 40.0214 55.8851 39.8959H56.3255C56.2923 40.0818 56.2319 40.2481 56.1444 40.3949C56.0568 40.5416 55.9479 40.6665 55.8176 40.7695C55.6874 40.8713 55.5413 40.9488 55.3791 41.0021C55.2181 41.0554 55.0459 41.082 54.8624 41.082C54.5523 41.082 54.2765 41.0062 54.035 40.8547C53.7935 40.7032 53.6035 40.4878 53.465 40.2084C53.3265 39.9291 53.2573 39.5976 53.2573 39.2141C53.2573 38.8306 53.3265 38.4991 53.465 38.2198C53.6035 37.9404 53.7935 37.725 54.035 37.5735C54.2765 37.422 54.5523 37.3462 54.8624 37.3462C55.0459 37.3462 55.2181 37.3728 55.3791 37.4261C55.5413 37.4794 55.6874 37.5575 55.8176 37.6605C55.9479 37.7623 56.0568 37.8866 56.1444 38.0334C56.2319 38.1789 56.2923 38.3453 56.3255 38.5323ZM57.3992 39.3917V41.0323H56.9802V37.3959H57.3992V38.7312H57.4347C57.4987 38.5903 57.5945 38.4784 57.7224 38.3956C57.8514 38.3115 58.0231 38.2695 58.2373 38.2695C58.4231 38.2695 58.5859 38.3068 58.7256 38.3814C58.8653 38.4548 58.9736 38.5678 59.0505 38.7205C59.1286 38.872 59.1677 39.065 59.1677 39.2993V41.0323H58.7487V39.3277C58.7487 39.1111 58.6924 38.9436 58.58 38.8253C58.4687 38.7057 58.3142 38.6459 58.1166 38.6459C57.9793 38.6459 57.8561 38.6749 57.7472 38.7329C57.6395 38.7909 57.5543 38.8756 57.4916 38.9868C57.43 39.0981 57.3992 39.233 57.3992 39.3917ZM60.7369 41.0962C60.564 41.0962 60.4072 41.0637 60.2663 40.9986C60.1255 40.9323 60.0136 40.837 59.9308 40.7127C59.8479 40.5872 59.8065 40.4357 59.8065 40.2581C59.8065 40.1019 59.8372 39.9752 59.8988 39.8782C59.9603 39.7799 60.0426 39.703 60.1456 39.6473C60.2486 39.5917 60.3622 39.5503 60.4865 39.5231C60.612 39.4946 60.738 39.4722 60.8647 39.4556C61.0304 39.4343 61.1648 39.4183 61.2678 39.4076C61.3719 39.3958 61.4477 39.3763 61.495 39.349C61.5436 39.3218 61.5678 39.2745 61.5678 39.207V39.1928C61.5678 39.0176 61.5199 38.8815 61.424 38.7844C61.3293 38.6874 61.1855 38.6388 60.9925 38.6388C60.7925 38.6388 60.6357 38.6826 60.522 38.7702C60.4084 38.8578 60.3285 38.9513 60.2823 39.0508L59.8846 38.9087C59.9556 38.743 60.0503 38.614 60.1687 38.5216C60.2882 38.4281 60.4184 38.363 60.5593 38.3263C60.7013 38.2884 60.841 38.2695 60.9783 38.2695C61.0659 38.2695 61.1665 38.2802 61.2802 38.3015C61.395 38.3216 61.5057 38.3636 61.6122 38.4275C61.7199 38.4914 61.8093 38.5879 61.8803 38.7169C61.9513 38.846 61.9869 39.0188 61.9869 39.2354V41.0323H61.5678V40.663H61.5465C61.5181 40.7222 61.4708 40.7855 61.4045 40.853C61.3382 40.9204 61.25 40.9778 61.1399 41.0252C61.0298 41.0725 60.8955 41.0962 60.7369 41.0962ZM60.8008 40.7198C60.9665 40.7198 61.1062 40.6872 61.2198 40.6221C61.3346 40.557 61.421 40.473 61.479 40.37C61.5382 40.267 61.5678 40.1587 61.5678 40.0451V39.6615C61.5501 39.6829 61.511 39.7024 61.4506 39.7201C61.3915 39.7367 61.3228 39.7515 61.2447 39.7645C61.1677 39.7764 61.0926 39.787 61.0192 39.7965C60.947 39.8048 60.8884 39.8119 60.8434 39.8178C60.7345 39.832 60.6327 39.8551 60.538 39.887C60.4445 39.9178 60.3687 39.9646 60.3107 40.0273C60.2539 40.0889 60.2255 40.1729 60.2255 40.2794C60.2255 40.425 60.2794 40.5351 60.3871 40.6097C60.496 40.6831 60.6339 40.7198 60.8008 40.7198ZM62.7517 42.055V38.305H63.1565V38.7383H63.2062C63.237 38.6909 63.2796 38.6305 63.3341 38.5571C63.3897 38.4826 63.469 38.4163 63.572 38.3583C63.6762 38.2991 63.817 38.2695 63.9946 38.2695C64.2242 38.2695 64.4266 38.3269 64.6018 38.4417C64.777 38.5566 64.9137 38.7193 65.012 38.93C65.1102 39.1407 65.1594 39.3893 65.1594 39.6758C65.1594 39.9646 65.1102 40.2149 65.012 40.4268C64.9137 40.6375 64.7776 40.8009 64.6036 40.9169C64.4296 41.0317 64.229 41.0891 64.0017 41.0891C63.8265 41.0891 63.6862 41.0601 63.5809 41.0021C63.4755 40.9429 63.3944 40.876 63.3376 40.8015C63.2808 40.7257 63.237 40.663 63.2062 40.6133H63.1707V42.055H62.7517ZM63.1636 39.6687C63.1636 39.8746 63.1938 40.0563 63.2542 40.2138C63.3145 40.37 63.4027 40.4925 63.5187 40.5813C63.6347 40.6689 63.7768 40.7127 63.9449 40.7127C64.1201 40.7127 64.2662 40.6665 64.3834 40.5742C64.5018 40.4807 64.5906 40.3552 64.6498 40.1978C64.7101 40.0392 64.7403 39.8628 64.7403 39.6687C64.7403 39.4769 64.7107 39.3041 64.6515 39.1502C64.5935 38.9951 64.5054 38.8726 64.387 38.7826C64.2698 38.6915 64.1224 38.6459 63.9449 38.6459C63.7744 38.6459 63.6312 38.6891 63.5152 38.7755C63.3992 38.8608 63.3116 38.9803 63.2524 39.1342C63.1932 39.2869 63.1636 39.4651 63.1636 39.6687ZM66.9846 38.305V38.6601H65.5713V38.305H66.9846ZM65.9832 37.6516H66.4023V40.251C66.4023 40.3694 66.4194 40.4582 66.4537 40.5174C66.4893 40.5754 66.5342 40.6144 66.5887 40.6346C66.6443 40.6535 66.7029 40.663 66.7645 40.663C66.8106 40.663 66.8485 40.6606 66.8781 40.6559C66.9077 40.6499 66.9314 40.6452 66.9491 40.6417L67.0344 41.0181C67.0059 41.0287 66.9663 41.0394 66.9154 41.05C66.8645 41.0619 66.8 41.0678 66.7219 41.0678C66.6035 41.0678 66.4875 41.0423 66.3738 40.9914C66.2614 40.9405 66.1679 40.863 66.0933 40.7589C66.0199 40.6547 65.9832 40.5233 65.9832 40.3647V37.6516ZM68.7291 41.0891C68.4664 41.0891 68.2397 41.0311 68.0491 40.9151C67.8597 40.7979 67.7135 40.6346 67.6105 40.425C67.5087 40.2143 67.4578 39.9693 67.4578 39.69C67.4578 39.4106 67.5087 39.1644 67.6105 38.9513C67.7135 38.7371 67.8567 38.5702 68.0402 38.4506C68.2249 38.3299 68.4403 38.2695 68.6865 38.2695C68.8286 38.2695 68.9688 38.2932 69.1073 38.3405C69.2458 38.3879 69.3719 38.4648 69.4855 38.5714C69.5992 38.6767 69.6897 38.8164 69.7572 38.9904C69.8247 39.1644 69.8584 39.3786 69.8584 39.6331V39.8107H67.7561V39.4485H69.4323C69.4323 39.2946 69.4015 39.1573 69.3399 39.0365C69.2796 38.9158 69.1932 38.8205 69.0807 38.7507C68.9694 38.6808 68.838 38.6459 68.6865 38.6459C68.5196 38.6459 68.3752 38.6874 68.2533 38.7702C68.1325 38.8519 68.0396 38.9584 67.9745 39.0898C67.9094 39.2212 67.8769 39.3621 67.8769 39.5124V39.7539C67.8769 39.9598 67.9124 40.1344 67.9834 40.2777C68.0556 40.4197 68.1556 40.528 68.2835 40.6026C68.4113 40.676 68.5599 40.7127 68.7291 40.7127C68.8392 40.7127 68.9387 40.6973 69.0274 40.6665C69.1174 40.6346 69.1949 40.5872 69.26 40.5245C69.3251 40.4606 69.3754 40.3812 69.411 40.2865L69.8158 40.4002C69.7732 40.5375 69.7016 40.6582 69.6009 40.7624C69.5003 40.8654 69.376 40.9459 69.2281 41.0039C69.0801 41.0607 68.9138 41.0891 68.7291 41.0891ZM70.4958 41.0323V38.305H70.9007V38.7169H70.9291C70.9788 38.582 71.0687 38.4725 71.199 38.3885C71.3292 38.3044 71.4759 38.2624 71.6393 38.2624C71.6701 38.2624 71.7085 38.263 71.7547 38.2642C71.8009 38.2654 71.8358 38.2671 71.8595 38.2695V38.6956C71.8453 38.6921 71.8127 38.6868 71.7618 38.6797C71.7121 38.6714 71.6594 38.6672 71.6038 38.6672C71.4712 38.6672 71.3528 38.695 71.2487 38.7507C71.1457 38.8051 71.064 38.8809 71.0036 38.978C70.9445 39.0738 70.9149 39.1833 70.9149 39.3064V41.0323H70.4958Z" fill="#951733"/>
</g>
<defs>
<clipPath id="clip0_139_646">
<rect width="72" height="42" fill="white"/>
</clipPath>
</defs>
</svg>
