<svg width="75" height="69" viewBox="0 0 75 69" fill="none" xmlns="http://www.w3.org/2000/svg">
<g clip-path="url(#clip0_139_827)">
<path fill-rule="evenodd" clip-rule="evenodd" d="M30.8891 1.58346C31.5148 1.12693 32.086 1.59511 32.5941 2.01242C32.6868 2.08841 32.776 2.16317 32.8669 2.22997C35.1341 4.12668 37.1227 6.33982 38.773 8.80285C38.8846 8.97432 38.9529 9.17085 38.9718 9.37521C38.9914 9.58038 38.9614 9.78728 38.8845 9.9782C38.4359 10.7135 37.9345 11.4146 37.3845 12.0758V12.1132C36.0849 13.6559 34.6755 15.1006 33.1676 16.4359C32.9826 16.5633 32.8059 16.7025 32.6383 16.8526C32.0926 17.3226 31.5294 17.8024 30.8133 17.3122C28.5922 15.5525 26.5899 13.5276 24.8503 11.2816C24.7312 11.092 24.6006 10.9101 24.4592 10.7368C24.2213 10.4642 24.0278 10.1552 23.8856 9.82133C23.6589 9.22323 24.0069 8.75812 24.3385 8.30832C24.4289 8.18576 24.5204 8.06688 24.595 7.94555C26.3922 5.54117 28.5104 3.40011 30.8891 1.58346Z" fill="white"/>
<path d="M29.1029 17.5628C29.4152 17.952 29.7268 18.3503 29.9869 18.7492C30.0095 18.784 30.0346 18.817 30.0621 18.8479C30.0694 18.8601 30.076 18.8724 30.0827 18.8859L30.0906 18.9C30.2363 19.2088 30.493 19.4499 30.8085 19.574C31.0107 19.6589 31.228 19.701 31.4469 19.698C31.6658 19.6949 31.8819 19.6467 32.0817 19.5563C32.1717 19.5154 32.2538 19.4587 32.3242 19.389L32.5061 19.2094C32.5384 19.1774 32.568 19.1428 32.5946 19.1059C32.8331 18.7754 33.0775 18.4498 33.3277 18.1291C33.4963 18.4824 33.7941 18.7557 34.1583 18.8914C34.5264 19.03 34.9327 19.0228 35.2958 18.8712C35.6548 18.7226 35.9425 18.4387 36.0979 18.0794C36.1679 17.9162 36.2076 17.7412 36.2149 17.5634H41.3285C41.4368 17.5618 41.5444 17.5818 41.645 17.6222C41.7457 17.6626 41.8375 17.7226 41.9152 17.7989C41.9929 17.8751 42.055 17.9661 42.0979 18.0666C42.1408 18.1671 42.1637 18.2752 42.1653 18.3846V58.1124C42.1637 58.2218 42.1408 58.3299 42.0979 58.4304C42.055 58.5309 41.9929 58.6219 41.9152 58.6981C41.8375 58.7744 41.7457 58.8344 41.645 58.8748C41.5444 58.9152 41.4368 58.9352 41.3285 58.9335H0.836708C0.72842 58.9352 0.620876 58.9152 0.520218 58.8748C0.41956 58.8344 0.327761 58.7744 0.250063 58.6981C0.172365 58.6219 0.110291 58.5309 0.0673845 58.4304C0.0244782 58.3299 0.00158078 58.2218 0 58.1124V18.3846C0.00150186 18.2751 0.0243411 18.167 0.0672122 18.0664C0.110083 17.9658 0.172146 17.8748 0.249851 17.7985C0.327557 17.7221 0.419383 17.662 0.52008 17.6216C0.620776 17.5812 0.728369 17.5612 0.836708 17.5628H29.1029Z" fill="#14B4FE"/>
<path d="M29.1029 17.5628C29.4152 17.9519 29.7268 18.3503 29.9869 18.7492C30.0095 18.7839 30.0346 18.8169 30.0621 18.8478C30.0694 18.8601 30.076 18.8724 30.0827 18.8858L30.0906 18.8999C30.2363 19.2088 30.493 19.4498 30.8085 19.574C31.0107 19.6588 31.228 19.7009 31.447 19.6977C31.6659 19.6945 31.8819 19.6462 32.0817 19.5556C32.1717 19.5148 32.2538 19.4581 32.3242 19.3883L32.5061 19.2088C32.5383 19.1767 32.5679 19.1421 32.5946 19.1052C32.8331 18.7747 33.0775 18.4491 33.3277 18.1284C33.4963 18.4818 33.7941 18.7551 34.1583 18.8907C34.5264 19.0294 34.9327 19.0221 35.2958 18.8705C35.6548 18.722 35.9425 18.4381 36.0979 18.0788C36.1679 17.9155 36.2076 17.7406 36.2149 17.5628H41.4152C41.6104 17.5644 41.7975 17.6422 41.9372 17.78C42.077 17.9177 42.1587 18.1047 42.1653 18.3018V48.6403C41.6374 48.6563 41.1074 48.6642 40.5755 48.6642C32.7868 48.6964 25.0917 46.9487 18.0654 43.5519C11.0391 40.155 4.86339 35.1968 0 29.0479V18.3239C0.000684596 18.1259 0.0773526 17.936 0.213858 17.794C0.350363 17.652 0.536051 17.5692 0.731817 17.5628H29.1029Z" fill="url(#paint0_linear_139_827)"/>
<path d="M6.69312 60.7413C9.11836 61.5435 13.7869 60.6659 17.4018 58.1148C20.8638 55.671 34.4064 42.3867 35.3055 23.0627C35.3437 22.2483 34.3184 20.5839 31.0389 20.5184C29.7002 20.5184 26.5213 21.3885 25.5172 23.5554C26.2199 22.4818 28.0383 22.6534 28.2784 22.8164C28.5185 22.9794 27.495 41.2169 16.6493 53.9258C14.5812 56.1999 9.79864 60.1873 6.69312 60.7413Z" fill="#085B88"/>
<path d="M28.6846 42.6778C31.2808 38.3386 34.895 30.4218 34.4688 24.156C34.3014 23.0891 33.3811 21.1024 30.0348 21.3653C29.8059 21.3704 29.5798 21.418 29.3679 21.5056C29.2774 21.5315 29.1968 21.5846 29.137 21.658C29.0772 21.7314 29.041 21.8214 29.0332 21.9162C29.0332 22.2446 29.1472 22.4677 29.8699 22.2446C30.2854 22.1747 30.7095 22.1747 31.125 22.2446C32.1005 22.4285 34.2172 23.2797 33.6351 27.0858C33.1452 30.2882 31.7119 37.265 28.6846 42.6778Z" fill="white"/>
<path fill-rule="evenodd" clip-rule="evenodd" d="M31.0049 3.04866C31.5584 2.67547 32.0641 3.05847 32.5146 3.39919C32.597 3.46047 32.6777 3.52175 32.7571 3.5769C34.7445 5.10689 36.5053 6.9162 37.9859 8.94992C38.084 9.0874 38.1448 9.24845 38.1621 9.41704C38.1795 9.58563 38.1528 9.75586 38.0848 9.91079C37.6852 10.5154 37.2413 11.089 36.7569 11.6266V11.6573C35.5992 12.9252 34.3515 14.1061 33.0239 15.1907C32.8608 15.2943 32.7043 15.4081 32.5552 15.5314C32.0702 15.9156 31.5736 16.3078 30.9394 15.907C28.99 14.4845 27.2174 12.8294 25.6603 10.9777C25.5541 10.8221 25.4383 10.6735 25.3134 10.5328C25.1051 10.313 24.9337 10.0602 24.806 9.78456C24.6053 9.29432 24.9115 8.91561 25.2073 8.54793C25.2874 8.44865 25.3662 8.35061 25.4341 8.25133C27.0452 6.26614 28.9198 4.51538 31.0049 3.04866ZM31.419 4.31655L31.2413 4.88032L30.3501 7.40444C30.4616 7.41547 30.5865 7.41547 30.7108 7.41547C30.8351 7.41547 30.9588 7.41547 31.0685 7.4265V7.44734L30.9382 10.3024L30.9606 10.3324C31.2702 10.3683 31.5829 10.3658 31.8919 10.325V10.2803L31.7755 7.51107L31.7931 7.41731L32.577 7.40444C32.186 6.38291 31.8064 5.35095 31.4414 4.31655H31.419ZM28.3874 8.27094C27.8878 8.51606 27.153 8.89293 27.2354 9.57069C27.317 9.74735 27.4327 9.90571 27.5758 10.0364C27.7189 10.1671 27.8864 10.2676 28.0685 10.3318C29.9872 11.079 32.0979 11.1571 34.0655 10.5536C34.5275 10.3777 35.1472 10.1247 35.2327 9.56272C35.2278 9.10006 34.7325 8.80898 34.3772 8.63188V8.60982C34.504 8.55785 34.6368 8.52243 34.7725 8.50442V8.49216C34.1844 8.38799 33.615 8.23908 33.0457 8.08955L32.9335 8.06014C33.0178 8.25011 33.0851 8.44743 33.1524 8.64536C33.1785 8.72196 33.2046 8.79856 33.2319 8.87516C33.4166 8.81619 33.6061 8.77334 33.7982 8.74709C34.1183 8.86965 34.5766 9.04613 34.6221 9.44261C34.6537 9.7723 34.3323 9.95124 34.0764 10.0928L33.9873 10.143C32.5861 10.6326 31.0727 10.6906 29.6389 10.3097L29.5946 10.2956C29.2023 10.1731 28.6718 10.0095 28.6245 9.53024C28.8834 8.92602 29.5212 8.76302 30.0942 8.61595L30.2367 8.57918C30.136 8.5179 30.0348 8.45294 29.9335 8.39166C29.7219 8.26236 29.5091 8.13367 29.3066 7.98476C28.9855 8.02496 28.674 8.12205 28.3862 8.27155L28.3874 8.27094ZM30.9218 11.1174C30.9012 11.5071 30.8866 11.8858 30.8727 12.2621C30.8497 12.8645 30.8266 13.4601 30.7799 14.0858C31.2103 14.1384 31.6452 14.1415 32.0762 14.095L31.9471 11.262L31.9246 11.1272C31.5902 11.1481 31.2546 11.1451 30.9206 11.118L30.9218 11.1174Z" fill="#085B88"/>
<path fill-rule="evenodd" clip-rule="evenodd" d="M32.6492 1.21088L31.9217 0.193634C31.8296 0.125149 31.7293 0.0685386 31.6234 0.0251146C31.5157 -0.00607404 31.4019 -0.00860712 31.2929 0.017761C31.1846 0.0440216 31.085 0.0982945 31.0037 0.17525L29.6898 1.86719C27.5836 4.48735 25.1177 6.78983 22.3668 8.70481C22.3214 8.73974 22.2716 8.77467 22.2201 8.81021C22.0279 8.94441 21.8175 9.09087 21.7654 9.30719C21.7407 9.41737 21.7476 9.53239 21.7854 9.63871C21.8233 9.74565 21.8901 9.8397 21.9782 9.91018C24.2072 11.4234 26.2595 13.1868 28.0959 15.1668C28.2462 15.3237 28.3839 15.4793 28.5203 15.6331C28.6809 15.817 28.8398 15.9959 29.0144 16.1699C29.1963 16.4151 29.394 16.6559 29.591 16.9016C29.9736 17.3784 30.3635 17.8637 30.6927 18.3693C30.7474 18.4313 30.7935 18.5006 30.8297 18.5752C30.8553 18.6426 30.8943 18.704 30.9442 18.7556C30.9942 18.8072 31.054 18.848 31.1201 18.8754C31.2161 18.9189 31.32 18.9413 31.4251 18.9413C31.5302 18.9413 31.6341 18.9189 31.7301 18.8754L31.912 18.6953C34.2166 15.4941 37.0235 12.6951 40.2215 10.409C40.3314 10.3203 40.4503 10.2435 40.5762 10.1798C40.8623 10.0211 41.1546 9.85871 41.1606 9.49716C41.1479 9.37364 41.1077 9.25464 41.043 9.14909C40.9777 9.04289 40.8899 8.95267 40.7859 8.88497L40.7338 8.87639C39.0819 7.76463 37.5354 6.50053 36.1143 5.10032L34.5191 3.4525C33.8746 2.74349 33.2465 1.95911 32.6492 1.21088ZM30.7697 2.66015C31.4106 2.16685 32.2169 2.5762 32.7566 3.02783C33.3385 3.46468 33.8954 3.93464 34.4245 4.43543L34.5185 4.48875C35.948 5.78543 37.2383 7.23085 38.368 8.80102C38.4736 8.92797 38.5496 9.07738 38.5902 9.23812C38.6309 9.39886 38.6351 9.56679 38.6026 9.72941C38.2707 10.4269 37.8277 11.0645 37.2912 11.6168C37.1438 11.7866 36.9959 11.9575 36.8528 12.1316C35.4878 13.6454 33.9712 15.0121 32.3273 16.2098C32.1683 16.352 31.9761 16.4508 31.7688 16.4971C31.5615 16.5433 31.346 16.5353 31.1426 16.4739C30.1496 15.8988 29.2328 15.1987 28.4142 14.3904C28.2232 14.2176 28.0322 14.0447 27.84 13.8756C26.5644 12.7341 25.4211 11.45 24.4319 10.0481C24.3011 9.84449 24.24 9.60317 24.2579 9.36111C24.4027 8.92761 24.6357 8.52954 24.9418 8.19251L25.0194 8.09323C26.1799 6.67639 27.46 5.36415 28.8453 4.17132C28.8877 4.12438 28.9344 4.0815 28.9847 4.04324C29.574 3.54136 30.1549 3.09647 30.7697 2.66015Z" fill="#085B88"/>
<path fill-rule="evenodd" clip-rule="evenodd" d="M35.0066 17.4409C35.0066 17.276 34.8968 17.2245 34.7089 17.2245H34.4373V17.9427H34.5925V17.6406H34.6664L34.8338 17.9427H35.0193L34.832 17.6278C34.8564 17.6289 34.8808 17.6247 34.9035 17.6155C34.9264 17.6065 34.9471 17.5925 34.9641 17.5745C34.9807 17.557 34.9933 17.5361 35.0011 17.5132C35.0082 17.4898 35.0101 17.4651 35.0066 17.4409ZM34.7313 17.5187H34.5931V17.3453H34.7022C34.7628 17.3453 34.8417 17.3508 34.8417 17.4255C34.8417 17.5003 34.801 17.5187 34.7313 17.5187Z" fill="#085B88"/>
<path fill-rule="evenodd" clip-rule="evenodd" d="M34.3299 17.0291C34.4413 16.9556 34.5715 16.9164 34.7046 16.9163C34.7939 16.9131 34.883 16.9281 34.9665 16.9604C35.0496 16.9926 35.1254 17.0416 35.189 17.1044C35.2522 17.1665 35.302 17.2413 35.3351 17.3238C35.3681 17.4061 35.3835 17.4944 35.3806 17.583C35.3806 17.7153 35.341 17.8445 35.2672 17.9538C35.1922 18.0638 35.0868 18.1491 34.9641 18.1989C34.8406 18.2496 34.7051 18.263 34.5742 18.2375C34.4437 18.2116 34.3236 18.1477 34.2286 18.0537C34.1345 17.9612 34.0701 17.8423 34.0437 17.7123C34.0175 17.583 34.0306 17.4486 34.0813 17.3269C34.1333 17.205 34.2198 17.1014 34.3299 17.0291ZM34.7046 18.0947C34.8351 18.0861 34.9578 18.0284 35.0484 17.9329C35.138 17.8388 35.1881 17.7131 35.1881 17.5824C35.1881 17.4517 35.138 17.3261 35.0484 17.2319C35.0062 17.1812 34.9536 17.1405 34.8942 17.1126C34.8348 17.0846 34.7701 17.0702 34.7046 17.0702C34.6391 17.0702 34.5744 17.0846 34.515 17.1126C34.4556 17.1405 34.403 17.1812 34.3608 17.2319C34.2712 17.3259 34.2212 17.4513 34.2212 17.5818C34.2212 17.7123 34.2712 17.8377 34.3608 17.9317C34.4512 18.0276 34.5738 18.0858 34.7046 18.0947Z" fill="#085B88"/>
<path d="M28.4457 42.3549V58.4427H41.9991V54.8308H33.4653V51.7117H41.3298V48.2641H33.4653V45.7197H41.9991V42.3542L28.4457 42.3549Z" fill="#085B88"/>
<path d="M44.8434 42.3549V58.4427H58.3969V54.8308H49.863V51.7117H57.7275V48.2641H49.863V45.7197H58.3969V42.3542L44.8434 42.3549Z" fill="#085B88"/>
<path d="M61.2416 42.3549V58.4427H74.795V54.8308H66.2612V51.7117H74.1257V48.2641H66.2612V45.7197H74.795V42.3542L61.2416 42.3549Z" fill="#085B88"/>
<path d="M2.86597 65.3287V68.9504H1.8407V65.3287H2.86597Z" fill="#085B88"/>
<path d="M5.72543 66.4606C5.72303 66.4073 5.70946 66.3552 5.68563 66.3077C5.6618 66.2601 5.62824 66.2183 5.58719 66.1848C5.47818 66.1108 5.34768 66.076 5.21674 66.0862C5.1286 66.0834 5.04064 66.0959 4.95663 66.1229C4.89933 66.1406 4.84821 66.1744 4.8093 66.2204C4.77763 66.2607 4.76014 66.3105 4.75958 66.3619C4.75653 66.4028 4.76471 66.4437 4.78323 66.4802C4.80646 66.5181 4.83799 66.5502 4.87539 66.574C4.9258 66.6051 4.97975 66.63 5.03606 66.6481C5.11202 66.6738 5.1896 66.6942 5.26828 66.7094L5.5781 66.7707C5.7628 66.8054 5.94287 66.8618 6.11468 66.9386C6.24894 66.9986 6.37199 67.0815 6.47847 67.1837C6.56996 67.272 6.64115 67.3795 6.68704 67.4987C6.73352 67.6205 6.75736 67.7499 6.75737 67.8804C6.76274 68.0972 6.69733 68.3098 6.57124 68.4853C6.43519 68.6598 6.25195 68.7907 6.04375 68.8621C5.78009 68.9542 5.50229 68.998 5.22341 68.9915C4.93105 68.9974 4.64001 68.9501 4.36427 68.8517C4.13617 68.7704 3.938 68.6208 3.79615 68.4228C3.65426 68.2009 3.58335 67.9403 3.59304 67.6764H4.56677C4.56943 67.7758 4.59945 67.8726 4.65348 67.9558C4.7078 68.0334 4.7835 68.093 4.87114 68.1274C4.97875 68.1697 5.09343 68.1904 5.20886 68.1887C5.30188 68.1911 5.39468 68.1781 5.48352 68.1501C5.54817 68.1302 5.60624 68.093 5.65146 68.0422C5.68951 67.9986 5.71099 67.9428 5.71209 67.8847C5.71149 67.8309 5.69119 67.7791 5.6551 67.7395C5.60587 67.688 5.54517 67.6491 5.47806 67.6261C5.36973 67.5843 5.25793 67.5523 5.14398 67.5305L4.76807 67.4527C4.48101 67.4036 4.21032 67.2838 3.97987 67.104C3.88453 67.0219 3.80913 66.9188 3.75951 66.8025C3.70989 66.6863 3.68737 66.5601 3.69369 66.4336C3.68847 66.2164 3.75622 66.0039 3.88589 65.8306C4.02678 65.6491 4.21337 65.5092 4.42611 65.4256C4.67903 65.3248 4.94915 65.2754 5.22098 65.2803C5.49091 65.2743 5.75919 65.3243 6.00919 65.4274C6.2164 65.5127 6.39506 65.6562 6.52394 65.841C6.64655 66.024 6.71009 66.2409 6.70584 66.4618L5.72543 66.4606Z" fill="#085B88"/>
<path d="M8.51075 65.3287V68.9504H7.48547V65.3287H8.51075Z" fill="#085B88"/>
<path d="M9.33472 65.3287H10.608L11.4859 67.3798H11.5302L12.4081 65.3287H13.6814V68.9504H12.684V66.8565H12.6543L11.8133 68.9222H11.207L10.3673 66.8417H10.3376V68.9498H9.33472V65.3287Z" fill="#085B88"/>
<path d="M16.5462 66.4606C16.5437 66.4073 16.5302 66.3552 16.5063 66.3077C16.4825 66.2601 16.449 66.2183 16.4079 66.1848C16.2989 66.1108 16.1684 66.076 16.0375 66.0862C15.9493 66.0834 15.8614 66.0959 15.7773 66.1229C15.72 66.1406 15.6689 66.1744 15.63 66.2204C15.5984 66.2607 15.5809 66.3105 15.5803 66.3619C15.5774 66.4028 15.5858 66.4438 15.6046 66.4802C15.6278 66.5181 15.6593 66.5502 15.6967 66.574C15.7471 66.6051 15.8011 66.63 15.8574 66.6481C15.9333 66.6737 16.0109 66.6942 16.0896 66.7094L16.3994 66.7707C16.5841 66.8054 16.7642 66.8617 16.936 66.9386C17.0703 66.9986 17.1933 67.0815 17.2998 67.1837C17.3913 67.272 17.4625 67.3795 17.5084 67.4987C17.5547 67.6205 17.5783 67.7499 17.5781 67.8804C17.5836 68.0973 17.5182 68.3099 17.392 68.4853C17.256 68.6599 17.0727 68.7908 16.8645 68.8621C16.6008 68.9542 16.323 68.998 16.0441 68.9915C15.7518 68.9974 15.4607 68.9501 15.185 68.8517C14.9569 68.7704 14.7587 68.6208 14.6169 68.4228C14.4752 68.2009 14.4045 67.9403 14.4144 67.6764H15.3881C15.3908 67.7758 15.4208 67.8726 15.4748 67.9558C15.5291 68.0334 15.6048 68.0931 15.6925 68.1274C15.8001 68.1697 15.9147 68.1905 16.0302 68.1887C16.1232 68.1911 16.216 68.1781 16.3048 68.1501C16.3695 68.1302 16.4276 68.093 16.4728 68.0422C16.5108 67.9986 16.5323 67.9428 16.5334 67.8847C16.5329 67.8308 16.5126 67.7791 16.4764 67.7395C16.4272 67.688 16.3665 67.6491 16.2994 67.6261C16.191 67.5843 16.0792 67.5524 15.9653 67.5305L15.5888 67.4527C15.3018 67.4035 15.0311 67.2838 14.8006 67.104C14.7054 67.0218 14.6301 66.9186 14.5806 66.8024C14.5311 66.6862 14.5087 66.56 14.515 66.4336C14.5097 66.2165 14.5772 66.004 14.7066 65.8306C14.8475 65.6491 15.0341 65.5092 15.2468 65.4256C15.4998 65.3248 15.7699 65.2755 16.0417 65.2803C16.3116 65.2743 16.5799 65.3243 16.8299 65.4274C17.0371 65.5127 17.2158 65.6562 17.3447 65.841C17.4673 66.024 17.5308 66.2409 17.5266 66.4618L16.5462 66.4606Z" fill="#085B88"/>
<path d="M21.9685 66.4606C21.9661 66.4073 21.9525 66.3552 21.9287 66.3077C21.9048 66.2601 21.8713 66.2183 21.8302 66.1848C21.7212 66.1108 21.5907 66.076 21.4598 66.0862C21.3716 66.0834 21.2837 66.0958 21.1997 66.1229C21.1424 66.1406 21.0913 66.1744 21.0523 66.2204C21.0207 66.2607 21.0032 66.3105 21.0026 66.3619C20.9996 66.4028 21.0078 66.4437 21.0263 66.4802C21.0495 66.5182 21.081 66.5502 21.1184 66.574C21.1688 66.6051 21.2228 66.63 21.2791 66.6481C21.3551 66.6737 21.4326 66.6942 21.5113 66.7094L21.8211 66.7707C22.0058 66.8054 22.1859 66.8618 22.3577 66.9386C22.492 66.9986 22.6151 67.0815 22.7215 67.1837C22.813 67.272 22.8842 67.3795 22.9301 67.4987C22.9765 67.6205 23.0004 67.7499 23.0004 67.8804C23.0058 68.0972 22.9404 68.3098 22.8143 68.4853C22.6782 68.6598 22.495 68.7907 22.2868 68.8621C22.0231 68.9542 21.7453 68.998 21.4664 68.9915C21.1741 68.9974 20.883 68.9501 20.6073 68.8517C20.3792 68.7704 20.181 68.6208 20.0392 68.4228C19.8973 68.2009 19.8264 67.9403 19.8361 67.6764H20.8098C20.8125 67.7758 20.8425 67.8726 20.8965 67.9558C20.9508 68.0334 21.0265 68.0931 21.1142 68.1274C21.2218 68.1697 21.3365 68.1904 21.4519 68.1887C21.5449 68.1911 21.6377 68.1781 21.7266 68.1501C21.7912 68.1302 21.8493 68.0929 21.8945 68.0422C21.9325 67.9986 21.954 67.9428 21.9551 67.8847C21.9545 67.8309 21.9342 67.7791 21.8981 67.7395C21.8489 67.688 21.7882 67.6491 21.7211 67.6261C21.6128 67.5843 21.501 67.5523 21.387 67.5305L21.0111 67.4527C20.7241 67.4036 20.4534 67.2838 20.2229 67.104C20.1276 67.0219 20.0522 66.9188 20.0026 66.8025C19.9529 66.6863 19.9304 66.5601 19.9367 66.4336C19.9314 66.2165 19.9989 66.004 20.1283 65.8306C20.2692 65.6491 20.4558 65.5092 20.6685 65.4256C20.9215 65.3248 21.1916 65.2754 21.4634 65.2803C21.7333 65.2743 22.0016 65.3243 22.2516 65.4274C22.4588 65.5127 22.6375 65.6562 22.7664 65.841C22.889 66.024 22.9525 66.2409 22.9483 66.4618L21.9685 66.4606Z" fill="#085B88"/>
<path d="M23.7037 66.1211V65.3287H26.9863V66.1211H25.8495V68.9504H24.8388V66.1211H23.7037Z" fill="#085B88"/>
<path d="M30.0227 65.3287H31.048V67.6488C31.0541 67.9035 30.9819 68.1537 30.8412 68.3651C30.6977 68.5714 30.4995 68.7326 30.2695 68.8303C29.7204 69.0472 29.1106 69.0472 28.5615 68.8303C28.3314 68.7327 28.1333 68.5714 27.9898 68.3651C27.8513 68.1529 27.7804 67.903 27.7866 67.6488V65.3287H28.8119V67.5636C28.8102 67.6692 28.837 67.7732 28.8895 67.8645C28.9409 67.9515 29.0149 68.0225 29.1036 68.0698C29.201 68.1186 29.3083 68.144 29.417 68.144C29.5258 68.144 29.633 68.1186 29.7305 68.0698C29.8191 68.0225 29.8932 67.9515 29.9445 67.8645C29.997 67.7732 30.0238 67.6692 30.0221 67.5636L30.0227 65.3287Z" fill="#085B88"/>
<path d="M33.4041 68.9503H31.949V65.3287H33.3878C33.7358 65.3196 34.0809 65.3941 34.3948 65.5462C34.6707 65.6822 34.8996 65.8992 35.0515 66.1688C35.213 66.4657 35.2931 66.8008 35.2837 67.1395C35.2929 67.4785 35.2134 67.814 35.0533 68.112C34.9014 68.3804 34.6742 68.5971 34.4003 68.7346C34.0897 68.885 33.7484 68.9589 33.4041 68.9503ZM32.9761 68.1157H33.3671C33.5306 68.1201 33.6932 68.0905 33.8449 68.0287C33.979 67.9702 34.0869 67.8637 34.1481 67.7296C34.2267 67.5432 34.2625 67.3413 34.253 67.1389C34.2627 66.9363 34.2261 66.7342 34.1462 66.5482C34.083 66.4132 33.9727 66.3067 33.8364 66.2491C33.6778 66.1872 33.5086 66.1578 33.3386 66.1627H32.9749L32.9761 68.1157Z" fill="#085B88"/>
<path d="M36.1749 68.9504V65.3287H38.8967V66.1211H37.199V66.7437H38.7554V67.536H37.199V68.1587H38.8882V68.951L36.1749 68.9504Z" fill="#085B88"/>
<path d="M43.0887 65.3287V68.9504H42.2332L40.8684 67.0507H40.8466V68.9504H39.8213V65.3287H40.692L42.0343 67.2241H42.064V65.3287H43.0887Z" fill="#085B88"/>
<path d="M43.886 66.1211V65.3287H47.1686V66.1211H46.0323V68.9504H45.0216V66.1211H43.886Z" fill="#085B88"/>
<path d="M49.6689 68.9503V65.3287H51.306C51.5532 65.3217 51.7996 65.3595 52.0336 65.4402C52.2089 65.4992 52.3634 65.6087 52.478 65.7552C52.5798 65.8935 52.6331 66.0621 52.6296 66.2344C52.6309 66.3618 52.5992 66.4873 52.5374 66.5984C52.4756 66.7096 52.3883 66.8042 52.2828 66.8742C52.1661 66.9501 52.0356 67.0018 51.899 67.0261V67.0617C52.0536 67.0655 52.2052 67.106 52.3416 67.18C52.4716 67.2495 52.5811 67.3527 52.6587 67.479C52.7396 67.613 52.7806 67.7676 52.7769 67.9245C52.7796 68.1137 52.7227 68.2989 52.6144 68.4534C52.4982 68.6151 52.34 68.7411 52.1572 68.8174C51.9329 68.9108 51.6917 68.9559 51.4491 68.9497L49.6689 68.9503ZM50.6942 68.1653H51.1738C51.3092 68.1748 51.4442 68.1427 51.5612 68.0734C51.6039 68.042 51.638 68.0004 51.6606 67.9522C51.6831 67.904 51.6934 67.8509 51.6904 67.7977C51.6929 67.7211 51.6717 67.6457 51.6298 67.582C51.5864 67.5208 51.5261 67.4741 51.4563 67.4478C51.371 67.415 51.2802 67.3994 51.189 67.4018H50.6948L50.6942 68.1653ZM50.6942 66.7933H51.115C51.196 66.7948 51.2766 66.7811 51.3527 66.7528C51.4159 66.73 51.4716 66.6896 51.5134 66.6364C51.5541 66.582 51.5755 66.5153 51.574 66.4471C51.5764 66.3971 51.5662 66.3473 51.5442 66.3025C51.5223 66.2576 51.4893 66.2192 51.4485 66.1909C51.3548 66.1278 51.2438 66.0963 51.1314 66.1008H50.696L50.6942 66.7933Z" fill="#085B88"/>
<path d="M53.778 68.9504V65.3287H55.4083C55.6613 65.3231 55.9124 65.3731 56.1444 65.4752C56.3451 65.5649 56.5156 65.7118 56.6349 65.898C56.7557 66.0965 56.8165 66.3263 56.8101 66.5592C56.8175 66.7917 56.754 67.0208 56.6282 67.2156C56.5041 67.3978 56.3288 67.5382 56.125 67.6188C55.885 67.7142 55.6286 67.7604 55.3707 67.7548H54.397V66.9907H55.164C55.2682 66.9931 55.3722 66.9788 55.472 66.9484C55.5507 66.9241 55.6197 66.8752 55.669 66.8087C55.7187 66.7355 55.7434 66.6479 55.7394 66.5592C55.7434 66.4694 55.7187 66.3807 55.669 66.3062C55.6204 66.2377 55.5514 66.1868 55.472 66.1609C55.3729 66.1268 55.2686 66.1106 55.164 66.1131H54.8002V68.9498L53.778 68.9504ZM55.991 67.2879L56.935 68.9504H55.8212L54.899 67.2879H55.991Z" fill="#085B88"/>
<path d="M58.4871 68.9504H57.3806L58.6272 65.3287H60.029L61.2756 68.9504H60.169L59.3432 66.3264H59.3135L58.4871 68.9504ZM58.2804 67.5213H60.3606V68.2567H58.2804V67.5213Z" fill="#085B88"/>
<path d="M65.1717 65.3287V68.9504H64.3162L62.9514 67.0507H62.9289V68.9504H61.9037V65.3287H62.7744L64.1167 67.2241H64.1464V65.3287H65.1717Z" fill="#085B88"/>
<path d="M69.5256 66.6867H68.4858C68.4791 66.6088 68.4586 66.5328 68.4252 66.4624C68.3949 66.3959 68.3509 66.3367 68.296 66.289C68.2389 66.2376 68.1718 66.199 68.099 66.1756C68.0139 66.1474 67.9247 66.1337 67.8352 66.1351C67.6806 66.1308 67.5283 66.1735 67.3981 66.2577C67.2761 66.3427 67.1822 66.463 67.1289 66.6027C67.0647 66.7749 67.034 66.958 67.0385 67.142C67.033 67.3319 67.0643 67.5212 67.1307 67.699C67.1844 67.8366 67.2791 67.954 67.4017 68.0348C67.5299 68.1118 67.6771 68.1505 67.8261 68.1463C67.9122 68.1475 67.9979 68.1362 68.0808 68.1126C68.1514 68.0914 68.2175 68.0573 68.276 68.0121C68.3307 67.9692 68.3765 67.9156 68.4106 67.8547C68.447 67.7894 68.4712 67.718 68.4821 67.6439L69.522 67.6512C69.5069 67.8147 69.4612 67.9737 69.3874 68.12C69.3047 68.2852 69.1929 68.4339 69.0575 68.5588C68.9044 68.6992 68.7259 68.8084 68.5319 68.8805C67.9875 69.0705 67.3912 69.0375 66.8706 68.7886C66.5976 68.6473 66.3713 68.4286 66.2194 68.1592C66.0525 67.8476 65.9705 67.4967 65.9817 67.1426C65.9697 66.7871 66.0535 66.4351 66.2242 66.1241C66.3783 65.855 66.6065 65.637 66.8809 65.4966C67.1668 65.3515 67.4831 65.2781 67.8031 65.2827C68.026 65.2804 68.2479 65.312 68.4615 65.3765C68.6526 65.434 68.8315 65.5269 68.989 65.6504C69.1396 65.7695 69.2636 65.9194 69.3528 66.0904C69.4497 66.2753 69.5085 66.4781 69.5256 66.6867Z" fill="#085B88"/>
<path d="M70.2156 68.9504V65.3287H71.2409V66.7437H72.5978V65.3287H73.623V68.9504H72.5978V67.5354H71.2409V68.9504H70.2156Z" fill="#085B88"/>
</g>
<defs>
<linearGradient id="paint0_linear_139_827" x1="37.0633" y1="46.5808" x2="2.04015" y2="2.4763" gradientUnits="userSpaceOnUse">
<stop stop-color="#2DBCFC"/>
<stop offset="0.926" stop-color="white"/>
</linearGradient>
<clipPath id="clip0_139_827">
<rect width="75" height="69" fill="white"/>
</clipPath>
</defs>
</svg>
