<svg width="96" height="38" viewBox="0 0 96 38" fill="none" xmlns="http://www.w3.org/2000/svg">
<g clip-path="url(#clip0_431_401)">
<path d="M35.804 37.465L28.695 2.52197L0 26.174L11.368 29.758C13.5302 27.9806 16.2276 26.9823 19.026 26.924C18.1232 26.1942 17.4022 25.2649 16.9196 24.2092C16.437 23.1535 16.2061 22.0001 16.245 20.84C16.245 16.966 18.724 13.826 21.781 13.826C24.838 13.826 27.317 16.966 27.317 20.84C27.317 23.986 25.683 26.648 23.431 27.54C25.3588 28.0927 27.0928 29.175 28.4363 30.6639C29.7797 32.1529 30.6787 33.9887 31.031 35.963L35.804 37.465Z" fill="#005B94"/>
<path d="M43.163 0H42.511V5.781H43.163V0Z" fill="#005B94"/>
<path d="M44.121 -5.72205e-06V5.78099H47.836V5.22599H44.777V3.06599H47.713V2.51499H44.777V0.544994H47.84V-0.00500488L44.121 -5.72205e-06Z" fill="#005B94"/>
<path d="M48.442 -5.72205e-06V5.78099H52.157V5.22599H49.095V3.06599H52.03V2.51499H49.095V0.544994H52.157V-0.00500488L48.442 -5.72205e-06Z" fill="#005B94"/>
<path d="M52.762 -5.72205e-06V5.78099H56.477V5.22599H53.414V3.06599H56.35V2.51499H53.414V0.544994H56.477V-0.00500488L52.762 -5.72205e-06Z" fill="#005B94"/>
<path d="M42.526 20.914C42.526 20.069 42.915 19.994 43.695 19.994C44.379 19.994 44.873 20.024 44.835 20.884H44.476C44.459 20.331 44.353 20.31 43.682 20.31C42.982 20.31 42.882 20.399 42.882 20.838C42.882 21.438 43.169 21.391 43.76 21.408C44.511 21.45 44.891 21.429 44.891 22.286C44.891 23.181 44.469 23.21 43.671 23.21C42.873 23.21 42.447 23.11 42.515 22.197H42.874C42.866 22.897 43.001 22.897 43.674 22.897C44.347 22.897 44.535 22.897 44.535 22.277C44.535 21.677 44.265 21.777 43.686 21.728C43.061 21.677 42.525 21.753 42.525 20.918" fill="#005B94"/>
<path d="M46.266 23.342C46.148 23.76 46.051 24.169 45.519 24.169C45.4678 24.1669 45.4168 24.1599 45.367 24.148V23.891C45.4058 23.8993 45.4453 23.9033 45.485 23.903C45.831 23.903 45.869 23.439 45.945 23.186H45.827L45.027 20.97H45.369L46.053 22.941H46.061L46.561 20.97H46.907L46.266 23.342Z" fill="#005B94"/>
<path d="M48.942 21.5481H48.596V21.4641C48.596 21.2401 48.427 21.2401 48.077 21.2401C47.659 21.2401 47.457 21.2401 47.457 21.5101C47.457 21.9101 47.567 21.8771 47.913 21.8941C48.483 21.9281 49.002 21.8391 49.002 22.5611C49.002 23.1851 48.571 23.2111 48.078 23.2111C47.585 23.2111 47.094 23.1851 47.094 22.6921V22.4851H47.44V22.6581C47.44 22.8691 47.571 22.9151 48.077 22.9151C48.305 22.9151 48.655 22.9661 48.655 22.5741C48.655 22.1601 48.482 22.2361 48.077 22.2111C47.596 22.1771 47.111 22.2281 47.111 21.5991C47.111 20.9701 47.478 20.9451 48.077 20.9451C48.465 20.9451 48.942 20.9621 48.942 21.4641V21.5481Z" fill="#005B94"/>
<path d="M50.639 21.239H49.782V22.645C49.782 22.885 49.85 22.94 50.094 22.94C50.406 22.94 50.406 22.776 50.406 22.565V22.4H50.722V22.565C50.722 23.004 50.541 23.211 50.085 23.211C49.566 23.211 49.447 23.063 49.447 22.544V21.244H49.147V20.973H49.447V20.433H49.781V20.969H50.638L50.639 21.239Z" fill="#005B94"/>
<path d="M52.897 22.514V22.594C52.897 23.18 52.445 23.21 51.951 23.21C51.086 23.21 50.951 22.923 50.951 22.079C50.951 21.159 51.151 20.944 51.951 20.944C52.669 20.944 52.897 21.108 52.897 21.927V22.151H51.297C51.297 22.851 51.3481 22.94 51.9471 22.94C52.4031 22.94 52.547 22.911 52.547 22.599V22.514H52.897ZM52.551 21.881C52.534 21.252 52.458 21.214 51.951 21.214C51.351 21.214 51.326 21.37 51.301 21.881H52.551Z" fill="#005B94"/>
<path d="M53.745 21.311H53.753C53.8268 21.1843 53.9362 21.082 54.0675 21.0168C54.1989 20.9515 54.3465 20.9262 54.492 20.944C54.758 20.944 55.1 21.02 55.176 21.311C55.26 21.1821 55.3785 21.0794 55.518 21.0146C55.6575 20.9497 55.8124 20.9252 55.965 20.944C56.535 20.944 56.733 21.177 56.733 21.725V23.186H56.399V21.759C56.399 21.384 56.344 21.215 55.914 21.215C55.441 21.215 55.238 21.35 55.238 21.827V23.186H54.905V21.699C54.892 21.399 54.892 21.214 54.411 21.214C53.972 21.214 53.744 21.399 53.744 21.851V23.185H53.41V20.969H53.744L53.745 21.311Z" fill="#005B94"/>
<path d="M59.067 21.5481H58.721V21.4641C58.721 21.2401 58.552 21.2401 58.202 21.2401C57.784 21.2401 57.581 21.2401 57.581 21.5101C57.581 21.9101 57.69 21.8771 58.037 21.8941C58.607 21.9281 59.126 21.8391 59.126 22.5611C59.126 23.1851 58.695 23.2111 58.202 23.2111C57.709 23.2111 57.218 23.1851 57.218 22.6921V22.4851H57.567V22.6581C57.567 22.8691 57.698 22.9151 58.205 22.9151C58.433 22.9151 58.783 22.9661 58.783 22.5741C58.783 22.1601 58.61 22.2361 58.205 22.2111C57.723 22.1771 57.238 22.2281 57.238 21.5991C57.238 20.9701 57.605 20.9451 58.205 20.9451C58.593 20.9451 59.07 20.9621 59.07 21.4641L59.067 21.5481Z" fill="#005B94"/>
<path d="M59.814 23.185V22.754H60.189V23.264C60.189 23.488 60.147 23.657 59.864 23.657H59.764V23.463C59.916 23.463 59.971 23.416 59.971 23.263V23.183L59.814 23.185Z" fill="#005B94"/>
<path d="M64.4569 23.185H64.1019L62.9019 20.285H62.8929V23.185H62.5339V20.019H63.1549L64.2729 22.729L65.3959 20.019H66.0159V23.185H65.6569V20.285H65.6489L64.4569 23.185Z" fill="#005B94"/>
<path d="M68.1159 23.185V22.957L68.1079 22.949C67.9809 23.202 67.6569 23.211 67.3779 23.211C66.8779 23.211 66.5339 23.118 66.5339 22.54C66.5339 21.928 66.8509 21.84 67.3989 21.84C67.6189 21.84 68.0489 21.861 68.0989 22.064H68.1199V21.655C68.1199 21.249 67.9049 21.212 67.5289 21.212C67.2669 21.212 66.9469 21.212 66.9509 21.512V21.588H66.6049V21.542C66.6049 20.972 66.9969 20.934 67.4909 20.942C68.0479 20.942 68.4579 20.997 68.4529 21.672V23.183L68.1159 23.185ZM68.1079 22.526C68.1079 22.109 67.8589 22.113 67.4369 22.113C67.0369 22.113 66.8799 22.138 66.8799 22.497C66.8799 22.919 67.0519 22.94 67.4369 22.94C67.7709 22.94 68.1079 22.932 68.1079 22.526Z" fill="#005B94"/>
<path d="M69.37 21.2401H69.378C69.483 20.9741 69.809 20.9401 70.062 20.9401C70.632 20.9401 70.906 21.0921 70.898 21.7081V23.1811H70.564V21.6811C70.564 21.2761 70.408 21.2081 70.032 21.2081C69.488 21.2081 69.37 21.3771 69.37 21.8871V23.1781H69.036V20.9691H69.37V21.2401Z" fill="#005B94"/>
<path d="M71.715 23.185V22.754H72.091V23.264C72.091 23.488 72.049 23.657 71.766 23.657H71.666V23.463C71.818 23.463 71.873 23.416 71.873 23.263V23.183L71.715 23.185Z" fill="#005B94"/>
<path d="M75.931 23.185V22.957L75.923 22.949C75.796 23.202 75.471 23.211 75.193 23.211C74.693 23.211 74.349 23.118 74.349 22.54C74.349 21.928 74.665 21.84 75.214 21.84C75.434 21.84 75.864 21.861 75.914 22.064H75.931V21.655C75.931 21.249 75.716 21.212 75.34 21.212C75.078 21.212 74.758 21.212 74.762 21.512V21.588H74.416V21.542C74.416 20.972 74.809 20.934 75.302 20.942C75.859 20.942 76.268 20.997 76.264 21.672V23.183L75.931 23.185ZM75.923 22.526C75.923 22.109 75.674 22.113 75.252 22.113C74.852 22.113 74.695 22.138 74.695 22.497C74.695 22.919 74.868 22.94 75.252 22.94C75.585 22.94 75.923 22.932 75.923 22.526Z" fill="#005B94"/>
<path d="M77.186 21.2401H77.194C77.299 20.9741 77.625 20.9401 77.877 20.9401C78.447 20.9401 78.722 21.0921 78.713 21.7081V23.1811H78.379V21.6811C78.379 21.2761 78.223 21.2081 77.847 21.2081C77.303 21.2081 77.184 21.3771 77.184 21.8871V23.1781H76.855V20.9691H77.189L77.186 21.2401Z" fill="#005B94"/>
<path d="M80.82 22.906L80.812 22.897C80.681 23.163 80.398 23.209 80.099 23.209C79.31 23.209 79.23 22.753 79.23 22.078C79.23 21.403 79.306 20.942 80.099 20.942C80.344 20.942 80.715 20.972 80.812 21.242H80.82V20.019H81.154V23.185H80.82V22.906ZM80.82 22.079C80.82 21.47 80.748 21.214 80.204 21.214C79.694 21.214 79.575 21.302 79.575 22.079C79.575 22.856 79.727 22.94 80.204 22.94C80.723 22.94 80.82 22.763 80.82 22.079Z" fill="#005B94"/>
<path d="M43.538 28.4571C43.4082 28.4648 43.2782 28.4435 43.1576 28.3948C43.037 28.346 42.9288 28.2711 42.8407 28.1754C42.7527 28.0796 42.687 27.9655 42.6485 27.8413C42.61 27.7171 42.5995 27.5858 42.618 27.4571V26.2371C42.618 25.3421 43.171 25.2371 43.939 25.2371H44.239C44.902 25.2371 45.104 25.5241 45.104 26.1491V26.2491H44.745V26.1601C44.745 25.7171 44.652 25.5521 44.188 25.5521H43.988C43.245 25.5521 42.988 25.6411 42.988 26.2191V27.0881C42.988 27.8101 43.018 28.1351 43.617 28.1351H44.044C44.618 28.1351 44.795 28.0551 44.795 27.6031V27.3521H45.154V27.6521C45.154 28.3781 44.689 28.4581 44.054 28.4581L43.538 28.4571Z" fill="#005B94"/>
<path d="M46.4711 28.589C46.3521 29.007 46.2551 29.416 45.7241 29.416C45.6728 29.4139 45.6219 29.4069 45.5721 29.395V29.138C45.6112 29.1464 45.6511 29.1504 45.6911 29.15C46.0371 29.15 46.0751 28.686 46.1511 28.433H46.0321L45.2321 26.217H45.5731L46.2571 28.188H46.2651L46.7651 26.217H47.1111L46.4711 28.589Z" fill="#005B94"/>
<path d="M47.396 25.2661H47.729V26.5031H47.737C47.843 26.2201 48.193 26.1901 48.45 26.1901C49.214 26.1901 49.315 26.6331 49.315 27.3251C49.315 28.0471 49.215 28.4561 48.45 28.4561C48.15 28.4561 47.859 28.4011 47.737 28.1561L47.729 28.1651V28.4271H47.396V25.2661ZM48.358 26.4611C47.775 26.4611 47.737 26.6931 47.737 27.3261C47.737 28.0441 47.868 28.1871 48.358 28.1871C48.949 28.1871 48.97 27.9341 48.97 27.3261C48.97 26.6001 48.89 26.4611 48.358 26.4611Z" fill="#005B94"/>
<path d="M51.701 27.761V27.841C51.701 28.427 51.25 28.457 50.755 28.457C49.89 28.457 49.755 28.17 49.755 27.326C49.755 26.406 49.955 26.191 50.755 26.191C51.473 26.191 51.701 26.355 51.701 27.174V27.398H50.101C50.101 28.098 50.152 28.187 50.751 28.187C51.207 28.187 51.351 28.158 51.351 27.846V27.761H51.701ZM51.355 27.128C51.338 26.499 51.262 26.461 50.755 26.461C50.155 26.461 50.13 26.617 50.105 27.128H51.355Z" fill="#005B94"/>
<path d="M52.507 26.2161L52.49 26.4901L52.498 26.4991C52.5614 26.392 52.6547 26.3058 52.7665 26.251C52.8783 26.1963 53.0036 26.1755 53.127 26.1911C53.2116 26.1787 53.2979 26.1864 53.3789 26.2135C53.46 26.2407 53.5335 26.2866 53.5934 26.3474C53.6534 26.4083 53.6982 26.4825 53.7242 26.5639C53.7502 26.6453 53.7567 26.7317 53.743 26.8161V26.9751H53.426V26.8271C53.426 26.5531 53.333 26.4601 53.055 26.4601C52.642 26.4601 52.507 26.6601 52.515 27.0511V28.4311H52.181V26.2161H52.507Z" fill="#005B94"/>
<path d="M54.44 26.487H54.4481C54.5531 26.221 54.879 26.187 55.132 26.187C55.702 26.187 55.976 26.339 55.968 26.955V28.428H55.634V26.928C55.634 26.523 55.4781 26.455 55.1021 26.455C54.5581 26.455 54.44 26.624 54.44 27.134V28.425H54.1071V26.216H54.44V26.487Z" fill="#005B94"/>
<path d="M58.436 27.761V27.841C58.436 28.427 57.985 28.457 57.491 28.457C56.625 28.457 56.491 28.17 56.491 27.326C56.491 26.406 56.691 26.191 57.491 26.191C58.208 26.191 58.436 26.355 58.436 27.174V27.398H56.836C56.836 28.098 56.887 28.187 57.486 28.187C57.942 28.187 58.086 28.158 58.086 27.846V27.761H58.436ZM58.09 27.128C58.073 26.499 57.997 26.461 57.49 26.461C56.89 26.461 56.865 26.617 56.84 27.128H58.09Z" fill="#005B94"/>
<path d="M60.1341 26.4861H59.2771V27.8921C59.2771 28.1321 59.3451 28.187 59.5891 28.187C59.9011 28.187 59.9011 28.023 59.9011 27.812V27.647H60.2181V27.812C60.2181 28.251 60.0371 28.4581 59.5801 28.4581C59.0611 28.4581 58.9431 28.3101 58.9431 27.7911V26.4911H58.6431V26.2201H58.9431V25.6801H59.2761V26.216H60.1331L60.1341 26.4861Z" fill="#005B94"/>
<path d="M60.851 25.6331H60.517V25.2661H60.851V25.6331ZM60.851 28.4331H60.517V26.2151H60.851V28.4331Z" fill="#005B94"/>
<path d="M63.282 27.63V27.753C63.282 28.377 62.868 28.453 62.341 28.453C61.421 28.453 61.3571 28.099 61.3571 27.275C61.3571 26.553 61.4841 26.186 62.2861 26.186C62.8221 26.186 63.244 26.245 63.244 26.874V26.933H62.91V26.875C62.91 26.475 62.691 26.466 62.31 26.466C61.72 26.466 61.7101 26.666 61.7101 27.378C61.7101 28.003 61.7351 28.193 62.3851 28.193C62.8031 28.193 62.955 28.147 62.955 27.746V27.636L63.282 27.63Z" fill="#005B94"/>
<path d="M65.511 26.795H65.165V26.711C65.165 26.487 64.996 26.487 64.646 26.487C64.228 26.487 64.026 26.487 64.026 26.757C64.026 27.157 64.135 27.124 64.481 27.141C65.051 27.175 65.57 27.086 65.57 27.808C65.57 28.432 65.14 28.458 64.646 28.458C64.152 28.458 63.662 28.432 63.662 27.939V27.732H64.008V27.905C64.008 28.116 64.139 28.162 64.646 28.162C64.874 28.162 65.224 28.213 65.224 27.821C65.224 27.407 65.051 27.483 64.646 27.458C64.164 27.424 63.679 27.475 63.679 26.846C63.679 26.217 64.046 26.192 64.646 26.192C65.034 26.192 65.511 26.209 65.511 26.711V26.795Z" fill="#005B94"/>
<path d="M67.3671 26.1611C67.3671 25.3161 67.7551 25.2411 68.5361 25.2411C69.2201 25.2411 69.7141 25.2711 69.6761 26.1311H69.3171C69.3001 25.5781 69.1941 25.5571 68.5231 25.5571C67.8231 25.5571 67.723 25.6461 67.723 26.0851C67.723 26.6851 68.0101 26.6381 68.6011 26.6551C69.3521 26.6971 69.7321 26.6761 69.7321 27.5331C69.7321 28.4281 69.3101 28.4571 68.5121 28.4571C67.7141 28.4571 67.2881 28.3571 67.3561 27.4441H67.7151C67.7071 28.1441 67.8421 28.1441 68.5151 28.1441C69.1881 28.1441 69.376 28.1441 69.376 27.5241C69.376 26.9241 69.1051 27.0241 68.5281 26.9751C67.9031 26.9241 67.3671 27.0001 67.3671 26.1651" fill="#005B94"/>
<path d="M71.086 26.191C71.909 26.191 72.0701 26.391 72.0701 27.327C72.0701 28.263 71.909 28.458 71.086 28.458C70.263 28.458 70.1021 28.258 70.1021 27.327C70.1021 26.396 70.263 26.191 71.086 26.191ZM71.086 28.191C71.681 28.191 71.7231 28.098 71.7231 27.33C71.7231 26.562 71.681 26.465 71.086 26.465C70.491 26.465 70.448 26.558 70.448 27.33C70.448 28.102 70.49 28.191 71.086 28.191Z" fill="#005B94"/>
<path d="M74.4331 27.63V27.753C74.4331 28.377 74.0191 28.453 73.4921 28.453C72.5711 28.453 72.5081 28.099 72.5081 27.275C72.5081 26.553 72.6351 26.186 73.4361 26.186C73.9721 26.186 74.3941 26.245 74.3941 26.874V26.933H74.0601V26.875C74.0601 26.475 73.8411 26.466 73.4601 26.466C72.8691 26.466 72.8601 26.666 72.8601 27.378C72.8601 28.003 72.8861 28.193 73.5361 28.193C73.9541 28.193 74.1061 28.147 74.1061 27.746V27.636L74.4331 27.63Z" fill="#005B94"/>
<path d="M75.238 25.6331H74.905V25.2661H75.238V25.6331ZM75.238 28.4331H74.905V26.2151H75.238V28.4331Z" fill="#005B94"/>
<path d="M77.695 27.761V27.841C77.695 28.427 77.244 28.457 76.75 28.457C75.885 28.457 75.75 28.17 75.75 27.326C75.75 26.406 75.95 26.191 76.75 26.191C77.467 26.191 77.695 26.355 77.695 27.174V27.398H76.095C76.095 28.098 76.146 28.187 76.745 28.187C77.201 28.187 77.345 28.158 77.345 27.846V27.761H77.695ZM77.349 27.128C77.332 26.499 77.256 26.461 76.749 26.461C76.149 26.461 76.124 26.617 76.099 27.128H77.349Z" fill="#005B94"/>
<path d="M79.396 26.4861H78.539V27.8921C78.539 28.1321 78.606 28.187 78.851 28.187C79.163 28.187 79.1631 28.023 79.1631 27.812V27.647H79.48V27.812C79.48 28.251 79.298 28.4581 78.842 28.4581C78.323 28.4581 78.205 28.3101 78.205 27.7911V26.4911H77.905V26.2201H78.205V25.6801H78.539V26.216H79.396V26.4861Z" fill="#005B94"/>
<path d="M80.7171 28.589C80.5981 29.007 80.5011 29.416 79.9691 29.416C79.9179 29.414 79.8669 29.407 79.8171 29.395V29.138C79.8558 29.1464 79.8954 29.1504 79.9351 29.15C80.2811 29.15 80.3191 28.686 80.3951 28.433H80.2761L79.4761 26.217H79.8181L80.5011 28.188H80.5091L81.0091 26.217H81.3551L80.7171 28.589Z" fill="#005B94"/>
<path d="M47.422 11.761C50.401 11.976 51.139 12.351 51.139 14.661C51.139 16.325 51.206 17.961 46.778 17.961C44.215 17.961 42.51 17.907 42.51 14.606H45.087C45.087 15.653 45.463 15.76 46.778 15.76C48.039 15.76 48.455 15.679 48.455 14.834C48.455 13.962 48.307 13.975 47.046 13.895L46.456 13.855C43.974 13.681 42.524 13.694 42.524 10.809C42.524 7.92396 44.148 7.73596 46.778 7.73596C48.978 7.73596 50.857 7.77596 50.857 10.554V10.97H48.281C48.281 9.93696 47.851 9.93696 46.781 9.93696C45.332 9.93696 45.211 10.237 45.211 10.796C45.211 11.596 45.6 11.628 46.311 11.682L47.422 11.761Z" fill="#005B94"/>
<path d="M54.226 17.965H51.542V7.896H55.796L57.715 14.216H57.809L59.634 7.896H63.995V17.965H61.311L61.579 10.249H61.49L58.937 17.965H56.615L54.038 10.249H53.958L54.226 17.965Z" fill="#005B94"/>
<path d="M73.254 14.149V14.444C73.3387 14.9598 73.2989 15.4885 73.1378 15.9858C72.9767 16.4831 72.699 16.9347 72.328 17.303C71.387 17.9257 70.2528 18.1877 69.134 18.041C66.397 18.041 64.397 17.907 64.397 14.23V11.63C64.397 8.30197 66.182 7.81897 69.134 7.81897C71.899 7.81897 73.187 8.10097 73.241 11.119V11.508H70.476V11.12C70.382 10.22 69.751 10.154 68.839 10.154C67.309 10.154 67.161 10.624 67.161 12.059V13.629C67.161 15.129 67.228 15.709 68.839 15.709C69.953 15.709 70.489 15.629 70.489 14.447V14.152L73.254 14.149Z" fill="#005B94"/>
<path d="M43.009 35.813V31.613H43.981V35.813H43.009ZM46.3577 35.885C46.0217 35.885 45.6997 35.841 45.3917 35.753C45.0837 35.661 44.8357 35.543 44.6477 35.399L44.9777 34.667C45.1577 34.795 45.3697 34.901 45.6137 34.985C45.8617 35.065 46.1117 35.105 46.3637 35.105C46.5557 35.105 46.7097 35.087 46.8257 35.051C46.9457 35.011 47.0337 34.957 47.0897 34.889C47.1457 34.821 47.1737 34.743 47.1737 34.655C47.1737 34.543 47.1297 34.455 47.0417 34.391C46.9537 34.323 46.8377 34.269 46.6937 34.229C46.5497 34.185 46.3897 34.145 46.2137 34.109C46.0417 34.069 45.8677 34.021 45.6917 33.965C45.5197 33.909 45.3617 33.837 45.2177 33.749C45.0737 33.661 44.9557 33.545 44.8637 33.401C44.7757 33.257 44.7317 33.073 44.7317 32.849C44.7317 32.609 44.7957 32.391 44.9237 32.195C45.0557 31.995 45.2517 31.837 45.5117 31.721C45.7757 31.601 46.1057 31.541 46.5017 31.541C46.7657 31.541 47.0257 31.573 47.2817 31.637C47.5377 31.697 47.7637 31.789 47.9597 31.913L47.6597 32.651C47.4637 32.539 47.2677 32.457 47.0717 32.405C46.8757 32.349 46.6837 32.321 46.4957 32.321C46.3077 32.321 46.1537 32.343 46.0337 32.387C45.9137 32.431 45.8277 32.489 45.7757 32.561C45.7237 32.629 45.6977 32.709 45.6977 32.801C45.6977 32.909 45.7417 32.997 45.8297 33.065C45.9177 33.129 46.0337 33.181 46.1777 33.221C46.3217 33.261 46.4797 33.301 46.6517 33.341C46.8277 33.381 47.0017 33.427 47.1737 33.479C47.3497 33.531 47.5097 33.601 47.6537 33.689C47.7977 33.777 47.9137 33.893 48.0017 34.037C48.0937 34.181 48.1397 34.363 48.1397 34.583C48.1397 34.819 48.0737 35.035 47.9417 35.231C47.8097 35.427 47.6117 35.585 47.3477 35.705C47.0877 35.825 46.7577 35.885 46.3577 35.885ZM48.8039 35.813V31.613H49.7759V35.813H48.8039ZM50.7727 35.813V31.613H51.5767L53.3647 34.577H52.9387L54.6967 31.613H55.4947L55.5067 35.813H54.5947L54.5887 33.011H54.7567L53.3527 35.369H52.9147L51.4807 33.011H51.6847V35.813H50.7727ZM57.8831 35.885C57.5471 35.885 57.2251 35.841 56.9171 35.753C56.6091 35.661 56.3611 35.543 56.1731 35.399L56.5031 34.667C56.6831 34.795 56.8951 34.901 57.1391 34.985C57.3871 35.065 57.6371 35.105 57.8891 35.105C58.0811 35.105 58.2351 35.087 58.3511 35.051C58.4711 35.011 58.5591 34.957 58.6151 34.889C58.6711 34.821 58.6991 34.743 58.6991 34.655C58.6991 34.543 58.6551 34.455 58.5671 34.391C58.4791 34.323 58.3631 34.269 58.2191 34.229C58.0751 34.185 57.9151 34.145 57.7391 34.109C57.5671 34.069 57.3931 34.021 57.2171 33.965C57.0451 33.909 56.8871 33.837 56.7431 33.749C56.5991 33.661 56.4811 33.545 56.3891 33.401C56.3011 33.257 56.2571 33.073 56.2571 32.849C56.2571 32.609 56.3211 32.391 56.4491 32.195C56.5811 31.995 56.7771 31.837 57.0371 31.721C57.3011 31.601 57.6311 31.541 58.0271 31.541C58.2911 31.541 58.5511 31.573 58.8071 31.637C59.0631 31.697 59.2891 31.789 59.4851 31.913L59.1851 32.651C58.9891 32.539 58.7931 32.457 58.5971 32.405C58.4011 32.349 58.2091 32.321 58.0211 32.321C57.8331 32.321 57.6791 32.343 57.5591 32.387C57.4391 32.431 57.3531 32.489 57.3011 32.561C57.2491 32.629 57.2231 32.709 57.2231 32.801C57.2231 32.909 57.2671 32.997 57.3551 33.065C57.4431 33.129 57.5591 33.181 57.7031 33.221C57.8471 33.261 58.0051 33.301 58.1771 33.341C58.3531 33.381 58.5271 33.427 58.6991 33.479C58.8751 33.531 59.0351 33.601 59.1791 33.689C59.3231 33.777 59.4391 33.893 59.5271 34.037C59.6191 34.181 59.6651 34.363 59.6651 34.583C59.6651 34.819 59.5991 35.035 59.4671 35.231C59.3351 35.427 59.1371 35.585 58.8731 35.705C58.6131 35.825 58.2831 35.885 57.8831 35.885ZM63.0955 35.873C62.8155 35.873 62.5472 35.8363 62.2905 35.763C62.0339 35.6863 61.8272 35.588 61.6705 35.468L61.9455 34.858C62.0955 34.9647 62.2722 35.053 62.4755 35.123C62.6822 35.1897 62.8905 35.223 63.1005 35.223C63.2605 35.223 63.3889 35.208 63.4855 35.178C63.5855 35.1447 63.6589 35.0997 63.7055 35.043C63.7522 34.9863 63.7755 34.9213 63.7755 34.848C63.7755 34.7547 63.7389 34.6813 63.6655 34.628C63.5922 34.5713 63.4955 34.5263 63.3755 34.493C63.2555 34.4563 63.1222 34.423 62.9755 34.393C62.8322 34.3597 62.6872 34.3197 62.5405 34.273C62.3972 34.2263 62.2655 34.1663 62.1455 34.093C62.0255 34.0197 61.9272 33.923 61.8505 33.803C61.7772 33.683 61.7405 33.5297 61.7405 33.343C61.7405 33.143 61.7939 32.9613 61.9005 32.798C62.0105 32.6313 62.1739 32.4997 62.3905 32.403C62.6105 32.303 62.8855 32.253 63.2155 32.253C63.4355 32.253 63.6522 32.2797 63.8655 32.333C64.0789 32.383 64.2672 32.4597 64.4305 32.563L64.1805 33.178C64.0172 33.0847 63.8539 33.0163 63.6905 32.973C63.5272 32.9263 63.3672 32.903 63.2105 32.903C63.0539 32.903 62.9255 32.9213 62.8255 32.958C62.7255 32.9947 62.6539 33.043 62.6105 33.103C62.5672 33.1597 62.5455 33.2263 62.5455 33.303C62.5455 33.393 62.5822 33.4663 62.6555 33.523C62.7289 33.5763 62.8255 33.6197 62.9455 33.653C63.0655 33.6863 63.1972 33.7197 63.3405 33.753C63.4872 33.7863 63.6322 33.8247 63.7755 33.868C63.9222 33.9113 64.0555 33.9697 64.1755 34.043C64.2955 34.1163 64.3922 34.213 64.4655 34.333C64.5422 34.453 64.5805 34.6047 64.5805 34.788C64.5805 34.9847 64.5255 35.1647 64.4155 35.328C64.3055 35.4913 64.1405 35.623 63.9205 35.723C63.7039 35.823 63.4289 35.873 63.0955 35.873ZM65.134 35.813V32.313H66.844C67.284 32.313 67.614 32.3963 67.834 32.563C68.0573 32.7297 68.169 32.9497 68.169 33.223C68.169 33.4063 68.124 33.5663 68.034 33.703C67.944 33.8363 67.8207 33.9397 67.664 34.013C67.5073 34.0863 67.3273 34.123 67.124 34.123L67.219 33.918C67.439 33.918 67.634 33.9547 67.804 34.028C67.974 34.098 68.1057 34.203 68.199 34.343C68.2957 34.483 68.344 34.6547 68.344 34.858C68.344 35.158 68.2257 35.393 67.989 35.563C67.7523 35.7297 67.404 35.813 66.944 35.813H65.134ZM65.939 35.203H66.884C67.094 35.203 67.2523 35.1697 67.359 35.103C67.469 35.033 67.524 34.923 67.524 34.773C67.524 34.6263 67.469 34.518 67.359 34.448C67.2523 34.3747 67.094 34.338 66.884 34.338H65.879V33.748H66.744C66.9407 33.748 67.0907 33.7147 67.194 33.648C67.3007 33.578 67.354 33.473 67.354 33.333C67.354 33.1963 67.3007 33.0947 67.194 33.028C67.0907 32.958 66.9407 32.923 66.744 32.923H65.939V35.203ZM72.0483 35.873C71.7783 35.873 71.5266 35.8297 71.2933 35.743C71.0633 35.653 70.8633 35.5263 70.6933 35.363C70.5233 35.1997 70.3899 35.008 70.2933 34.788C70.1999 34.568 70.1533 34.3263 70.1533 34.063C70.1533 33.7997 70.1999 33.558 70.2933 33.338C70.3899 33.118 70.5233 32.9263 70.6933 32.763C70.8666 32.5997 71.0683 32.4747 71.2983 32.388C71.5283 32.298 71.7799 32.253 72.0533 32.253C72.3566 32.253 72.6299 32.3063 72.8733 32.413C73.1199 32.5163 73.3266 32.6697 73.4933 32.873L72.9733 33.353C72.8533 33.2163 72.7199 33.1147 72.5733 33.048C72.4266 32.978 72.2666 32.943 72.0933 32.943C71.9299 32.943 71.7799 32.9697 71.6433 33.023C71.5066 33.0763 71.3883 33.153 71.2883 33.253C71.1883 33.353 71.1099 33.4713 71.0533 33.608C70.9999 33.7447 70.9733 33.8963 70.9733 34.063C70.9733 34.2297 70.9999 34.3813 71.0533 34.518C71.1099 34.6547 71.1883 34.773 71.2883 34.873C71.3883 34.973 71.5066 35.0497 71.6433 35.103C71.7799 35.1563 71.9299 35.183 72.0933 35.183C72.2666 35.183 72.4266 35.1497 72.5733 35.083C72.7199 35.013 72.8533 34.908 72.9733 34.768L73.4933 35.248C73.3266 35.4513 73.1199 35.6063 72.8733 35.713C72.6299 35.8197 72.3549 35.873 72.0483 35.873ZM76.4402 32.313H77.2502V35.813H76.4402V32.313ZM74.8502 35.813H74.0402V32.313H74.8502V35.813ZM76.5002 34.378H74.7902V33.693H76.5002V34.378ZM77.6183 35.813L79.1783 32.313H79.9783L81.5433 35.813H80.6933L79.4133 32.723H79.7333L78.4483 35.813H77.6183ZM78.3983 35.063L78.6133 34.448H80.4133L80.6333 35.063H78.3983ZM81.9065 35.813V32.313H83.4215C83.7348 32.313 84.0048 32.3647 84.2315 32.468C84.4581 32.568 84.6331 32.713 84.7565 32.903C84.8798 33.093 84.9415 33.3197 84.9415 33.583C84.9415 33.843 84.8798 34.068 84.7565 34.258C84.6331 34.448 84.4581 34.5947 84.2315 34.698C84.0048 34.798 83.7348 34.848 83.4215 34.848H82.3565L82.7165 34.483V35.813H81.9065ZM82.7165 34.573L82.3565 34.188H83.3765C83.6265 34.188 83.8131 34.1347 83.9365 34.028C84.0598 33.9213 84.1215 33.773 84.1215 33.583C84.1215 33.3897 84.0598 33.2397 83.9365 33.133C83.8131 33.0263 83.6265 32.973 83.3765 32.973H82.3565L82.7165 32.588V34.573ZM86.152 35.813V32.973H85.032V32.313H88.082V32.973H86.962V35.813H86.152ZM89.2628 33.723H90.9478V34.353H89.2628V33.723ZM89.3228 35.163H91.2278V35.813H88.5178V32.313H91.1628V32.963H89.3228V35.163ZM91.8723 35.813V32.313H93.3873C93.7006 32.313 93.9706 32.3647 94.1973 32.468C94.4239 32.568 94.5989 32.713 94.7223 32.903C94.8456 33.093 94.9073 33.3197 94.9073 33.583C94.9073 33.843 94.8456 34.068 94.7223 34.258C94.5989 34.4447 94.4239 34.588 94.1973 34.688C93.9706 34.788 93.7006 34.838 93.3873 34.838H92.3223L92.6823 34.483V35.813H91.8723ZM94.0973 35.813L93.2223 34.543H94.0873L94.9723 35.813H94.0973ZM92.6823 34.573L92.3223 34.193H93.3423C93.5923 34.193 93.7789 34.1397 93.9023 34.033C94.0256 33.923 94.0873 33.773 94.0873 33.583C94.0873 33.3897 94.0256 33.2397 93.9023 33.133C93.7789 33.0263 93.5923 32.973 93.3423 32.973H92.3223L92.6823 32.588V34.573Z" fill="#9B1D20"/>
</g>
<defs>
<clipPath id="clip0_431_401">
<rect width="95.512" height="37.813" fill="white"/>
</clipPath>
</defs>
</svg>
