<svg width="106" height="32" viewBox="0 0 106 32" fill="none" xmlns="http://www.w3.org/2000/svg">
<g clip-path="url(#clip0_139_782)">
<path d="M31.8794 31.1132L25.5492 0L0 21.0613L10.1226 24.2498C12.0475 22.6663 14.4492 21.7766 16.9411 21.7239C16.1373 21.0743 15.4953 20.247 15.0656 19.3071C14.6359 18.3671 14.4303 17.3403 14.465 16.3074C14.465 12.8578 16.6721 10.0618 19.3943 10.0618C22.1165 10.0618 24.3236 12.8578 24.3236 16.3074C24.3236 19.1083 22.8688 21.4788 20.864 22.271C22.5808 22.7628 24.1252 23.7264 25.3217 25.0522C26.5183 26.378 27.3189 28.0129 27.6327 29.771L31.8794 31.1132Z" fill="#005B94"/>
<path d="M41.8137 4.91235H41.3822V8.73561H41.8137V4.91235Z" fill="#005B94"/>
<path d="M42.3966 4.91235V8.73561H44.8528V8.37092H42.8271V6.94305H44.7681V6.57837H42.8271V5.27605H44.8528V4.91235H42.3966Z" fill="#005B94"/>
<path d="M45.2533 4.91235V8.73561H47.7095V8.37092H45.6847V6.94305H47.6258V6.57837H45.6847V5.27605H47.7095V4.91235H45.2533Z" fill="#005B94"/>
<path d="M48.1111 4.91235V8.73561H50.5673V8.37092H48.5455V6.94305H50.4865V6.57837H48.5455V5.27605H50.5712V4.91235H48.1111Z" fill="#005B94"/>
<path d="M41.3075 23.1498C41.3075 22.4613 41.6244 22.3995 42.2611 22.3995C42.8191 22.3995 43.2216 22.4235 43.1907 23.1259H42.8978C42.8838 22.6755 42.7981 22.6576 42.2501 22.6576C41.6792 22.6576 41.5994 22.7303 41.5994 23.0881C41.5994 23.5803 41.8336 23.5384 42.3149 23.5524C42.9277 23.5873 43.2375 23.5693 43.2375 24.2688C43.2375 24.9982 42.8928 25.0231 42.2411 25.0231C41.5895 25.0231 41.2447 24.9444 41.2975 24.1971H41.5905C41.5835 24.765 41.6901 24.765 42.2411 24.765C42.7922 24.765 42.9386 24.765 42.9386 24.2589C42.9386 23.7527 42.7184 23.8493 42.2471 23.8115C41.7379 23.7696 41.3005 23.8324 41.3005 23.1508" fill="#005B94"/>
<path d="M44.3576 25.1286C44.2579 25.4694 44.1822 25.8032 43.7488 25.8032C43.7071 25.8016 43.6657 25.7959 43.6252 25.7863V25.576C43.6579 25.5832 43.6914 25.5865 43.7249 25.586C44.0068 25.586 44.0377 25.2074 44.0995 25.0011H43.9999L43.3452 23.1936H43.6242L44.1822 24.8008H44.1892L44.5947 23.1936H44.8777L44.3576 25.1286Z" fill="#005B94"/>
<path d="M46.5397 23.666H46.2577V23.5972C46.2577 23.4149 46.1202 23.4149 45.8343 23.4149C45.4935 23.4149 45.3281 23.4149 45.3281 23.6351C45.3281 23.9589 45.4178 23.934 45.6997 23.9479C46.1651 23.9758 46.5876 23.9031 46.5876 24.492C46.5876 25.0012 46.2368 25.0221 45.8333 25.0221C45.4297 25.0221 45.0361 25.0012 45.0361 24.5986V24.4302H45.3191V24.5717C45.3191 24.7441 45.4257 24.782 45.8383 24.782C46.0246 24.782 46.3096 24.8238 46.3096 24.5039C46.3096 24.1662 46.1681 24.2279 45.8383 24.205C45.4457 24.1771 45.0501 24.219 45.0501 23.7068C45.0501 23.1947 45.349 23.1727 45.8383 23.1727C46.1551 23.1727 46.5437 23.1867 46.5437 23.5962L46.5397 23.666Z" fill="#005B94"/>
<path d="M47.9247 23.4148H47.2272V24.5607C47.2272 24.76 47.283 24.8009 47.4823 24.8009C47.7374 24.8009 47.7374 24.6673 47.7374 24.495V24.3614H47.9955V24.4959C47.9955 24.8537 47.848 25.0231 47.4764 25.0231C47.0529 25.0231 46.9562 24.9025 46.9562 24.479V23.4148H46.7151V23.1946H46.9562V22.7572H47.2282V23.1936H47.9257L47.9247 23.4148Z" fill="#005B94"/>
<path d="M49.7652 24.4521V24.5179C49.7652 24.9962 49.3965 25.0161 48.994 25.0161C48.2885 25.0161 48.1819 24.7819 48.1819 24.0934C48.1819 23.3431 48.3473 23.1677 48.994 23.1677C49.5799 23.1677 49.7652 23.3012 49.7652 23.9649V24.1532H48.4639C48.4639 24.7241 48.5057 24.7969 48.994 24.7969C49.3656 24.7969 49.4862 24.773 49.4862 24.5189V24.4521H49.7652ZM49.4822 23.936C49.4683 23.4228 49.4065 23.3919 48.994 23.3919C48.5017 23.3919 48.4848 23.5185 48.4639 23.936H49.4822Z" fill="#005B94"/>
<path d="M50.4586 23.4727H50.4656C50.5254 23.3702 50.6138 23.2873 50.72 23.2342C50.8262 23.1811 50.9455 23.1601 51.0634 23.1738C51.2797 23.1738 51.5616 23.2355 51.6214 23.4727C51.69 23.3676 51.7867 23.2839 51.9005 23.2311C52.0143 23.1782 52.1406 23.1584 52.2651 23.1738C52.7304 23.1738 52.8919 23.3631 52.8919 23.8105V25.0062H52.6198V23.8384C52.6198 23.5325 52.575 23.395 52.2213 23.395C51.8357 23.395 51.6703 23.5046 51.6703 23.8932V25.0012H51.3982V23.7895C51.3883 23.5484 51.3883 23.391 50.9997 23.391C50.6419 23.391 50.4556 23.5424 50.4556 23.9101V24.9982H50.1836V23.1947H50.4556L50.4586 23.4727Z" fill="#005B94"/>
<path d="M54.797 23.666H54.515V23.5972C54.515 23.4149 54.3775 23.4149 54.0915 23.4149C53.7508 23.4149 53.5854 23.4149 53.5854 23.6351C53.5854 23.9589 53.675 23.934 53.957 23.9479C54.4224 23.9758 54.8448 23.9031 54.8448 24.492C54.8448 25.0012 54.4941 25.0221 54.0915 25.0221C53.689 25.0221 53.2894 25.0012 53.2894 24.5986V24.4302H53.5724V24.5717C53.5724 24.7441 53.679 24.782 54.0925 24.782C54.2779 24.782 54.5638 24.8238 54.5638 24.5039C54.5638 24.1662 54.4224 24.2279 54.0925 24.205C53.7 24.1771 53.3044 24.219 53.3044 23.7068C53.3044 23.1947 53.6033 23.1727 54.0925 23.1727C54.4084 23.1727 54.798 23.1867 54.798 23.5962L54.797 23.666Z" fill="#005B94"/>
<path d="M55.4069 25.0011V24.6504H55.7128V25.0669C55.7128 25.2502 55.6779 25.3867 55.4477 25.3867H55.369V25.2323C55.4926 25.2323 55.5374 25.1944 55.5374 25.0669V25.0021L55.4069 25.0011Z" fill="#005B94"/>
<path d="M59.1922 25.0012H58.9033L57.9258 22.6396H57.9188V25.0012H57.6259V22.4194H58.132L59.0438 24.6295L59.9595 22.4194H60.4657V25.0012H60.1737V22.6396H60.1667L59.1922 25.0012Z" fill="#005B94"/>
<path d="M62.1765 25.0011V24.8148L62.1696 24.8078C62.0699 25.014 61.8019 25.021 61.5717 25.021C61.1662 25.021 60.8832 24.9453 60.8832 24.474C60.8832 23.9758 61.1412 23.906 61.5886 23.906C61.768 23.906 62.1187 23.923 62.1566 24.0884H62.1735V23.7556C62.1735 23.4248 61.9982 23.3939 61.6913 23.3939C61.478 23.3939 61.216 23.3939 61.22 23.641V23.7028H60.938V23.6659C60.938 23.2016 61.2578 23.1677 61.6604 23.1737C62.1148 23.1737 62.4485 23.2185 62.4456 23.7715V25.0011H62.1765ZM62.1696 24.464C62.1696 24.1233 61.9703 24.1272 61.6225 24.1272C61.2987 24.1272 61.1681 24.1482 61.1681 24.4401C61.1681 24.7849 61.3087 24.8018 61.6225 24.8018C61.8945 24.8018 62.1696 24.7948 62.1696 24.464Z" fill="#005B94"/>
<path d="M63.1989 23.4148H63.2059C63.2916 23.1976 63.5566 23.1737 63.7639 23.1737C64.2282 23.1737 64.4524 23.2973 64.4454 23.8005V25.0021H64.1734V23.7795C64.1734 23.4487 64.0459 23.3939 63.739 23.3939C63.2956 23.3939 63.1989 23.5314 63.1989 23.9479V25.0011H62.9269V23.1946H63.1989V23.4148Z" fill="#005B94"/>
<path d="M65.1119 25.0011V24.6504H65.4188V25.0669C65.4188 25.2502 65.384 25.3867 65.1538 25.3867H65.0751V25.2323C65.1986 25.2323 65.2435 25.1944 65.2435 25.0669V25.0021L65.1119 25.0011Z" fill="#005B94"/>
<path d="M68.5506 25.0011V24.8148L68.5436 24.8078C68.4439 25.014 68.1749 25.021 67.9457 25.021C67.5392 25.021 67.2572 24.9453 67.2572 24.474C67.2572 23.9758 67.5153 23.906 67.9627 23.906C68.142 23.906 68.4928 23.923 68.5306 24.0884H68.5476V23.7556C68.5476 23.4248 68.3722 23.3939 68.0653 23.3939C67.8521 23.3939 67.59 23.3939 67.594 23.641V23.7028H67.311V23.6659C67.311 23.2016 67.6309 23.1677 68.0344 23.1737C68.4888 23.1737 68.8226 23.2185 68.8196 23.7715V25.0011H68.5506ZM68.5436 24.464C68.5436 24.1233 68.3443 24.1272 67.9965 24.1272C67.6727 24.1272 67.5422 24.1482 67.5422 24.4401C67.5422 24.7849 67.6837 24.8018 67.9965 24.8018C68.2686 24.8018 68.5436 24.7948 68.5436 24.464Z" fill="#005B94"/>
<path d="M69.574 23.4148H69.5809C69.6666 23.1976 69.9317 23.1737 70.1379 23.1737C70.6033 23.1737 70.8265 23.2973 70.8195 23.8005V25.0021H70.5475V23.7795C70.5475 23.4487 70.4199 23.3939 70.114 23.3939C69.6696 23.3939 69.574 23.5314 69.574 23.9479V25.0011H69.3049V23.1946H69.5769L69.574 23.4148Z" fill="#005B94"/>
<path d="M72.5363 24.771L72.5294 24.764C72.4228 24.9813 72.1916 25.0191 71.9475 25.0191C71.3038 25.0191 71.239 24.6475 71.239 24.0964C71.239 23.5454 71.3008 23.1698 71.9475 23.1698C72.1467 23.1698 72.4457 23.1937 72.5294 23.4139H72.5363V22.4175H72.8084V24.9992H72.5363V24.771ZM72.5363 24.0964C72.5363 23.5982 72.4775 23.391 72.0381 23.391C71.6216 23.391 71.525 23.4627 71.525 24.0964C71.525 24.7302 71.6485 24.7939 72.0381 24.7939C72.4616 24.7939 72.5363 24.6495 72.5363 24.0964Z" fill="#005B94"/>
<path d="M75.1599 25.0221C75.0543 25.0282 74.9487 25.0109 74.8507 24.9713C74.7526 24.9318 74.6645 24.871 74.5928 24.7933C74.521 24.7157 74.4674 24.6231 74.4357 24.5222C74.404 24.4214 74.3951 24.3147 74.4096 24.21V23.2076C74.4096 22.4782 74.8609 22.3955 75.4867 22.3955H75.7278C76.2679 22.3955 76.4333 22.6297 76.4333 23.1388V23.2215H76.1404V23.1488C76.1404 22.7871 76.0646 22.6506 75.686 22.6506H75.5206C74.9147 22.6506 74.7015 22.7233 74.7015 23.1946V23.9031C74.7015 24.492 74.7254 24.757 75.2147 24.757H75.5624C76.0307 24.757 76.1752 24.6913 76.1752 24.3226V24.1163H76.4682V24.3575C76.4682 24.9493 76.0895 25.0151 75.5714 25.0151L75.1599 25.0221Z" fill="#005B94"/>
<path d="M77.5523 25.1286C77.4526 25.4694 77.3759 25.8032 76.9425 25.8032C76.9005 25.8016 76.8588 25.7959 76.8179 25.7863V25.576C76.8507 25.5831 76.8841 25.5865 76.9176 25.586C77.1996 25.586 77.2304 25.2074 77.2932 25.0011H77.1936L76.5399 23.1936H76.8179L77.3759 24.8008H77.3829L77.7894 23.1936H78.0714L77.5523 25.1286Z" fill="#005B94"/>
<path d="M78.3065 22.4194H78.5786V23.4288H78.5855C78.6722 23.1976 78.9572 23.1737 79.1674 23.1737C79.7902 23.1737 79.8729 23.5354 79.8729 24.0994C79.8729 24.6883 79.7942 25.0221 79.1674 25.0221C78.9233 25.0221 78.6852 24.9772 78.5855 24.7809L78.5786 24.7879V25.0012H78.3065V22.4194ZM79.0917 23.3939C78.6164 23.3939 78.5855 23.5833 78.5855 24.0994C78.5855 24.6853 78.6921 24.7969 79.0917 24.7969C79.574 24.7969 79.5899 24.5906 79.5899 24.0994C79.5899 23.5075 79.5242 23.3939 79.0917 23.3939Z" fill="#005B94"/>
<path d="M81.816 24.4521V24.5179C81.816 24.9962 81.4483 25.0161 81.0447 25.0161C80.3393 25.0161 80.2327 24.7819 80.2327 24.0934C80.2327 23.3431 80.3981 23.1677 81.0447 23.1677C81.6306 23.1677 81.816 23.3012 81.816 23.9649V24.1532H80.5147C80.5147 24.7241 80.5555 24.7969 81.0447 24.7969C81.4164 24.7969 81.537 24.773 81.537 24.5189V24.4521H81.816ZM81.534 23.936C81.52 23.4228 81.4583 23.3919 81.0447 23.3919C80.5525 23.3919 80.5356 23.5185 80.5147 23.936H81.534Z" fill="#005B94"/>
<path d="M82.4735 23.1946L82.4596 23.4188L82.4666 23.4258C82.5183 23.3384 82.5944 23.2681 82.6856 23.2235C82.7768 23.1788 82.879 23.1619 82.9797 23.1747C83.0483 23.1653 83.1182 23.172 83.1837 23.1945C83.2492 23.2169 83.3086 23.2544 83.357 23.3039C83.4054 23.3533 83.4416 23.4135 83.4626 23.4795C83.4836 23.5455 83.4889 23.6155 83.4779 23.6838V23.8144H83.2199V23.6938C83.2199 23.4706 83.1441 23.3949 82.9209 23.3949C82.5841 23.3949 82.4735 23.5563 82.4805 23.8772V25.0031H82.2085V23.1946H82.4735Z" fill="#005B94"/>
<path d="M84.0539 23.4148H84.0609C84.1466 23.1976 84.4116 23.1737 84.6189 23.1737C85.0832 23.1737 85.3074 23.2973 85.3004 23.8005V25.0021H85.0284V23.7795C85.0284 23.4487 84.9008 23.3939 84.5939 23.3939C84.1495 23.3939 84.0539 23.5314 84.0539 23.9479V25.0011H83.7819V23.1946H84.0539V23.4148Z" fill="#005B94"/>
<path d="M87.3091 24.4521V24.5179C87.3091 24.9962 86.9414 25.0161 86.5389 25.0161C85.8324 25.0161 85.7268 24.7819 85.7268 24.0934C85.7268 23.3431 85.8922 23.1677 86.5389 23.1677C87.1238 23.1677 87.3091 23.3012 87.3091 23.9649V24.1532H86.0078C86.0078 24.7241 86.0497 24.7969 86.5379 24.7969C86.9096 24.7969 87.0301 24.773 87.0301 24.5189V24.4521H87.3091ZM87.0271 23.936C87.0132 23.4228 86.9514 23.3919 86.5389 23.3919C86.0467 23.3919 86.0297 23.5185 86.0088 23.936H87.0271Z" fill="#005B94"/>
<path d="M88.6932 23.4148H87.9957V24.5607C87.9957 24.76 88.0515 24.8009 88.2508 24.8009C88.5059 24.8009 88.5058 24.6673 88.5058 24.495V24.3614H88.7639V24.4959C88.7639 24.8537 88.6164 25.0231 88.2438 25.0231C87.8203 25.0231 87.7247 24.9025 87.7247 24.479V23.4148H87.4835V23.1946H87.7247V22.7572H87.9967V23.1936H88.6942L88.6932 23.4148Z" fill="#005B94"/>
<path d="M89.2781 22.7184H89.0061V22.4194H89.2781V22.7184ZM89.2781 25.0012H89.0061V23.1936H89.2781V25.0012Z" fill="#005B94"/>
<path d="M91.261 24.3475V24.4471C91.261 24.9563 90.9232 25.0221 90.4938 25.0221C89.7435 25.0221 89.6967 24.7331 89.6967 24.0615C89.6967 23.4726 89.7963 23.1737 90.4539 23.1737C90.8904 23.1737 91.2351 23.2215 91.2351 23.7347V23.7825H90.9631V23.7277C90.9631 23.4009 90.7848 23.3939 90.4709 23.3939C89.9896 23.3939 89.9786 23.5593 89.9786 24.1372C89.9786 24.6464 89.9996 24.8019 90.5297 24.8019C90.8704 24.8019 90.994 24.764 90.994 24.4372V24.3475H91.261Z" fill="#005B94"/>
<path d="M93.0784 23.666H92.7954V23.5972C92.7954 23.4149 92.6579 23.4149 92.372 23.4149C92.0312 23.4149 91.8658 23.4149 91.8658 23.6351C91.8658 23.9589 91.9555 23.934 92.2374 23.9479C92.7028 23.9758 93.1253 23.9031 93.1253 24.492C93.1253 25.0012 92.7745 25.0221 92.372 25.0221C91.9694 25.0221 91.5748 25.0012 91.5748 24.5986V24.4302H91.8568V24.5717C91.8568 24.7441 91.9634 24.782 92.3769 24.782C92.5633 24.782 92.8483 24.8238 92.8483 24.5039C92.8483 24.1662 92.7068 24.2279 92.3769 24.205C91.9843 24.1771 91.5888 24.219 91.5888 23.7068C91.5888 23.1947 91.8877 23.1727 92.3769 23.1727C92.6928 23.1727 93.0824 23.1867 93.0824 23.5962L93.0784 23.666Z" fill="#005B94"/>
<path d="M94.592 23.1498C94.592 22.4613 94.9089 22.3995 95.5456 22.3995C96.1036 22.3995 96.5061 22.4235 96.4752 23.1259H96.1823C96.1683 22.6755 96.0827 22.6576 95.5346 22.6576C94.9637 22.6576 94.884 22.7303 94.884 23.0881C94.884 23.5803 95.1181 23.5384 95.6004 23.5524C96.2132 23.5873 96.5231 23.5693 96.5231 24.2688C96.5231 24.9982 96.1783 25.0231 95.5267 25.0231C94.875 25.0231 94.5302 24.9444 94.583 24.1971H94.876C94.869 24.765 94.9756 24.765 95.5267 24.765C96.0777 24.765 96.2242 24.765 96.2242 24.2589C96.2242 23.7527 96.0039 23.8493 95.5326 23.8115C95.0235 23.7696 94.586 23.8324 94.586 23.1508" fill="#005B94"/>
<path d="M97.6251 23.1737C98.2967 23.1737 98.4222 23.3361 98.4222 24.1004C98.4222 24.8646 98.2917 25.0231 97.6251 25.0231C96.9585 25.0231 96.823 24.8616 96.823 24.1004C96.823 23.3391 96.9535 23.1737 97.6251 23.1737ZM97.6251 24.8019C98.1104 24.8019 98.1443 24.7261 98.1443 24.1044C98.1443 23.4826 98.1094 23.3989 97.6251 23.3989C97.1408 23.3989 97.105 23.4746 97.105 24.1044C97.105 24.7341 97.1389 24.8019 97.6251 24.8019Z" fill="#005B94"/>
<path d="M100.354 24.3475V24.4471C100.354 24.9563 100.016 25.0221 99.587 25.0221C98.8367 25.0221 98.7849 24.7331 98.7849 24.0615C98.7849 23.4726 98.8845 23.1737 99.5422 23.1737C99.9796 23.1737 100.323 23.2215 100.323 23.7347V23.7825H100.051V23.7277C100.051 23.4009 99.872 23.3939 99.5591 23.3939C99.0769 23.3939 99.0669 23.5593 99.0669 24.1372C99.0669 24.6464 99.0878 24.8019 99.6179 24.8019C99.9587 24.8019 100.082 24.764 100.082 24.4372V24.3475H100.354Z" fill="#005B94"/>
<path d="M101.012 22.7184H100.74V22.4194H101.012V22.7184ZM101.012 25.0012H100.74V23.1936H101.012V25.0012Z" fill="#005B94"/>
<path d="M103.019 24.4521V24.5179C103.019 24.9962 102.651 25.0161 102.248 25.0161C101.543 25.0161 101.436 24.7819 101.436 24.0934C101.436 23.3431 101.602 23.1677 102.248 23.1677C102.833 23.1677 103.019 23.3012 103.019 23.9649V24.1532H101.717C101.717 24.7241 101.759 24.7969 102.248 24.7969C102.619 24.7969 102.74 24.773 102.74 24.5189V24.4521H103.019ZM102.737 23.936C102.723 23.4228 102.661 23.3919 102.248 23.3919C101.756 23.3919 101.739 23.5185 101.718 23.936H102.737Z" fill="#005B94"/>
<path d="M104.403 23.4148H103.705V24.5607C103.705 24.76 103.76 24.8009 103.959 24.8009C104.214 24.8009 104.214 24.6673 104.214 24.495V24.3614H104.473V24.4959C104.473 24.8537 104.324 25.0231 103.952 25.0231C103.529 25.0231 103.433 24.9025 103.433 24.479V23.4148H103.192V23.1946H103.433V22.7572H103.705V23.1936H104.403V23.4148Z" fill="#005B94"/>
<path d="M105.48 25.1286C105.38 25.4694 105.303 25.8032 104.87 25.8032C104.828 25.8016 104.787 25.796 104.746 25.7863V25.576C104.779 25.5832 104.813 25.5865 104.846 25.586C105.128 25.586 105.159 25.2074 105.222 25.0011H105.122L104.469 23.1936H104.748L105.304 24.8008H105.311L105.718 23.1936H106L105.48 25.1286Z" fill="#005B94"/>
<path d="M46.7281 13.914C50.2305 14.1661 51.0984 14.6115 51.0984 17.3218C51.0984 19.2777 51.1771 21.2028 45.9708 21.2028C42.9577 21.2028 40.9539 21.14 40.9539 17.259H43.983C43.983 18.4896 44.4244 18.6161 45.9758 18.6161C47.4585 18.6161 47.9477 18.5165 47.9477 17.527C47.9477 16.5017 47.7743 16.5177 46.2907 16.423L45.5932 16.3752C42.6747 16.1699 40.9708 16.1859 40.9708 12.794C40.9708 9.40224 42.8799 9.18103 45.9718 9.18103C48.5625 9.18103 50.7676 9.22886 50.7676 12.4941V12.9834H47.7385C47.7385 11.7687 47.2333 11.7687 45.9718 11.7687C44.2679 11.7687 44.1255 12.1155 44.1255 12.7781C44.1255 13.7247 44.5828 13.7566 45.4208 13.8194L46.7281 13.914Z" fill="#005B94"/>
<path d="M54.7572 21.1071H51.6025V9.27563H56.6036L58.8594 16.7059H58.9701L61.1153 9.27563H66.2419V21.1071H63.0873L63.4031 12.0397H63.2925L60.2953 21.1071H57.5661L54.537 12.0397H54.4393L54.7572 21.1071Z" fill="#005B94"/>
<path d="M77.1278 16.6272V16.974C77.1278 18.2693 77.1118 19.4351 76.0387 20.3349C74.9656 21.2177 73.6563 21.2028 72.2842 21.2028C69.0658 21.2028 66.7152 21.0453 66.7152 16.7189V13.6609C66.7152 9.74895 68.8137 9.177 72.2842 9.177C75.5345 9.177 77.0491 9.50781 77.1118 13.0581V13.5154H73.8615V13.062C73.7509 12.0048 73.0096 11.9261 71.9374 11.9261C70.1389 11.9261 69.9655 12.4781 69.9655 14.1661V16.0124C69.9655 17.7791 70.0442 18.4576 71.9374 18.4576C73.2467 18.4576 73.8775 18.363 73.8775 16.974V16.6272H77.1278Z" fill="#005B94"/>
<path d="M41.6509 26.8182V29H41.1896V26.8182H41.6509ZM42.0305 29V26.8182H43.5006V27.1985H42.4917V27.7184H43.425V28.0987H42.4917V28.6197H43.5049V29H42.0305ZM43.8674 29V26.8182H45.3375V27.1985H44.3287V27.7184H45.2619V28.0987H44.3287V28.6197H45.3418V29H43.8674ZM45.7043 29V26.8182H47.1744V27.1985H46.1656V27.7184H47.0988V28.0987H46.1656V28.6197H47.1787V29H45.7043ZM48.6968 26.8182V29H48.2355V26.8182H48.6968ZM50.2599 27.4457C50.2514 27.3597 50.2148 27.293 50.1502 27.2454C50.0856 27.1978 49.9979 27.174 49.8871 27.174C49.8118 27.174 49.7482 27.1847 49.6964 27.206C49.6445 27.2266 49.6048 27.2553 49.5771 27.2923C49.5501 27.3292 49.5366 27.3711 49.5366 27.418C49.5352 27.457 49.5433 27.4911 49.5611 27.5202C49.5795 27.5494 49.6048 27.5746 49.6367 27.5959C49.6687 27.6165 49.7056 27.6346 49.7475 27.6502C49.7894 27.6651 49.8342 27.6779 49.8817 27.6886L50.0778 27.7354C50.1729 27.7567 50.2603 27.7852 50.3398 27.8207C50.4194 27.8562 50.4883 27.8999 50.5465 27.9517C50.6048 28.0036 50.6499 28.0646 50.6818 28.1349C50.7145 28.2053 50.7312 28.2859 50.7319 28.3768C50.7312 28.5103 50.6971 28.6261 50.6296 28.7241C50.5629 28.8214 50.4663 28.897 50.3398 28.951C50.2141 29.0043 50.0625 29.0309 49.8849 29.0309C49.7088 29.0309 49.5554 29.0039 49.4247 28.9499C49.2947 28.896 49.1932 28.8161 49.12 28.7102C49.0476 28.6037 49.0096 28.4719 49.006 28.315H49.4524C49.4574 28.3881 49.4783 28.4492 49.5153 28.4982C49.5529 28.5465 49.603 28.5831 49.6655 28.608C49.7287 28.6321 49.8001 28.6442 49.8796 28.6442C49.9577 28.6442 50.0256 28.6328 50.0831 28.6101C50.1413 28.5874 50.1864 28.5558 50.2184 28.5153C50.2504 28.4748 50.2663 28.4283 50.2663 28.3757C50.2663 28.3267 50.2518 28.2855 50.2227 28.2521C50.1942 28.2187 50.1523 28.1903 50.0969 28.1669C50.0423 28.1435 49.9751 28.1222 49.8956 28.103L49.658 28.0433C49.4741 27.9986 49.3288 27.9286 49.2223 27.8335C49.1158 27.7383 49.0629 27.6101 49.0636 27.4489C49.0629 27.3168 49.098 27.2013 49.169 27.1026C49.2408 27.0039 49.3391 26.9268 49.4641 26.8714C49.5891 26.8161 49.7312 26.7884 49.8903 26.7884C50.0522 26.7884 50.1935 26.8161 50.3143 26.8714C50.4357 26.9268 50.5302 27.0039 50.5977 27.1026C50.6651 27.2013 50.6999 27.3157 50.7021 27.4457H50.2599ZM51.5035 26.8182V29H51.0422V26.8182H51.5035ZM51.883 26.8182H52.4519L53.0527 28.2841H53.0783L53.6792 26.8182H54.248V29H53.8006V27.5799H53.7825L53.2179 28.9893H52.9132L52.3485 27.5746H52.3304V29H51.883V26.8182ZM55.8117 27.4457C55.8032 27.3597 55.7666 27.293 55.702 27.2454C55.6373 27.1978 55.5496 27.174 55.4388 27.174C55.3635 27.174 55.3 27.1847 55.2481 27.206C55.1963 27.2266 55.1565 27.2553 55.1288 27.2923C55.1018 27.3292 55.0883 27.3711 55.0883 27.418C55.0869 27.457 55.0951 27.4911 55.1128 27.5202C55.1313 27.5494 55.1565 27.5746 55.1885 27.5959C55.2204 27.6165 55.2574 27.6346 55.2993 27.6502C55.3412 27.6651 55.3859 27.6779 55.4335 27.6886L55.6295 27.7354C55.7247 27.7567 55.8121 27.7852 55.8916 27.8207C55.9711 27.8562 56.04 27.8999 56.0983 27.9517C56.1565 28.0036 56.2016 28.0646 56.2336 28.1349C56.2662 28.2053 56.2829 28.2859 56.2836 28.3768C56.2829 28.5103 56.2488 28.6261 56.1814 28.7241C56.1146 28.8214 56.018 28.897 55.8916 28.951C55.7659 29.0043 55.6143 29.0309 55.4367 29.0309C55.2606 29.0309 55.1072 29.0039 54.9765 28.9499C54.8465 28.896 54.7449 28.8161 54.6718 28.7102C54.5993 28.6037 54.5613 28.4719 54.5578 28.315H55.0042C55.0091 28.3881 55.0301 28.4492 55.067 28.4982C55.1047 28.5465 55.1547 28.5831 55.2172 28.608C55.2805 28.6321 55.3518 28.6442 55.4314 28.6442C55.5095 28.6442 55.5773 28.6328 55.6349 28.6101C55.6931 28.5874 55.7382 28.5558 55.7702 28.5153C55.8021 28.4748 55.8181 28.4283 55.8181 28.3757C55.8181 28.3267 55.8035 28.2855 55.7744 28.2521C55.746 28.2187 55.7041 28.1903 55.6487 28.1669C55.594 28.1435 55.5269 28.1222 55.4474 28.103L55.2098 28.0433C55.0258 27.9986 54.8806 27.9286 54.7741 27.8335C54.6675 27.7383 54.6146 27.6101 54.6153 27.4489C54.6146 27.3168 54.6498 27.2013 54.7208 27.1026C54.7925 27.0039 54.8909 26.9268 55.0159 26.8714C55.1409 26.8161 55.2829 26.7884 55.442 26.7884C55.604 26.7884 55.7453 26.8161 55.866 26.8714C55.9875 26.9268 56.0819 27.0039 56.1494 27.1026C56.2169 27.2013 56.2517 27.3157 56.2538 27.4457H55.8117ZM58.4719 27.4457C58.4633 27.3597 58.4268 27.293 58.3621 27.2454C58.2975 27.1978 58.2098 27.174 58.099 27.174C58.0237 27.174 57.9601 27.1847 57.9083 27.206C57.8564 27.2266 57.8167 27.2553 57.789 27.2923C57.762 27.3292 57.7485 27.3711 57.7485 27.418C57.7471 27.457 57.7552 27.4911 57.773 27.5202C57.7915 27.5494 57.8167 27.5746 57.8486 27.5959C57.8806 27.6165 57.9175 27.6346 57.9594 27.6502C58.0013 27.6651 58.0461 27.6779 58.0937 27.6886L58.2897 27.7354C58.3849 27.7567 58.4722 27.7852 58.5518 27.8207C58.6313 27.8562 58.7002 27.8999 58.7584 27.9517C58.8167 28.0036 58.8618 28.0646 58.8937 28.1349C58.9264 28.2053 58.9431 28.2859 58.9438 28.3768C58.9431 28.5103 58.909 28.6261 58.8415 28.7241C58.7748 28.8214 58.6782 28.897 58.5518 28.951C58.426 29.0043 58.2744 29.0309 58.0969 29.0309C57.9207 29.0309 57.7673 29.0039 57.6366 28.9499C57.5067 28.896 57.4051 28.8161 57.3319 28.7102C57.2595 28.6037 57.2215 28.4719 57.218 28.315H57.6643C57.6693 28.3881 57.6903 28.4492 57.7272 28.4982C57.7648 28.5465 57.8149 28.5831 57.8774 28.608C57.9406 28.6321 58.012 28.6442 58.0915 28.6442C58.1697 28.6442 58.2375 28.6328 58.295 28.6101C58.3532 28.5874 58.3983 28.5558 58.4303 28.5153C58.4623 28.4748 58.4782 28.4283 58.4782 28.3757C58.4782 28.3267 58.4637 28.2855 58.4346 28.2521C58.4062 28.2187 58.3643 28.1903 58.3089 28.1669C58.2542 28.1435 58.1871 28.1222 58.1075 28.103L57.8699 28.0433C57.686 27.9986 57.5407 27.9286 57.4342 27.8335C57.3277 27.7383 57.2748 27.6101 57.2755 27.4489C57.2748 27.3168 57.3099 27.2013 57.3809 27.1026C57.4527 27.0039 57.551 26.9268 57.676 26.8714C57.801 26.8161 57.9431 26.7884 58.1022 26.7884C58.2641 26.7884 58.4055 26.8161 58.5262 26.8714C58.6476 26.9268 58.7421 27.0039 58.8096 27.1026C58.877 27.2013 58.9118 27.3157 58.914 27.4457H58.4719ZM59.171 27.1985V26.8182H60.9629V27.1985H60.2949V29H59.839V27.1985H59.171ZM62.6056 26.8182H63.0669V28.2351C63.0669 28.3942 63.0289 28.5334 62.9529 28.6527C62.8777 28.772 62.7722 28.8651 62.6365 28.9318C62.5009 28.9979 62.3429 29.0309 62.1625 29.0309C61.9814 29.0309 61.823 28.9979 61.6873 28.9318C61.5517 28.8651 61.4462 28.772 61.3709 28.6527C61.2956 28.5334 61.258 28.3942 61.258 28.2351V26.8182H61.7193V28.1957C61.7193 28.2788 61.7374 28.3526 61.7736 28.4173C61.8105 28.4819 61.8624 28.5327 61.9292 28.5696C61.9959 28.6065 62.0737 28.625 62.1625 28.625C62.252 28.625 62.3297 28.6065 62.3958 28.5696C62.4625 28.5327 62.514 28.4819 62.5502 28.4173C62.5872 28.3526 62.6056 28.2788 62.6056 28.1957V26.8182ZM64.2199 29H63.4465V26.8182H64.2263C64.4458 26.8182 64.6347 26.8619 64.7931 26.9492C64.9514 27.0359 65.0732 27.1605 65.1585 27.3232C65.2444 27.4858 65.2874 27.6804 65.2874 27.907C65.2874 28.1342 65.2444 28.3295 65.1585 28.4929C65.0732 28.6562 64.9507 28.7816 64.7909 28.869C64.6318 28.9563 64.4415 29 64.2199 29ZM63.9078 28.6048H64.2007C64.3371 28.6048 64.4518 28.5806 64.5448 28.5323C64.6386 28.4833 64.7089 28.4077 64.7558 28.3054C64.8034 28.2024 64.8271 28.0696 64.8271 27.907C64.8271 27.7457 64.8034 27.614 64.7558 27.5117C64.7089 27.4094 64.6389 27.3342 64.5459 27.2859C64.4529 27.2376 64.3382 27.2134 64.2018 27.2134H63.9078V28.6048ZM65.6291 29V26.8182H67.0993V27.1985H66.0904V27.7184H67.0236V28.0987H66.0904V28.6197H67.1035V29H65.6291ZM69.2909 26.8182V29H68.8925L67.9433 27.6268H67.9273V29H67.466V26.8182H67.8708L68.8126 28.1903H68.8318V26.8182H69.2909ZM69.589 27.1985V26.8182H71.3809V27.1985H70.7129V29H70.2569V27.1985H69.589ZM72.3703 29V26.8182H73.2439C73.4044 26.8182 73.5383 26.842 73.6455 26.8896C73.7528 26.9371 73.8334 27.0032 73.8873 27.0877C73.9413 27.1715 73.9683 27.2681 73.9683 27.3775C73.9683 27.4627 73.9513 27.5376 73.9172 27.6023C73.8831 27.6662 73.8362 27.7187 73.7765 27.7599C73.7176 27.8004 73.6501 27.8292 73.5741 27.8462V27.8675C73.6572 27.8711 73.735 27.8945 73.8074 27.9379C73.8806 27.9812 73.9399 28.0419 73.9854 28.12C74.0308 28.1974 74.0535 28.2898 74.0535 28.397C74.0535 28.5128 74.0248 28.6161 73.9672 28.707C73.9104 28.7972 73.8263 28.8686 73.7148 28.9212C73.6032 28.9737 73.4658 29 73.3025 29H72.3703ZM72.8316 28.6229H73.2077C73.3362 28.6229 73.43 28.5984 73.4889 28.5494C73.5479 28.4996 73.5773 28.4336 73.5773 28.3512C73.5773 28.2908 73.5628 28.2376 73.5336 28.1914C73.5045 28.1452 73.463 28.109 73.409 28.0827C73.3557 28.0565 73.2922 28.0433 73.2183 28.0433H72.8316V28.6229ZM72.8316 27.7312H73.1736C73.2368 27.7312 73.2929 27.7202 73.3419 27.6982C73.3916 27.6754 73.4307 27.6435 73.4591 27.6023C73.4882 27.5611 73.5028 27.5117 73.5028 27.4542C73.5028 27.3754 73.4747 27.3118 73.4186 27.2635C73.3632 27.2152 73.2844 27.1911 73.1821 27.1911H72.8316V27.7312ZM74.3537 29V26.8182H75.2145C75.3793 26.8182 75.5199 26.8477 75.6364 26.9066C75.7536 26.9648 75.8427 27.0476 75.9038 27.1548C75.9656 27.2614 75.9964 27.3867 75.9964 27.5309C75.9964 27.6758 75.9652 27.8004 75.9027 27.9048C75.8402 28.0085 75.7496 28.0881 75.631 28.1435C75.5131 28.1989 75.3704 28.2266 75.2028 28.2266H74.6264V27.8558H75.1282C75.2163 27.8558 75.2894 27.8437 75.3477 27.8196C75.4059 27.7955 75.4492 27.7592 75.4776 27.7109C75.5067 27.6626 75.5213 27.6026 75.5213 27.5309C75.5213 27.4585 75.5067 27.3974 75.4776 27.3477C75.4492 27.2979 75.4055 27.2603 75.3466 27.2347C75.2884 27.2085 75.2148 27.1953 75.1261 27.1953H74.815V29H74.3537ZM75.532 28.0071L76.0742 29H75.565L75.0344 28.0071H75.532ZM76.6985 29H76.2042L76.9574 26.8182H77.5518L78.304 29H77.8097L77.2631 27.3168H77.2461L76.6985 29ZM76.6676 28.1424H77.8352V28.5025H76.6676V28.1424ZM80.3915 26.8182V29H79.9931L79.0439 27.6268H79.0279V29H78.5666V26.8182H78.9714L79.9132 28.1903H79.9324V26.8182H80.3915ZM82.6977 27.582H82.2311C82.2226 27.5217 82.2052 27.468 82.1789 27.4212C82.1526 27.3736 82.1189 27.3331 82.0777 27.2997C82.0365 27.2663 81.9889 27.2408 81.9349 27.223C81.8817 27.2053 81.8238 27.1964 81.7613 27.1964C81.6483 27.1964 81.55 27.2244 81.4662 27.2805C81.3824 27.3359 81.3174 27.4169 81.2712 27.5234C81.2251 27.6293 81.202 27.7578 81.202 27.9091C81.202 28.0646 81.2251 28.1953 81.2712 28.3011C81.3181 28.407 81.3834 28.4869 81.4672 28.5408C81.551 28.5948 81.648 28.6218 81.7581 28.6218C81.8199 28.6218 81.877 28.6136 81.9296 28.5973C81.9829 28.581 82.0301 28.5572 82.0713 28.5259C82.1125 28.494 82.1466 28.4553 82.1736 28.4098C82.2013 28.3643 82.2204 28.3125 82.2311 28.2543L82.6977 28.2564C82.6856 28.3565 82.6555 28.4531 82.6072 28.5462C82.5596 28.6385 82.4953 28.7212 82.4143 28.7944C82.3341 28.8668 82.2382 28.9244 82.1267 28.967C82.0159 29.0089 81.8905 29.0298 81.7506 29.0298C81.556 29.0298 81.382 28.9858 81.2286 28.8977C81.0759 28.8097 80.9552 28.6822 80.8664 28.5153C80.7783 28.3484 80.7343 28.1463 80.7343 27.9091C80.7343 27.6712 80.779 27.4688 80.8685 27.3018C80.958 27.1349 81.0795 27.0078 81.2329 26.9205C81.3863 26.8324 81.5589 26.7884 81.7506 26.7884C81.877 26.7884 81.9942 26.8061 82.1022 26.8416C82.2108 26.8771 82.3071 26.929 82.3909 26.9972C82.4747 27.0646 82.5429 27.1474 82.5954 27.2454C82.6487 27.3434 82.6828 27.4556 82.6977 27.582ZM83.0285 29V26.8182H83.4898V27.7184H84.4262V26.8182H84.8865V29H84.4262V28.0987H83.4898V29H83.0285Z" fill="#9B1D20"/>
</g>
<defs>
<clipPath id="clip0_139_782">
<rect width="106" height="31.1132" fill="white"/>
</clipPath>
</defs>
</svg>
