<svg width="26" height="25" viewBox="0 0 26 25" fill="none" xmlns="http://www.w3.org/2000/svg">
<path d="M22.3333 7.16659C23.0406 7.16659 23.7189 6.88563 24.219 6.38554C24.719 5.88544 25 5.20716 25 4.49992C25 3.79267 24.719 3.1144 24.219 2.6143C23.7189 2.1142 23.0406 1.83325 22.3333 1.83325H3.66667C2.95942 1.83325 2.28115 2.1142 1.78105 2.6143C1.28095 3.1144 1 3.79267 1 4.49992C1 5.20716 1.28095 5.88544 1.78105 6.38554C2.28115 6.88563 2.95942 7.16659 3.66667 7.16659M22.3333 7.16659H3.66667M22.3333 7.16659V20.4999C22.3333 21.2072 22.0524 21.8854 21.5523 22.3855C21.0522 22.8856 20.3739 23.1666 19.6667 23.1666H6.33333C5.62609 23.1666 4.94781 22.8856 4.44772 22.3855C3.94762 21.8854 3.66667 21.2072 3.66667 20.4999V7.16659M10.3333 12.4999H15.6667" stroke="#161616" stroke-width="2" stroke-linecap="round" stroke-linejoin="round"/>
</svg>
