<svg width="25" height="25" viewBox="0 0 25 25" fill="none" xmlns="http://www.w3.org/2000/svg">
<g clip-path="url(#clip0_1545_10614)">
<path d="M2.6786 10.7144H4.46431C4.70111 10.7144 4.92821 10.8084 5.09566 10.9759C5.2631 11.1433 5.35717 11.3704 5.35717 11.6072V16.0715C5.35717 16.3083 5.2631 16.5354 5.09566 16.7028C4.92821 16.8703 4.70111 16.9644 4.46431 16.9644H2.6786C2.205 16.9644 1.75079 16.7762 1.41591 16.4413C1.08102 16.1064 0.892883 15.6522 0.892883 15.1786V12.5001C0.892883 12.0265 1.08102 11.5723 1.41591 11.2374C1.75079 10.9025 2.205 10.7144 2.6786 10.7144V10.7144Z" stroke="#000001" stroke-width="1.5" stroke-linecap="round" stroke-linejoin="round"/>
<path d="M22.3215 16.9644H20.5357C20.2989 16.9644 20.0718 16.8703 19.9044 16.7028C19.737 16.5354 19.6429 16.3083 19.6429 16.0715V11.6072C19.6429 11.3704 19.737 11.1433 19.9044 10.9759C20.0718 10.8084 20.2989 10.7144 20.5357 10.7144H22.3215C22.7951 10.7144 23.2493 10.9025 23.5842 11.2374C23.919 11.5723 24.1072 12.0265 24.1072 12.5001V15.1786C24.1072 15.6522 23.919 16.1064 23.5842 16.4413C23.2493 16.7762 22.7951 16.9644 22.3215 16.9644V16.9644Z" stroke="#000001" stroke-width="1.5" stroke-linecap="round" stroke-linejoin="round"/>
<path d="M16.9643 21.8751C17.9115 21.8751 18.8199 21.4988 19.4897 20.829C20.1594 20.1592 20.5357 19.2508 20.5357 18.3036V16.9644" stroke="#000001" stroke-width="1.5" stroke-linecap="round" stroke-linejoin="round"/>
<path d="M14.7322 19.6428C15.3242 19.6428 15.8919 19.878 16.3105 20.2966C16.7292 20.7152 16.9643 21.283 16.9643 21.875C16.9643 22.467 16.7292 23.0347 16.3105 23.4533C15.8919 23.8719 15.3242 24.1071 14.7322 24.1071H12.0536C11.4616 24.1071 10.8939 23.8719 10.4753 23.4533C10.0566 23.0347 9.82147 22.467 9.82147 21.875C9.82147 21.283 10.0566 20.7152 10.4753 20.2966C10.8939 19.878 11.4616 19.6428 12.0536 19.6428H14.7322Z" stroke="#000001" stroke-width="1.5" stroke-linecap="round" stroke-linejoin="round"/>
<path d="M4.46429 10.7143V8.92854C4.46429 6.79733 5.31091 4.75342 6.8179 3.24643C8.32489 1.73944 10.3688 0.892822 12.5 0.892822C14.6312 0.892822 16.6751 1.73944 18.1821 3.24643C19.6891 4.75342 20.5357 6.79733 20.5357 8.92854V10.7143" stroke="#000001" stroke-width="1.5" stroke-linecap="round" stroke-linejoin="round"/>
<path d="M9.82147 7.14282V9.82139" stroke="#000001" stroke-width="1.5" stroke-linecap="round" stroke-linejoin="round"/>
<path d="M15.1786 7.14282V9.82139" stroke="#000001" stroke-width="1.5" stroke-linecap="round" stroke-linejoin="round"/>
<path d="M9.82147 13.3928C9.82147 15.7678 15.1786 15.7678 15.1786 13.3928" stroke="#000001" stroke-width="1.5" stroke-linecap="round" stroke-linejoin="round"/>
</g>
<defs>
<clipPath id="clip0_1545_10614">
<rect width="25" height="25" fill="white"/>
</clipPath>
</defs>
</svg>
